<?xml version="1.0" encoding="UTF-8" standalone="no"?>
<!DOCTYPE svg PUBLIC "-//W3C//DTD SVG 1.1//EN"
 "http://www.w3.org/Graphics/SVG/1.1/DTD/svg11.dtd">
<!-- Generated by graphviz version 2.38.0 (20140413.2041)
 -->
<!-- Title: hidden_input Pages: 1 -->
<svg width="94pt" height="645pt"
 viewBox="0.00 0.00 94.00 645.00" xmlns="http://www.w3.org/2000/svg" xmlns:xlink="http://www.w3.org/1999/xlink">
<g id="graph0" class="graph" transform="scale(1 1) rotate(0) translate(4 641)">
<title>hidden_input</title>
<polygon fill="white" stroke="none" points="-4,4 -4,-641 90,-641 90,4 -4,4"/>
<!-- Node1 -->
<g id="node1" class="node"><title>Node1</title>
<polygon fill="#bfbfbf" stroke="black" points="0,-94.5 0,-173.5 86,-173.5 86,-94.5 0,-94.5"/>
<text text-anchor="middle" x="43" y="-161.5" font-family="Helvetica,sans-Serif" font-size="10.00">hidden_input</text>
<polyline fill="none" stroke="black" points="0,-154.5 86,-154.5 "/>
<text text-anchor="middle" x="43" y="-142.5" font-family="Helvetica,sans-Serif" font-size="10.00"> </text>
<polyline fill="none" stroke="black" points="0,-135.5 86,-135.5 "/>
<text text-anchor="start" x="8" y="-123.5" font-family="Helvetica,sans-Serif" font-size="10.00">+ hidden_input()</text>
<text text-anchor="start" x="8" y="-112.5" font-family="Helvetica,sans-Serif" font-size="10.00">+ form()</text>
<text text-anchor="start" x="8" y="-101.5" font-family="Helvetica,sans-Serif" font-size="10.00">+ display()</text>
</g>
<!-- Node4 -->
<g id="node4" class="node"><title>Node4</title>
<g id="a_node4"><a xlink:href="classget__input.html" target="_top" xlink:title="An hidden_input that reads its value from the $_GET global array on creation. ">
<polygon fill="white" stroke="black" points="1.5,-0.5 1.5,-57.5 84.5,-57.5 84.5,-0.5 1.5,-0.5"/>
<text text-anchor="middle" x="43" y="-45.5" font-family="Helvetica,sans-Serif" font-size="10.00">get_input</text>
<polyline fill="none" stroke="black" points="1.5,-38.5 84.5,-38.5 "/>
<text text-anchor="middle" x="43" y="-26.5" font-family="Helvetica,sans-Serif" font-size="10.00"> </text>
<polyline fill="none" stroke="black" points="1.5,-19.5 84.5,-19.5 "/>
<text text-anchor="start" x="9.5" y="-7.5" font-family="Helvetica,sans-Serif" font-size="10.00">+ __construct()</text>
</a>
</g>
</g>
<!-- Node1&#45;&gt;Node4 -->
<g id="edge3" class="edge"><title>Node1&#45;&gt;Node4</title>
<path fill="none" stroke="midnightblue" d="M43,-84.1628C43,-75.0404 43,-65.8063 43,-57.6095"/>
<polygon fill="none" stroke="midnightblue" points="39.5001,-84.3535 43,-94.3536 46.5001,-84.3536 39.5001,-84.3535"/>
</g>
<!-- Node2 -->
<g id="node2" class="node"><title>Node2</title>
<g id="a_node2"><a xlink:href="classinput.html" target="_top" xlink:title="The class input describes a form element, it&#39;s attributes and how it is validated and sanitized...">
<polygon fill="white" stroke="black" points="1,-210.5 1,-487.5 85,-487.5 85,-210.5 1,-210.5"/>
<text text-anchor="middle" x="43" y="-475.5" font-family="Helvetica,sans-Serif" font-size="10.00">input</text>
<polyline fill="none" stroke="black" points="1,-468.5 85,-468.5 "/>
<text text-anchor="start" x="9" y="-456.5" font-family="Helvetica,sans-Serif" font-size="10.00">+ $label_text</text>
<text text-anchor="start" x="9" y="-445.5" font-family="Helvetica,sans-Serif" font-size="10.00">+ $name</text>
<text text-anchor="start" x="9" y="-434.5" font-family="Helvetica,sans-Serif" font-size="10.00">+ $type</text>
<text text-anchor="start" x="9" y="-423.5" font-family="Helvetica,sans-Serif" font-size="10.00">+ $value</text>
<text text-anchor="start" x="9" y="-412.5" font-family="Helvetica,sans-Serif" font-size="10.00">+ $min</text>
<text text-anchor="start" x="9" y="-401.5" font-family="Helvetica,sans-Serif" font-size="10.00">+ $max</text>
<text text-anchor="start" x="9" y="-390.5" font-family="Helvetica,sans-Serif" font-size="10.00">+ $maxlength</text>
<text text-anchor="start" x="9" y="-379.5" font-family="Helvetica,sans-Serif" font-size="10.00">+ $pattern</text>
<text text-anchor="start" x="9" y="-368.5" font-family="Helvetica,sans-Serif" font-size="10.00">+ $required</text>
<text text-anchor="start" x="9" y="-357.5" font-family="Helvetica,sans-Serif" font-size="10.00">+ $placeholder</text>
<text text-anchor="start" x="9" y="-346.5" font-family="Helvetica,sans-Serif" font-size="10.00">+ $sanity_func</text>
<text text-anchor="start" x="9" y="-335.5" font-family="Helvetica,sans-Serif" font-size="10.00">+ $valid_func</text>
<text text-anchor="start" x="9" y="-324.5" font-family="Helvetica,sans-Serif" font-size="10.00">+ $attributes</text>
<polyline fill="none" stroke="black" points="1,-317.5 85,-317.5 "/>
<text text-anchor="start" x="9" y="-305.5" font-family="Helvetica,sans-Serif" font-size="10.00">+ __construct()</text>
<text text-anchor="start" x="9" y="-294.5" font-family="Helvetica,sans-Serif" font-size="10.00">+ form()</text>
<text text-anchor="start" x="9" y="-283.5" font-family="Helvetica,sans-Serif" font-size="10.00">+ display()</text>
<text text-anchor="start" x="9" y="-272.5" font-family="Helvetica,sans-Serif" font-size="10.00">+ display_text()</text>
<text text-anchor="start" x="9" y="-261.5" font-family="Helvetica,sans-Serif" font-size="10.00">+ sanitize()</text>
<text text-anchor="start" x="9" y="-250.5" font-family="Helvetica,sans-Serif" font-size="10.00">+ validate()</text>
<text text-anchor="start" x="9" y="-239.5" font-family="Helvetica,sans-Serif" font-size="10.00">+ get_value()</text>
<text text-anchor="start" x="9" y="-228.5" font-family="Helvetica,sans-Serif" font-size="10.00">+ set_value()</text>
<text text-anchor="start" x="9" y="-217.5" font-family="Helvetica,sans-Serif" font-size="10.00">+ values()</text>
</a>
</g>
</g>
<!-- Node2&#45;&gt;Node1 -->
<g id="edge1" class="edge"><title>Node2&#45;&gt;Node1</title>
<path fill="none" stroke="midnightblue" d="M43,-200.252C43,-190.685 43,-181.643 43,-173.51"/>
<polygon fill="none" stroke="midnightblue" points="39.5001,-200.396 43,-210.396 46.5001,-200.396 39.5001,-200.396"/>
</g>
<!-- Node3 -->
<g id="node3" class="node"><title>Node3</title>
<g id="a_node3"><a xlink:href="interfacefield.html" target="_top" xlink:title="{field\n||+ values()\l+ form()\l+ validate()\l+ sanitize()\l+ display()\l+ display_text()\l}">
<polygon fill="white" stroke="black" points="1,-524.5 1,-636.5 85,-636.5 85,-524.5 1,-524.5"/>
<text text-anchor="middle" x="43" y="-624.5" font-family="Helvetica,sans-Serif" font-size="10.00">field</text>
<polyline fill="none" stroke="black" points="1,-617.5 85,-617.5 "/>
<text text-anchor="middle" x="43" y="-605.5" font-family="Helvetica,sans-Serif" font-size="10.00"> </text>
<polyline fill="none" stroke="black" points="1,-598.5 85,-598.5 "/>
<text text-anchor="start" x="9" y="-586.5" font-family="Helvetica,sans-Serif" font-size="10.00">+ values()</text>
<text text-anchor="start" x="9" y="-575.5" font-family="Helvetica,sans-Serif" font-size="10.00">+ form()</text>
<text text-anchor="start" x="9" y="-564.5" font-family="Helvetica,sans-Serif" font-size="10.00">+ validate()</text>
<text text-anchor="start" x="9" y="-553.5" font-family="Helvetica,sans-Serif" font-size="10.00">+ sanitize()</text>
<text text-anchor="start" x="9" y="-542.5" font-family="Helvetica,sans-Serif" font-size="10.00">+ display()</text>
<text text-anchor="start" x="9" y="-531.5" font-family="Helvetica,sans-Serif" font-size="10.00">+ display_text()</text>
</a>
</g>
</g>
<!-- Node3&#45;&gt;Node2 -->
<g id="edge2" class="edge"><title>Node3&#45;&gt;Node2</title>
<path fill="none" stroke="midnightblue" d="M43,-514.211C43,-505.8 43,-496.951 43,-487.901"/>
<polygon fill="none" stroke="midnightblue" points="39.5001,-514.237 43,-524.237 46.5001,-514.237 39.5001,-514.237"/>
</g>
</g>
</svg>
