<?xml version="1.0" encoding="UTF-8" standalone="no"?>
<!DOCTYPE svg PUBLIC "-//W3C//DTD SVG 1.1//EN"
 "http://www.w3.org/Graphics/SVG/1.1/DTD/svg11.dtd">
<!-- Generated by graphviz version 2.38.0 (20140413.2041)
 -->
<!-- Title: observer Pages: 1 -->
<svg width="194pt" height="248pt"
 viewBox="0.00 0.00 193.50 248.00" xmlns="http://www.w3.org/2000/svg" xmlns:xlink="http://www.w3.org/1999/xlink">
<g id="graph0" class="graph" transform="scale(1 1) rotate(0) translate(4 244)">
<title>observer</title>
<polygon fill="white" stroke="none" points="-4,4 -4,-244 189.5,-244 189.5,4 -4,4"/>
<!-- Node1 -->
<g id="node1" class="node"><title>Node1</title>
<polygon fill="#bfbfbf" stroke="black" points="57.5,-160.5 57.5,-239.5 140.5,-239.5 140.5,-160.5 57.5,-160.5"/>
<text text-anchor="middle" x="99" y="-227.5" font-family="Helvetica,sans-Serif" font-size="10.00">observer</text>
<polyline fill="none" stroke="black" points="57.5,-220.5 140.5,-220.5 "/>
<text text-anchor="middle" x="99" y="-208.5" font-family="Helvetica,sans-Serif" font-size="10.00"> </text>
<polyline fill="none" stroke="black" points="57.5,-201.5 140.5,-201.5 "/>
<text text-anchor="start" x="65.5" y="-189.5" font-family="Helvetica,sans-Serif" font-size="10.00">+ __construct()</text>
<text text-anchor="start" x="65.5" y="-178.5" font-family="Helvetica,sans-Serif" font-size="10.00">+ set_func()</text>
<text text-anchor="start" x="65.5" y="-167.5" font-family="Helvetica,sans-Serif" font-size="10.00">+ notify()</text>
</g>
<!-- Node2 -->
<g id="node2" class="node"><title>Node2</title>
<g id="a_node2"><a xlink:href="classemail__form__values.html" target="_top" xlink:title="This observer object emails the values of a form when the action in condition is performed. ">
<polygon fill="white" stroke="black" points="0,-0.5 0,-123.5 96,-123.5 96,-0.5 0,-0.5"/>
<text text-anchor="middle" x="48" y="-111.5" font-family="Helvetica,sans-Serif" font-size="10.00">email_form_values</text>
<polyline fill="none" stroke="black" points="0,-104.5 96,-104.5 "/>
<text text-anchor="start" x="8" y="-92.5" font-family="Helvetica,sans-Serif" font-size="10.00">+ $email_to</text>
<text text-anchor="start" x="8" y="-81.5" font-family="Helvetica,sans-Serif" font-size="10.00">+ $email_from</text>
<text text-anchor="start" x="8" y="-70.5" font-family="Helvetica,sans-Serif" font-size="10.00">+ $email_subject</text>
<text text-anchor="start" x="8" y="-59.5" font-family="Helvetica,sans-Serif" font-size="10.00">+ $condition</text>
<polyline fill="none" stroke="black" points="0,-52.5 96,-52.5 "/>
<text text-anchor="start" x="8" y="-40.5" font-family="Helvetica,sans-Serif" font-size="10.00">+ __construct()</text>
<text text-anchor="start" x="8" y="-29.5" font-family="Helvetica,sans-Serif" font-size="10.00">+ notify()</text>
<text text-anchor="start" x="8" y="-18.5" font-family="Helvetica,sans-Serif" font-size="10.00">+ values()</text>
<text text-anchor="start" x="8" y="-7.5" font-family="Helvetica,sans-Serif" font-size="10.00">+ form()</text>
</a>
</g>
</g>
<!-- Node1&#45;&gt;Node2 -->
<g id="edge1" class="edge"><title>Node1&#45;&gt;Node2</title>
<path fill="none" stroke="midnightblue" d="M80.9982,-150.995C77.6722,-142.126 74.1593,-132.758 70.7151,-123.574"/>
<polygon fill="none" stroke="midnightblue" points="77.7334,-152.257 84.5219,-160.392 84.2877,-149.799 77.7334,-152.257"/>
</g>
<!-- Node3 -->
<g id="node3" class="node"><title>Node3</title>
<g id="a_node3"><a xlink:href="classmessage.html" target="_top" xlink:title="Display a message on event. ">
<polygon fill="white" stroke="black" points="114.5,-11.5 114.5,-112.5 185.5,-112.5 185.5,-11.5 114.5,-11.5"/>
<text text-anchor="middle" x="150" y="-100.5" font-family="Helvetica,sans-Serif" font-size="10.00">message</text>
<polyline fill="none" stroke="black" points="114.5,-93.5 185.5,-93.5 "/>
<text text-anchor="start" x="122.5" y="-81.5" font-family="Helvetica,sans-Serif" font-size="10.00">+ $msg</text>
<text text-anchor="start" x="122.5" y="-70.5" font-family="Helvetica,sans-Serif" font-size="10.00">+ $condition</text>
<polyline fill="none" stroke="black" points="114.5,-63.5 185.5,-63.5 "/>
<text text-anchor="start" x="122.5" y="-51.5" font-family="Helvetica,sans-Serif" font-size="10.00">+ message()</text>
<text text-anchor="start" x="122.5" y="-40.5" font-family="Helvetica,sans-Serif" font-size="10.00">+ notify()</text>
<text text-anchor="start" x="122.5" y="-29.5" font-family="Helvetica,sans-Serif" font-size="10.00">+ values()</text>
<text text-anchor="start" x="122.5" y="-18.5" font-family="Helvetica,sans-Serif" font-size="10.00">+ form()</text>
</a>
</g>
</g>
<!-- Node1&#45;&gt;Node3 -->
<g id="edge2" class="edge"><title>Node1&#45;&gt;Node3</title>
<path fill="none" stroke="midnightblue" d="M117.083,-150.778C121.689,-138.495 126.649,-125.27 131.286,-112.905"/>
<polygon fill="none" stroke="midnightblue" points="113.712,-149.799 113.478,-160.392 120.267,-152.257 113.712,-149.799"/>
</g>
</g>
</svg>
