<?xml version="1.0" encoding="UTF-8" standalone="no"?>
<!DOCTYPE svg PUBLIC "-//W3C//DTD SVG 1.1//EN"
 "http://www.w3.org/Graphics/SVG/1.1/DTD/svg11.dtd">
<!-- Generated by graphviz version 2.38.0 (20140413.2041)
 -->
<!-- Title: db_form Pages: 1 -->
<svg width="219pt" height="700pt"
 viewBox="0.00 0.00 218.50 700.00" xmlns="http://www.w3.org/2000/svg" xmlns:xlink="http://www.w3.org/1999/xlink">
<g id="graph0" class="graph" transform="scale(1 1) rotate(0) translate(4 696)">
<title>db_form</title>
<polygon fill="white" stroke="none" points="-4,4 -4,-696 214.5,-696 214.5,4 -4,4"/>
<!-- Node1 -->
<g id="node1" class="node"><title>Node1</title>
<polygon fill="#bfbfbf" stroke="black" points="100.5,-0.5 100.5,-101.5 177.5,-101.5 177.5,-0.5 100.5,-0.5"/>
<text text-anchor="middle" x="139" y="-89.5" font-family="Helvetica,sans-Serif" font-size="10.00">db_form</text>
<polyline fill="none" stroke="black" points="100.5,-82.5 177.5,-82.5 "/>
<text text-anchor="middle" x="139" y="-70.5" font-family="Helvetica,sans-Serif" font-size="10.00"> </text>
<polyline fill="none" stroke="black" points="100.5,-63.5 177.5,-63.5 "/>
<text text-anchor="start" x="108.5" y="-51.5" font-family="Helvetica,sans-Serif" font-size="10.00">+ create()</text>
<text text-anchor="start" x="108.5" y="-40.5" font-family="Helvetica,sans-Serif" font-size="10.00">+ read()</text>
<text text-anchor="start" x="108.5" y="-29.5" font-family="Helvetica,sans-Serif" font-size="10.00">+ update()</text>
<text text-anchor="start" x="108.5" y="-18.5" font-family="Helvetica,sans-Serif" font-size="10.00">+ delete()</text>
<text text-anchor="start" x="108.5" y="-7.5" font-family="Helvetica,sans-Serif" font-size="10.00">+ create_sql()</text>
</g>
<!-- Node2 -->
<g id="node2" class="node"><title>Node2</title>
<g id="a_node2"><a xlink:href="classcrud__form.html" target="_top" xlink:title="{crud_form\n||+ do_form()\l}">
<polygon fill="white" stroke="black" points="65,-155 65,-212 131,-212 131,-155 65,-155"/>
<text text-anchor="middle" x="98" y="-200" font-family="Helvetica,sans-Serif" font-size="10.00">crud_form</text>
<polyline fill="none" stroke="black" points="65,-193 131,-193 "/>
<text text-anchor="middle" x="98" y="-181" font-family="Helvetica,sans-Serif" font-size="10.00"> </text>
<polyline fill="none" stroke="black" points="65,-174 131,-174 "/>
<text text-anchor="start" x="73" y="-162" font-family="Helvetica,sans-Serif" font-size="10.00">+ do_form()</text>
</a>
</g>
</g>
<!-- Node2&#45;&gt;Node1 -->
<g id="edge1" class="edge"><title>Node2&#45;&gt;Node1</title>
<path fill="none" stroke="midnightblue" d="M109.811,-144.907C114.062,-131.375 118.925,-115.897 123.447,-101.505"/>
<polygon fill="none" stroke="midnightblue" points="106.353,-144.235 106.695,-154.824 113.032,-146.333 106.353,-144.235"/>
</g>
<!-- Node3 -->
<g id="node3" class="node"><title>Node3</title>
<g id="a_node3"><a xlink:href="classforms.html" target="_top" xlink:title="This class describes an HTML form, containing a collection of inputs, and does mass validation and sa...">
<polygon fill="white" stroke="black" points="46,-265.5 46,-542.5 150,-542.5 150,-265.5 46,-265.5"/>
<text text-anchor="middle" x="98" y="-530.5" font-family="Helvetica,sans-Serif" font-size="10.00">forms</text>
<polyline fill="none" stroke="black" points="46,-523.5 150,-523.5 "/>
<text text-anchor="start" x="54" y="-511.5" font-family="Helvetica,sans-Serif" font-size="10.00">+ $name</text>
<text text-anchor="start" x="54" y="-500.5" font-family="Helvetica,sans-Serif" font-size="10.00">+ $id</text>
<text text-anchor="start" x="54" y="-489.5" font-family="Helvetica,sans-Serif" font-size="10.00">+ $pre</text>
<text text-anchor="start" x="54" y="-478.5" font-family="Helvetica,sans-Serif" font-size="10.00">+ $fields</text>
<text text-anchor="start" x="54" y="-467.5" font-family="Helvetica,sans-Serif" font-size="10.00">+ $observers</text>
<text text-anchor="start" x="54" y="-456.5" font-family="Helvetica,sans-Serif" font-size="10.00">+ $nonce</text>
<text text-anchor="start" x="54" y="-445.5" font-family="Helvetica,sans-Serif" font-size="10.00">+ $before_input</text>
<text text-anchor="start" x="54" y="-434.5" font-family="Helvetica,sans-Serif" font-size="10.00">+ $after_input</text>
<text text-anchor="start" x="54" y="-423.5" font-family="Helvetica,sans-Serif" font-size="10.00">+ $before_form</text>
<text text-anchor="start" x="54" y="-412.5" font-family="Helvetica,sans-Serif" font-size="10.00">+ $after_form</text>
<polyline fill="none" stroke="black" points="46,-405.5 150,-405.5 "/>
<text text-anchor="start" x="54" y="-393.5" font-family="Helvetica,sans-Serif" font-size="10.00">+ __construct()</text>
<text text-anchor="start" x="54" y="-382.5" font-family="Helvetica,sans-Serif" font-size="10.00">+ form()</text>
<text text-anchor="start" x="54" y="-371.5" font-family="Helvetica,sans-Serif" font-size="10.00">+ sanitize()</text>
<text text-anchor="start" x="54" y="-360.5" font-family="Helvetica,sans-Serif" font-size="10.00">+ display()</text>
<text text-anchor="start" x="54" y="-349.5" font-family="Helvetica,sans-Serif" font-size="10.00">+ display_text()</text>
<text text-anchor="start" x="54" y="-338.5" font-family="Helvetica,sans-Serif" font-size="10.00">+ validate()</text>
<text text-anchor="start" x="54" y="-327.5" font-family="Helvetica,sans-Serif" font-size="10.00">+ add_field()</text>
<text text-anchor="start" x="54" y="-316.5" font-family="Helvetica,sans-Serif" font-size="10.00">+ values()</text>
<text text-anchor="start" x="54" y="-305.5" font-family="Helvetica,sans-Serif" font-size="10.00">+ get_value()</text>
<text text-anchor="start" x="54" y="-294.5" font-family="Helvetica,sans-Serif" font-size="10.00">+ notify()</text>
<text text-anchor="start" x="54" y="-283.5" font-family="Helvetica,sans-Serif" font-size="10.00">+ add_observer()</text>
<text text-anchor="start" x="54" y="-272.5" font-family="Helvetica,sans-Serif" font-size="10.00">+ remove_observer()</text>
</a>
</g>
</g>
<!-- Node3&#45;&gt;Node2 -->
<g id="edge2" class="edge"><title>Node3&#45;&gt;Node2</title>
<path fill="none" stroke="midnightblue" d="M98,-255.009C98,-238.822 98,-223.938 98,-212.059"/>
<polygon fill="none" stroke="midnightblue" points="94.5001,-255.241 98,-265.241 101.5,-255.241 94.5001,-255.241"/>
</g>
<!-- Node4 -->
<g id="node4" class="node"><title>Node4</title>
<g id="a_node4"><a xlink:href="interfacefield.html" target="_top" xlink:title="{field\n||+ values()\l+ form()\l+ validate()\l+ sanitize()\l+ display()\l+ display_text()\l}">
<polygon fill="white" stroke="black" points="0,-579.5 0,-691.5 84,-691.5 84,-579.5 0,-579.5"/>
<text text-anchor="middle" x="42" y="-679.5" font-family="Helvetica,sans-Serif" font-size="10.00">field</text>
<polyline fill="none" stroke="black" points="0,-672.5 84,-672.5 "/>
<text text-anchor="middle" x="42" y="-660.5" font-family="Helvetica,sans-Serif" font-size="10.00"> </text>
<polyline fill="none" stroke="black" points="0,-653.5 84,-653.5 "/>
<text text-anchor="start" x="8" y="-641.5" font-family="Helvetica,sans-Serif" font-size="10.00">+ values()</text>
<text text-anchor="start" x="8" y="-630.5" font-family="Helvetica,sans-Serif" font-size="10.00">+ form()</text>
<text text-anchor="start" x="8" y="-619.5" font-family="Helvetica,sans-Serif" font-size="10.00">+ validate()</text>
<text text-anchor="start" x="8" y="-608.5" font-family="Helvetica,sans-Serif" font-size="10.00">+ sanitize()</text>
<text text-anchor="start" x="8" y="-597.5" font-family="Helvetica,sans-Serif" font-size="10.00">+ display()</text>
<text text-anchor="start" x="8" y="-586.5" font-family="Helvetica,sans-Serif" font-size="10.00">+ display_text()</text>
</a>
</g>
</g>
<!-- Node4&#45;&gt;Node3 -->
<g id="edge3" class="edge"><title>Node4&#45;&gt;Node3</title>
<path fill="none" stroke="midnightblue" d="M57.8635,-569.488C59.936,-560.994 62.1185,-552.05 64.351,-542.901"/>
<polygon fill="none" stroke="midnightblue" points="54.455,-568.692 55.4847,-579.237 61.2555,-570.352 54.455,-568.692"/>
</g>
<!-- Node5 -->
<g id="node5" class="node"><title>Node5</title>
<g id="a_node5"><a xlink:href="interfaceobservable.html" target="_top" xlink:title="Describes objects that are able to be observed by observer objects. ">
<polygon fill="white" stroke="black" points="102,-596 102,-675 206,-675 206,-596 102,-596"/>
<text text-anchor="middle" x="154" y="-663" font-family="Helvetica,sans-Serif" font-size="10.00">observable</text>
<polyline fill="none" stroke="black" points="102,-656 206,-656 "/>
<text text-anchor="middle" x="154" y="-644" font-family="Helvetica,sans-Serif" font-size="10.00"> </text>
<polyline fill="none" stroke="black" points="102,-637 206,-637 "/>
<text text-anchor="start" x="110" y="-625" font-family="Helvetica,sans-Serif" font-size="10.00">+ notify()</text>
<text text-anchor="start" x="110" y="-614" font-family="Helvetica,sans-Serif" font-size="10.00">+ add_observer()</text>
<text text-anchor="start" x="110" y="-603" font-family="Helvetica,sans-Serif" font-size="10.00">+ remove_observer()</text>
</a>
</g>
</g>
<!-- Node5&#45;&gt;Node3 -->
<g id="edge4" class="edge"><title>Node5&#45;&gt;Node3</title>
<path fill="none" stroke="midnightblue" d="M142.116,-585.797C138.946,-572.805 135.358,-558.099 131.63,-542.825"/>
<polygon fill="none" stroke="midnightblue" points="138.793,-586.943 144.564,-595.828 145.593,-585.283 138.793,-586.943"/>
</g>
<!-- Node6 -->
<g id="node6" class="node"><title>Node6</title>
<g id="a_node6"><a xlink:href="interfacecrud.html" target="_top" xlink:title="Describes an object that knows how to Create, Read, Update and Delete iteself. ">
<polygon fill="white" stroke="black" points="149.5,-138.5 149.5,-228.5 210.5,-228.5 210.5,-138.5 149.5,-138.5"/>
<text text-anchor="middle" x="180" y="-216.5" font-family="Helvetica,sans-Serif" font-size="10.00">crud</text>
<polyline fill="none" stroke="black" points="149.5,-209.5 210.5,-209.5 "/>
<text text-anchor="middle" x="180" y="-197.5" font-family="Helvetica,sans-Serif" font-size="10.00"> </text>
<polyline fill="none" stroke="black" points="149.5,-190.5 210.5,-190.5 "/>
<text text-anchor="start" x="157.5" y="-178.5" font-family="Helvetica,sans-Serif" font-size="10.00">+ create()</text>
<text text-anchor="start" x="157.5" y="-167.5" font-family="Helvetica,sans-Serif" font-size="10.00">+ read()</text>
<text text-anchor="start" x="157.5" y="-156.5" font-family="Helvetica,sans-Serif" font-size="10.00">+ update()</text>
<text text-anchor="start" x="157.5" y="-145.5" font-family="Helvetica,sans-Serif" font-size="10.00">+ delete()</text>
</a>
</g>
</g>
<!-- Node6&#45;&gt;Node1 -->
<g id="edge5" class="edge"><title>Node6&#45;&gt;Node1</title>
<path fill="none" stroke="midnightblue" d="M163.099,-128.706C160.272,-119.707 157.35,-110.408 154.559,-101.523"/>
<polygon fill="none" stroke="midnightblue" points="159.783,-129.827 166.119,-138.319 166.461,-127.729 159.783,-129.827"/>
</g>
</g>
</svg>
