<?xml version="1.0" encoding="UTF-8" standalone="no"?>
<!DOCTYPE svg PUBLIC "-//W3C//DTD SVG 1.1//EN"
 "http://www.w3.org/Graphics/SVG/1.1/DTD/svg11.dtd">
<!-- Generated by graphviz version 2.38.0 (20140413.2041)
 -->
<!-- Title: matrix_input Pages: 1 -->
<svg width="106pt" height="573pt"
 viewBox="0.00 0.00 106.00 573.00" xmlns="http://www.w3.org/2000/svg" xmlns:xlink="http://www.w3.org/1999/xlink">
<g id="graph0" class="graph" transform="scale(1 1) rotate(0) translate(4 569)">
<title>matrix_input</title>
<polygon fill="white" stroke="none" points="-4,4 -4,-569 102,-569 102,4 -4,4"/>
<!-- Node1 -->
<g id="node1" class="node"><title>Node1</title>
<polygon fill="#bfbfbf" stroke="black" points="0,-0.5 0,-101.5 98,-101.5 98,-0.5 0,-0.5"/>
<text text-anchor="middle" x="49" y="-89.5" font-family="Helvetica,sans-Serif" font-size="10.00">matrix_input</text>
<polyline fill="none" stroke="black" points="0,-82.5 98,-82.5 "/>
<text text-anchor="start" x="8" y="-70.5" font-family="Helvetica,sans-Serif" font-size="10.00">+ $table_attributes</text>
<text text-anchor="start" x="8" y="-59.5" font-family="Helvetica,sans-Serif" font-size="10.00">+ $before_table</text>
<text text-anchor="start" x="8" y="-48.5" font-family="Helvetica,sans-Serif" font-size="10.00">+ $after_table</text>
<polyline fill="none" stroke="black" points="0,-41.5 98,-41.5 "/>
<text text-anchor="start" x="8" y="-29.5" font-family="Helvetica,sans-Serif" font-size="10.00">+ __construct()</text>
<text text-anchor="start" x="8" y="-18.5" font-family="Helvetica,sans-Serif" font-size="10.00">+ form()</text>
<text text-anchor="start" x="8" y="-7.5" font-family="Helvetica,sans-Serif" font-size="10.00">+ values()</text>
</g>
<!-- Node2 -->
<g id="node2" class="node"><title>Node2</title>
<g id="a_node2"><a xlink:href="classinput.html" target="_top" xlink:title="The class input describes a form element, it&#39;s attributes and how it is validated and sanitized...">
<polygon fill="white" stroke="black" points="7,-138.5 7,-415.5 91,-415.5 91,-138.5 7,-138.5"/>
<text text-anchor="middle" x="49" y="-403.5" font-family="Helvetica,sans-Serif" font-size="10.00">input</text>
<polyline fill="none" stroke="black" points="7,-396.5 91,-396.5 "/>
<text text-anchor="start" x="15" y="-384.5" font-family="Helvetica,sans-Serif" font-size="10.00">+ $label_text</text>
<text text-anchor="start" x="15" y="-373.5" font-family="Helvetica,sans-Serif" font-size="10.00">+ $name</text>
<text text-anchor="start" x="15" y="-362.5" font-family="Helvetica,sans-Serif" font-size="10.00">+ $type</text>
<text text-anchor="start" x="15" y="-351.5" font-family="Helvetica,sans-Serif" font-size="10.00">+ $value</text>
<text text-anchor="start" x="15" y="-340.5" font-family="Helvetica,sans-Serif" font-size="10.00">+ $min</text>
<text text-anchor="start" x="15" y="-329.5" font-family="Helvetica,sans-Serif" font-size="10.00">+ $max</text>
<text text-anchor="start" x="15" y="-318.5" font-family="Helvetica,sans-Serif" font-size="10.00">+ $maxlength</text>
<text text-anchor="start" x="15" y="-307.5" font-family="Helvetica,sans-Serif" font-size="10.00">+ $pattern</text>
<text text-anchor="start" x="15" y="-296.5" font-family="Helvetica,sans-Serif" font-size="10.00">+ $required</text>
<text text-anchor="start" x="15" y="-285.5" font-family="Helvetica,sans-Serif" font-size="10.00">+ $placeholder</text>
<text text-anchor="start" x="15" y="-274.5" font-family="Helvetica,sans-Serif" font-size="10.00">+ $sanity_func</text>
<text text-anchor="start" x="15" y="-263.5" font-family="Helvetica,sans-Serif" font-size="10.00">+ $valid_func</text>
<text text-anchor="start" x="15" y="-252.5" font-family="Helvetica,sans-Serif" font-size="10.00">+ $attributes</text>
<polyline fill="none" stroke="black" points="7,-245.5 91,-245.5 "/>
<text text-anchor="start" x="15" y="-233.5" font-family="Helvetica,sans-Serif" font-size="10.00">+ __construct()</text>
<text text-anchor="start" x="15" y="-222.5" font-family="Helvetica,sans-Serif" font-size="10.00">+ form()</text>
<text text-anchor="start" x="15" y="-211.5" font-family="Helvetica,sans-Serif" font-size="10.00">+ display()</text>
<text text-anchor="start" x="15" y="-200.5" font-family="Helvetica,sans-Serif" font-size="10.00">+ display_text()</text>
<text text-anchor="start" x="15" y="-189.5" font-family="Helvetica,sans-Serif" font-size="10.00">+ sanitize()</text>
<text text-anchor="start" x="15" y="-178.5" font-family="Helvetica,sans-Serif" font-size="10.00">+ validate()</text>
<text text-anchor="start" x="15" y="-167.5" font-family="Helvetica,sans-Serif" font-size="10.00">+ get_value()</text>
<text text-anchor="start" x="15" y="-156.5" font-family="Helvetica,sans-Serif" font-size="10.00">+ set_value()</text>
<text text-anchor="start" x="15" y="-145.5" font-family="Helvetica,sans-Serif" font-size="10.00">+ values()</text>
</a>
</g>
</g>
<!-- Node2&#45;&gt;Node1 -->
<g id="edge1" class="edge"><title>Node2&#45;&gt;Node1</title>
<path fill="none" stroke="midnightblue" d="M49,-128.18C49,-118.987 49,-110.154 49,-101.966"/>
<polygon fill="none" stroke="midnightblue" points="45.5001,-128.284 49,-138.284 52.5001,-128.284 45.5001,-128.284"/>
</g>
<!-- Node3 -->
<g id="node3" class="node"><title>Node3</title>
<g id="a_node3"><a xlink:href="interfacefield.html" target="_top" xlink:title="{field\n||+ values()\l+ form()\l+ validate()\l+ sanitize()\l+ display()\l+ display_text()\l}">
<polygon fill="white" stroke="black" points="7,-452.5 7,-564.5 91,-564.5 91,-452.5 7,-452.5"/>
<text text-anchor="middle" x="49" y="-552.5" font-family="Helvetica,sans-Serif" font-size="10.00">field</text>
<polyline fill="none" stroke="black" points="7,-545.5 91,-545.5 "/>
<text text-anchor="middle" x="49" y="-533.5" font-family="Helvetica,sans-Serif" font-size="10.00"> </text>
<polyline fill="none" stroke="black" points="7,-526.5 91,-526.5 "/>
<text text-anchor="start" x="15" y="-514.5" font-family="Helvetica,sans-Serif" font-size="10.00">+ values()</text>
<text text-anchor="start" x="15" y="-503.5" font-family="Helvetica,sans-Serif" font-size="10.00">+ form()</text>
<text text-anchor="start" x="15" y="-492.5" font-family="Helvetica,sans-Serif" font-size="10.00">+ validate()</text>
<text text-anchor="start" x="15" y="-481.5" font-family="Helvetica,sans-Serif" font-size="10.00">+ sanitize()</text>
<text text-anchor="start" x="15" y="-470.5" font-family="Helvetica,sans-Serif" font-size="10.00">+ display()</text>
<text text-anchor="start" x="15" y="-459.5" font-family="Helvetica,sans-Serif" font-size="10.00">+ display_text()</text>
</a>
</g>
</g>
<!-- Node3&#45;&gt;Node2 -->
<g id="edge2" class="edge"><title>Node3&#45;&gt;Node2</title>
<path fill="none" stroke="midnightblue" d="M49,-442.211C49,-433.8 49,-424.951 49,-415.901"/>
<polygon fill="none" stroke="midnightblue" points="45.5001,-442.237 49,-452.237 52.5001,-442.237 45.5001,-442.237"/>
</g>
</g>
</svg>
