<?xml version="1.0" encoding="UTF-8" standalone="no"?>
<!DOCTYPE svg PUBLIC "-//W3C//DTD SVG 1.1//EN"
 "http://www.w3.org/Graphics/SVG/1.1/DTD/svg11.dtd">
<!-- Generated by graphviz version 2.38.0 (20140413.2041)
 -->
<!-- Title: forms Pages: 1 -->
<svg width="420pt" height="777pt"
 viewBox="0.00 0.00 419.50 777.00" xmlns="http://www.w3.org/2000/svg" xmlns:xlink="http://www.w3.org/1999/xlink">
<g id="graph0" class="graph" transform="scale(1 1) rotate(0) translate(4 773)">
<title>forms</title>
<polygon fill="white" stroke="none" points="-4,4 -4,-773 415.5,-773 415.5,4 -4,4"/>
<!-- Node1 -->
<g id="node1" class="node"><title>Node1</title>
<polygon fill="#bfbfbf" stroke="black" points="134.5,-342.5 134.5,-619.5 238.5,-619.5 238.5,-342.5 134.5,-342.5"/>
<text text-anchor="middle" x="186.5" y="-607.5" font-family="Helvetica,sans-Serif" font-size="10.00">forms</text>
<polyline fill="none" stroke="black" points="134.5,-600.5 238.5,-600.5 "/>
<text text-anchor="start" x="142.5" y="-588.5" font-family="Helvetica,sans-Serif" font-size="10.00">+ $name</text>
<text text-anchor="start" x="142.5" y="-577.5" font-family="Helvetica,sans-Serif" font-size="10.00">+ $id</text>
<text text-anchor="start" x="142.5" y="-566.5" font-family="Helvetica,sans-Serif" font-size="10.00">+ $pre</text>
<text text-anchor="start" x="142.5" y="-555.5" font-family="Helvetica,sans-Serif" font-size="10.00">+ $fields</text>
<text text-anchor="start" x="142.5" y="-544.5" font-family="Helvetica,sans-Serif" font-size="10.00">+ $observers</text>
<text text-anchor="start" x="142.5" y="-533.5" font-family="Helvetica,sans-Serif" font-size="10.00">+ $nonce</text>
<text text-anchor="start" x="142.5" y="-522.5" font-family="Helvetica,sans-Serif" font-size="10.00">+ $before_input</text>
<text text-anchor="start" x="142.5" y="-511.5" font-family="Helvetica,sans-Serif" font-size="10.00">+ $after_input</text>
<text text-anchor="start" x="142.5" y="-500.5" font-family="Helvetica,sans-Serif" font-size="10.00">+ $before_form</text>
<text text-anchor="start" x="142.5" y="-489.5" font-family="Helvetica,sans-Serif" font-size="10.00">+ $after_form</text>
<polyline fill="none" stroke="black" points="134.5,-482.5 238.5,-482.5 "/>
<text text-anchor="start" x="142.5" y="-470.5" font-family="Helvetica,sans-Serif" font-size="10.00">+ __construct()</text>
<text text-anchor="start" x="142.5" y="-459.5" font-family="Helvetica,sans-Serif" font-size="10.00">+ form()</text>
<text text-anchor="start" x="142.5" y="-448.5" font-family="Helvetica,sans-Serif" font-size="10.00">+ sanitize()</text>
<text text-anchor="start" x="142.5" y="-437.5" font-family="Helvetica,sans-Serif" font-size="10.00">+ display()</text>
<text text-anchor="start" x="142.5" y="-426.5" font-family="Helvetica,sans-Serif" font-size="10.00">+ display_text()</text>
<text text-anchor="start" x="142.5" y="-415.5" font-family="Helvetica,sans-Serif" font-size="10.00">+ validate()</text>
<text text-anchor="start" x="142.5" y="-404.5" font-family="Helvetica,sans-Serif" font-size="10.00">+ add_field()</text>
<text text-anchor="start" x="142.5" y="-393.5" font-family="Helvetica,sans-Serif" font-size="10.00">+ values()</text>
<text text-anchor="start" x="142.5" y="-382.5" font-family="Helvetica,sans-Serif" font-size="10.00">+ get_value()</text>
<text text-anchor="start" x="142.5" y="-371.5" font-family="Helvetica,sans-Serif" font-size="10.00">+ notify()</text>
<text text-anchor="start" x="142.5" y="-360.5" font-family="Helvetica,sans-Serif" font-size="10.00">+ add_observer()</text>
<text text-anchor="start" x="142.5" y="-349.5" font-family="Helvetica,sans-Serif" font-size="10.00">+ remove_observer()</text>
</g>
<!-- Node4 -->
<g id="node4" class="node"><title>Node4</title>
<g id="a_node4"><a xlink:href="classbuilder__form.html" target="_top" xlink:title="This form build up a form by creating fields. ">
<polygon fill="white" stroke="black" points="0,-182.5 0,-261.5 83,-261.5 83,-182.5 0,-182.5"/>
<text text-anchor="middle" x="41.5" y="-249.5" font-family="Helvetica,sans-Serif" font-size="10.00">builder_form</text>
<polyline fill="none" stroke="black" points="0,-242.5 83,-242.5 "/>
<text text-anchor="middle" x="41.5" y="-230.5" font-family="Helvetica,sans-Serif" font-size="10.00"> </text>
<polyline fill="none" stroke="black" points="0,-223.5 83,-223.5 "/>
<text text-anchor="start" x="8" y="-211.5" font-family="Helvetica,sans-Serif" font-size="10.00">+ __construct()</text>
<text text-anchor="start" x="8" y="-200.5" font-family="Helvetica,sans-Serif" font-size="10.00">+ make_field()</text>
<text text-anchor="start" x="8" y="-189.5" font-family="Helvetica,sans-Serif" font-size="10.00">+ form()</text>
</a>
</g>
</g>
<!-- Node1&#45;&gt;Node4 -->
<g id="edge3" class="edge"><title>Node1&#45;&gt;Node4</title>
<path fill="none" stroke="midnightblue" d="M129.302,-378.621C106.16,-337.604 80.8387,-292.724 63.361,-261.747"/>
<polygon fill="none" stroke="midnightblue" points="126.394,-380.591 134.357,-387.58 132.491,-377.151 126.394,-380.591"/>
</g>
<!-- Node5 -->
<g id="node5" class="node"><title>Node5</title>
<g id="a_node5"><a xlink:href="classcrud__form.html" target="_top" xlink:title="{crud_form\n||+ do_form()\l}">
<polygon fill="white" stroke="black" points="101.5,-193.5 101.5,-250.5 167.5,-250.5 167.5,-193.5 101.5,-193.5"/>
<text text-anchor="middle" x="134.5" y="-238.5" font-family="Helvetica,sans-Serif" font-size="10.00">crud_form</text>
<polyline fill="none" stroke="black" points="101.5,-231.5 167.5,-231.5 "/>
<text text-anchor="middle" x="134.5" y="-219.5" font-family="Helvetica,sans-Serif" font-size="10.00"> </text>
<polyline fill="none" stroke="black" points="101.5,-212.5 167.5,-212.5 "/>
<text text-anchor="start" x="109.5" y="-200.5" font-family="Helvetica,sans-Serif" font-size="10.00">+ do_form()</text>
</a>
</g>
</g>
<!-- Node1&#45;&gt;Node5 -->
<g id="edge4" class="edge"><title>Node1&#45;&gt;Node5</title>
<path fill="none" stroke="midnightblue" d="M156.615,-332.297C150.302,-301.098 144.302,-271.443 140.148,-250.916"/>
<polygon fill="none" stroke="midnightblue" points="153.259,-333.364 158.673,-342.471 160.12,-331.976 153.259,-333.364"/>
</g>
<!-- Node7 -->
<g id="node7" class="node"><title>Node7</title>
<g id="a_node7"><a xlink:href="classdatabase__form.html" target="_top" xlink:title="This class allows the both the structure and the data for this form to be written out to a database...">
<polygon fill="white" stroke="black" points="185.5,-138.5 185.5,-305.5 291.5,-305.5 291.5,-138.5 185.5,-138.5"/>
<text text-anchor="middle" x="238.5" y="-293.5" font-family="Helvetica,sans-Serif" font-size="10.00">database_form</text>
<polyline fill="none" stroke="black" points="185.5,-286.5 291.5,-286.5 "/>
<text text-anchor="middle" x="238.5" y="-274.5" font-family="Helvetica,sans-Serif" font-size="10.00"> </text>
<polyline fill="none" stroke="black" points="185.5,-267.5 291.5,-267.5 "/>
<text text-anchor="start" x="193.5" y="-255.5" font-family="Helvetica,sans-Serif" font-size="10.00">+ __construct()</text>
<text text-anchor="start" x="193.5" y="-244.5" font-family="Helvetica,sans-Serif" font-size="10.00">+ create_form()</text>
<text text-anchor="start" x="193.5" y="-233.5" font-family="Helvetica,sans-Serif" font-size="10.00">+ read_form()</text>
<text text-anchor="start" x="193.5" y="-222.5" font-family="Helvetica,sans-Serif" font-size="10.00">+ update_form()</text>
<text text-anchor="start" x="193.5" y="-211.5" font-family="Helvetica,sans-Serif" font-size="10.00">+ delete_form()</text>
<text text-anchor="start" x="193.5" y="-200.5" font-family="Helvetica,sans-Serif" font-size="10.00">+ create()</text>
<text text-anchor="start" x="193.5" y="-189.5" font-family="Helvetica,sans-Serif" font-size="10.00">+ read()</text>
<text text-anchor="start" x="193.5" y="-178.5" font-family="Helvetica,sans-Serif" font-size="10.00">+ update()</text>
<text text-anchor="start" x="193.5" y="-167.5" font-family="Helvetica,sans-Serif" font-size="10.00">+ delete()</text>
<text text-anchor="start" x="193.5" y="-156.5" font-family="Helvetica,sans-Serif" font-size="10.00">+ display_structure()</text>
<text text-anchor="start" x="193.5" y="-145.5" font-family="Helvetica,sans-Serif" font-size="10.00">+ display_table()</text>
</a>
</g>
</g>
<!-- Node1&#45;&gt;Node7 -->
<g id="edge6" class="edge"><title>Node1&#45;&gt;Node7</title>
<path fill="none" stroke="midnightblue" d="M216.34,-332.519C218.188,-323.386 220.01,-314.384 221.766,-305.703"/>
<polygon fill="none" stroke="midnightblue" points="212.88,-331.976 214.327,-342.471 219.741,-333.364 212.88,-331.976"/>
</g>
<!-- Node8 -->
<g id="node8" class="node"><title>Node8</title>
<g id="a_node8"><a xlink:href="classfile__form.html" target="_top" xlink:title="This class represents an HTML form, it&#39;s values, how it is validated and allows to read/write form da...">
<polygon fill="white" stroke="black" points="309.5,-160.5 309.5,-283.5 411.5,-283.5 411.5,-160.5 309.5,-160.5"/>
<text text-anchor="middle" x="360.5" y="-271.5" font-family="Helvetica,sans-Serif" font-size="10.00">file_form</text>
<polyline fill="none" stroke="black" points="309.5,-264.5 411.5,-264.5 "/>
<text text-anchor="middle" x="360.5" y="-252.5" font-family="Helvetica,sans-Serif" font-size="10.00"> </text>
<polyline fill="none" stroke="black" points="309.5,-245.5 411.5,-245.5 "/>
<text text-anchor="start" x="317.5" y="-233.5" font-family="Helvetica,sans-Serif" font-size="10.00">+ serialize_data()</text>
<text text-anchor="start" x="317.5" y="-222.5" font-family="Helvetica,sans-Serif" font-size="10.00">+ deserialize_data()</text>
<text text-anchor="start" x="317.5" y="-211.5" font-family="Helvetica,sans-Serif" font-size="10.00">+ save()</text>
<text text-anchor="start" x="317.5" y="-200.5" font-family="Helvetica,sans-Serif" font-size="10.00">+ create()</text>
<text text-anchor="start" x="317.5" y="-189.5" font-family="Helvetica,sans-Serif" font-size="10.00">+ read()</text>
<text text-anchor="start" x="317.5" y="-178.5" font-family="Helvetica,sans-Serif" font-size="10.00">+ update()</text>
<text text-anchor="start" x="317.5" y="-167.5" font-family="Helvetica,sans-Serif" font-size="10.00">+ delete()</text>
</a>
</g>
</g>
<!-- Node1&#45;&gt;Node8 -->
<g id="edge7" class="edge"><title>Node1&#45;&gt;Node8</title>
<path fill="none" stroke="midnightblue" d="M244.532,-394.285C269.057,-358.063 297.048,-316.72 319.385,-283.727"/>
<polygon fill="none" stroke="midnightblue" points="241.414,-392.649 238.706,-402.892 247.21,-396.573 241.414,-392.649"/>
</g>
<!-- Node2 -->
<g id="node2" class="node"><title>Node2</title>
<g id="a_node2"><a xlink:href="interfacefield.html" target="_top" xlink:title="{field\n||+ values()\l+ form()\l+ validate()\l+ sanitize()\l+ display()\l+ display_text()\l}">
<polygon fill="white" stroke="black" points="88.5,-656.5 88.5,-768.5 172.5,-768.5 172.5,-656.5 88.5,-656.5"/>
<text text-anchor="middle" x="130.5" y="-756.5" font-family="Helvetica,sans-Serif" font-size="10.00">field</text>
<polyline fill="none" stroke="black" points="88.5,-749.5 172.5,-749.5 "/>
<text text-anchor="middle" x="130.5" y="-737.5" font-family="Helvetica,sans-Serif" font-size="10.00"> </text>
<polyline fill="none" stroke="black" points="88.5,-730.5 172.5,-730.5 "/>
<text text-anchor="start" x="96.5" y="-718.5" font-family="Helvetica,sans-Serif" font-size="10.00">+ values()</text>
<text text-anchor="start" x="96.5" y="-707.5" font-family="Helvetica,sans-Serif" font-size="10.00">+ form()</text>
<text text-anchor="start" x="96.5" y="-696.5" font-family="Helvetica,sans-Serif" font-size="10.00">+ validate()</text>
<text text-anchor="start" x="96.5" y="-685.5" font-family="Helvetica,sans-Serif" font-size="10.00">+ sanitize()</text>
<text text-anchor="start" x="96.5" y="-674.5" font-family="Helvetica,sans-Serif" font-size="10.00">+ display()</text>
<text text-anchor="start" x="96.5" y="-663.5" font-family="Helvetica,sans-Serif" font-size="10.00">+ display_text()</text>
</a>
</g>
</g>
<!-- Node2&#45;&gt;Node1 -->
<g id="edge1" class="edge"><title>Node2&#45;&gt;Node1</title>
<path fill="none" stroke="midnightblue" d="M146.363,-646.488C148.436,-637.994 150.618,-629.05 152.851,-619.901"/>
<polygon fill="none" stroke="midnightblue" points="142.955,-645.692 143.985,-656.237 149.756,-647.352 142.955,-645.692"/>
</g>
<!-- Node3 -->
<g id="node3" class="node"><title>Node3</title>
<g id="a_node3"><a xlink:href="interfaceobservable.html" target="_top" xlink:title="Describes objects that are able to be observed by observer objects. ">
<polygon fill="white" stroke="black" points="190.5,-673 190.5,-752 294.5,-752 294.5,-673 190.5,-673"/>
<text text-anchor="middle" x="242.5" y="-740" font-family="Helvetica,sans-Serif" font-size="10.00">observable</text>
<polyline fill="none" stroke="black" points="190.5,-733 294.5,-733 "/>
<text text-anchor="middle" x="242.5" y="-721" font-family="Helvetica,sans-Serif" font-size="10.00"> </text>
<polyline fill="none" stroke="black" points="190.5,-714 294.5,-714 "/>
<text text-anchor="start" x="198.5" y="-702" font-family="Helvetica,sans-Serif" font-size="10.00">+ notify()</text>
<text text-anchor="start" x="198.5" y="-691" font-family="Helvetica,sans-Serif" font-size="10.00">+ add_observer()</text>
<text text-anchor="start" x="198.5" y="-680" font-family="Helvetica,sans-Serif" font-size="10.00">+ remove_observer()</text>
</a>
</g>
</g>
<!-- Node3&#45;&gt;Node1 -->
<g id="edge2" class="edge"><title>Node3&#45;&gt;Node1</title>
<path fill="none" stroke="midnightblue" d="M230.616,-662.797C227.446,-649.805 223.858,-635.099 220.13,-619.825"/>
<polygon fill="none" stroke="midnightblue" points="227.293,-663.943 233.064,-672.828 234.093,-662.283 227.293,-663.943"/>
</g>
<!-- Node6 -->
<g id="node6" class="node"><title>Node6</title>
<g id="a_node6"><a xlink:href="classdb__form.html" target="_top" xlink:title="Represents an HTML form, and saves form data in $db table named by the name attribue of this object...">
<polygon fill="white" stroke="black" points="96,-0.5 96,-101.5 173,-101.5 173,-0.5 96,-0.5"/>
<text text-anchor="middle" x="134.5" y="-89.5" font-family="Helvetica,sans-Serif" font-size="10.00">db_form</text>
<polyline fill="none" stroke="black" points="96,-82.5 173,-82.5 "/>
<text text-anchor="middle" x="134.5" y="-70.5" font-family="Helvetica,sans-Serif" font-size="10.00"> </text>
<polyline fill="none" stroke="black" points="96,-63.5 173,-63.5 "/>
<text text-anchor="start" x="104" y="-51.5" font-family="Helvetica,sans-Serif" font-size="10.00">+ create()</text>
<text text-anchor="start" x="104" y="-40.5" font-family="Helvetica,sans-Serif" font-size="10.00">+ read()</text>
<text text-anchor="start" x="104" y="-29.5" font-family="Helvetica,sans-Serif" font-size="10.00">+ update()</text>
<text text-anchor="start" x="104" y="-18.5" font-family="Helvetica,sans-Serif" font-size="10.00">+ delete()</text>
<text text-anchor="start" x="104" y="-7.5" font-family="Helvetica,sans-Serif" font-size="10.00">+ create_sql()</text>
</a>
</g>
</g>
<!-- Node5&#45;&gt;Node6 -->
<g id="edge5" class="edge"><title>Node5&#45;&gt;Node6</title>
<path fill="none" stroke="midnightblue" d="M134.5,-183.317C134.5,-159.257 134.5,-127.797 134.5,-101.702"/>
<polygon fill="none" stroke="midnightblue" points="131,-183.471 134.5,-193.471 138,-183.471 131,-183.471"/>
</g>
</g>
</svg>
