<?xml version="1.0" encoding="UTF-8" standalone="no"?>
<!DOCTYPE svg PUBLIC "-//W3C//DTD SVG 1.1//EN"
 "http://www.w3.org/Graphics/SVG/1.1/DTD/svg11.dtd">
<!-- Generated by graphviz version 2.38.0 (20140413.2041)
 -->
<!-- Title: input Pages: 1 -->
<svg width="1511pt" height="700pt"
 viewBox="0.00 0.00 1511.00 700.00" xmlns="http://www.w3.org/2000/svg" xmlns:xlink="http://www.w3.org/1999/xlink">
<g id="graph0" class="graph" transform="scale(1 1) rotate(0) translate(4 696)">
<title>input</title>
<polygon fill="white" stroke="none" points="-4,4 -4,-696 1507,-696 1507,4 -4,4"/>
<!-- Node1 -->
<g id="node1" class="node"><title>Node1</title>
<polygon fill="#bfbfbf" stroke="black" points="671.5,-265.5 671.5,-542.5 755.5,-542.5 755.5,-265.5 671.5,-265.5"/>
<text text-anchor="middle" x="713.5" y="-530.5" font-family="Helvetica,sans-Serif" font-size="10.00">input</text>
<polyline fill="none" stroke="black" points="671.5,-523.5 755.5,-523.5 "/>
<text text-anchor="start" x="679.5" y="-511.5" font-family="Helvetica,sans-Serif" font-size="10.00">+ $label_text</text>
<text text-anchor="start" x="679.5" y="-500.5" font-family="Helvetica,sans-Serif" font-size="10.00">+ $name</text>
<text text-anchor="start" x="679.5" y="-489.5" font-family="Helvetica,sans-Serif" font-size="10.00">+ $type</text>
<text text-anchor="start" x="679.5" y="-478.5" font-family="Helvetica,sans-Serif" font-size="10.00">+ $value</text>
<text text-anchor="start" x="679.5" y="-467.5" font-family="Helvetica,sans-Serif" font-size="10.00">+ $min</text>
<text text-anchor="start" x="679.5" y="-456.5" font-family="Helvetica,sans-Serif" font-size="10.00">+ $max</text>
<text text-anchor="start" x="679.5" y="-445.5" font-family="Helvetica,sans-Serif" font-size="10.00">+ $maxlength</text>
<text text-anchor="start" x="679.5" y="-434.5" font-family="Helvetica,sans-Serif" font-size="10.00">+ $pattern</text>
<text text-anchor="start" x="679.5" y="-423.5" font-family="Helvetica,sans-Serif" font-size="10.00">+ $required</text>
<text text-anchor="start" x="679.5" y="-412.5" font-family="Helvetica,sans-Serif" font-size="10.00">+ $placeholder</text>
<text text-anchor="start" x="679.5" y="-401.5" font-family="Helvetica,sans-Serif" font-size="10.00">+ $sanity_func</text>
<text text-anchor="start" x="679.5" y="-390.5" font-family="Helvetica,sans-Serif" font-size="10.00">+ $valid_func</text>
<text text-anchor="start" x="679.5" y="-379.5" font-family="Helvetica,sans-Serif" font-size="10.00">+ $attributes</text>
<polyline fill="none" stroke="black" points="671.5,-372.5 755.5,-372.5 "/>
<text text-anchor="start" x="679.5" y="-360.5" font-family="Helvetica,sans-Serif" font-size="10.00">+ __construct()</text>
<text text-anchor="start" x="679.5" y="-349.5" font-family="Helvetica,sans-Serif" font-size="10.00">+ form()</text>
<text text-anchor="start" x="679.5" y="-338.5" font-family="Helvetica,sans-Serif" font-size="10.00">+ display()</text>
<text text-anchor="start" x="679.5" y="-327.5" font-family="Helvetica,sans-Serif" font-size="10.00">+ display_text()</text>
<text text-anchor="start" x="679.5" y="-316.5" font-family="Helvetica,sans-Serif" font-size="10.00">+ sanitize()</text>
<text text-anchor="start" x="679.5" y="-305.5" font-family="Helvetica,sans-Serif" font-size="10.00">+ validate()</text>
<text text-anchor="start" x="679.5" y="-294.5" font-family="Helvetica,sans-Serif" font-size="10.00">+ get_value()</text>
<text text-anchor="start" x="679.5" y="-283.5" font-family="Helvetica,sans-Serif" font-size="10.00">+ set_value()</text>
<text text-anchor="start" x="679.5" y="-272.5" font-family="Helvetica,sans-Serif" font-size="10.00">+ values()</text>
</g>
<!-- Node3 -->
<g id="node3" class="node"><title>Node3</title>
<g id="a_node3"><a xlink:href="classcolor__input.html" target="_top" xlink:title="This convience class creates a color input with validation and sanitization. ">
<polygon fill="white" stroke="black" points="0,-138.5 0,-195.5 83,-195.5 83,-138.5 0,-138.5"/>
<text text-anchor="middle" x="41.5" y="-183.5" font-family="Helvetica,sans-Serif" font-size="10.00">color_input</text>
<polyline fill="none" stroke="black" points="0,-176.5 83,-176.5 "/>
<text text-anchor="middle" x="41.5" y="-164.5" font-family="Helvetica,sans-Serif" font-size="10.00"> </text>
<polyline fill="none" stroke="black" points="0,-157.5 83,-157.5 "/>
<text text-anchor="start" x="8" y="-145.5" font-family="Helvetica,sans-Serif" font-size="10.00">+ __construct()</text>
</a>
</g>
</g>
<!-- Node1&#45;&gt;Node3 -->
<g id="edge2" class="edge"><title>Node1&#45;&gt;Node3</title>
<path fill="none" stroke="midnightblue" d="M661.339,-398.996C548.663,-388.21 277.688,-350.578 91.5,-229 78.4295,-220.465 67.0847,-207.435 58.5207,-195.606"/>
<polygon fill="none" stroke="midnightblue" points="661.141,-402.493 671.422,-399.93 661.787,-395.522 661.141,-402.493"/>
</g>
<!-- Node4 -->
<g id="node4" class="node"><title>Node4</title>
<g id="a_node4"><a xlink:href="classdatalist__input.html" target="_top" xlink:title="Adaptor to input class, adds a datalist. ">
<polygon fill="white" stroke="black" points="101,-105.5 101,-228.5 184,-228.5 184,-105.5 101,-105.5"/>
<text text-anchor="middle" x="142.5" y="-216.5" font-family="Helvetica,sans-Serif" font-size="10.00">datalist_input</text>
<polyline fill="none" stroke="black" points="101,-209.5 184,-209.5 "/>
<text text-anchor="middle" x="142.5" y="-197.5" font-family="Helvetica,sans-Serif" font-size="10.00"> </text>
<polyline fill="none" stroke="black" points="101,-190.5 184,-190.5 "/>
<text text-anchor="start" x="109" y="-178.5" font-family="Helvetica,sans-Serif" font-size="10.00">+ form()</text>
<text text-anchor="start" x="109" y="-167.5" font-family="Helvetica,sans-Serif" font-size="10.00">+ __construct()</text>
<text text-anchor="start" x="109" y="-156.5" font-family="Helvetica,sans-Serif" font-size="10.00">+ display()</text>
<text text-anchor="start" x="109" y="-145.5" font-family="Helvetica,sans-Serif" font-size="10.00">+ sanitize()</text>
<text text-anchor="start" x="109" y="-134.5" font-family="Helvetica,sans-Serif" font-size="10.00">+ validate()</text>
<text text-anchor="start" x="109" y="-123.5" font-family="Helvetica,sans-Serif" font-size="10.00">+ get_value()</text>
<text text-anchor="start" x="109" y="-112.5" font-family="Helvetica,sans-Serif" font-size="10.00">+ set_value()</text>
</a>
</g>
</g>
<!-- Node1&#45;&gt;Node4 -->
<g id="edge3" class="edge"><title>Node1&#45;&gt;Node4</title>
<path fill="none" stroke="midnightblue" d="M661.489,-396.285C561.092,-380.71 337.434,-335.048 183.5,-229 183.274,-228.845 183.049,-228.688 182.825,-228.53"/>
<polygon fill="none" stroke="midnightblue" points="660.978,-399.747 671.389,-397.784 662.026,-392.826 660.978,-399.747"/>
</g>
<!-- Node1&#45;&gt;Node4 -->
<g id="edge4" class="edge"><title>Node1&#45;&gt;Node4</title>
<path fill="none" stroke="midnightblue" d="M661.463,-394.576C563.845,-377.509 350.159,-331.414 201.5,-229 195.298,-224.727 189.453,-219.475 184.009,-213.861"/>
<polygon fill="none" stroke="midnightblue" points="660.935,-398.037 671.383,-396.281 662.12,-391.138 660.935,-398.037"/>
</g>
<!-- Node5 -->
<g id="node5" class="node"><title>Node5</title>
<g id="a_node5"><a xlink:href="classdate__input.html" target="_top" xlink:title="This convience class creates a date input. ">
<polygon fill="white" stroke="black" points="202,-138.5 202,-195.5 285,-195.5 285,-138.5 202,-138.5"/>
<text text-anchor="middle" x="243.5" y="-183.5" font-family="Helvetica,sans-Serif" font-size="10.00">date_input</text>
<polyline fill="none" stroke="black" points="202,-176.5 285,-176.5 "/>
<text text-anchor="middle" x="243.5" y="-164.5" font-family="Helvetica,sans-Serif" font-size="10.00"> </text>
<polyline fill="none" stroke="black" points="202,-157.5 285,-157.5 "/>
<text text-anchor="start" x="210" y="-145.5" font-family="Helvetica,sans-Serif" font-size="10.00">+ __construct()</text>
</a>
</g>
</g>
<!-- Node1&#45;&gt;Node5 -->
<g id="edge5" class="edge"><title>Node1&#45;&gt;Node5</title>
<path fill="none" stroke="midnightblue" d="M661.531,-390.345C577.84,-368.126 410.738,-316.01 293.5,-229 281.185,-219.86 270.075,-207.042 261.473,-195.513"/>
<polygon fill="none" stroke="midnightblue" points="660.755,-393.76 671.315,-392.907 662.528,-386.988 660.755,-393.76"/>
</g>
<!-- Node6 -->
<g id="node6" class="node"><title>Node6</title>
<g id="a_node6"><a xlink:href="classemail__input.html" target="_top" xlink:title="{email_input\n||+ __construct()\l}">
<polygon fill="white" stroke="black" points="303,-138.5 303,-195.5 386,-195.5 386,-138.5 303,-138.5"/>
<text text-anchor="middle" x="344.5" y="-183.5" font-family="Helvetica,sans-Serif" font-size="10.00">email_input</text>
<polyline fill="none" stroke="black" points="303,-176.5 386,-176.5 "/>
<text text-anchor="middle" x="344.5" y="-164.5" font-family="Helvetica,sans-Serif" font-size="10.00"> </text>
<polyline fill="none" stroke="black" points="303,-157.5 386,-157.5 "/>
<text text-anchor="start" x="311" y="-145.5" font-family="Helvetica,sans-Serif" font-size="10.00">+ __construct()</text>
</a>
</g>
</g>
<!-- Node1&#45;&gt;Node6 -->
<g id="edge6" class="edge"><title>Node1&#45;&gt;Node6</title>
<path fill="none" stroke="midnightblue" d="M661.963,-382.01C595.909,-353.566 479.865,-298.284 395.5,-229 383.872,-219.451 372.9,-206.975 364.134,-195.795"/>
<polygon fill="none" stroke="midnightblue" points="660.765,-385.304 671.336,-386.01 663.512,-378.866 660.765,-385.304"/>
</g>
<!-- Node7 -->
<g id="node7" class="node"><title>Node7</title>
<g id="a_node7"><a xlink:href="classhidden__input.html" target="_top" xlink:title="The class hidden_input describes a form element, it&#39;s attributes and how it is validated and sanitize...">
<polygon fill="white" stroke="black" points="404.5,-127.5 404.5,-206.5 490.5,-206.5 490.5,-127.5 404.5,-127.5"/>
<text text-anchor="middle" x="447.5" y="-194.5" font-family="Helvetica,sans-Serif" font-size="10.00">hidden_input</text>
<polyline fill="none" stroke="black" points="404.5,-187.5 490.5,-187.5 "/>
<text text-anchor="middle" x="447.5" y="-175.5" font-family="Helvetica,sans-Serif" font-size="10.00"> </text>
<polyline fill="none" stroke="black" points="404.5,-168.5 490.5,-168.5 "/>
<text text-anchor="start" x="412.5" y="-156.5" font-family="Helvetica,sans-Serif" font-size="10.00">+ hidden_input()</text>
<text text-anchor="start" x="412.5" y="-145.5" font-family="Helvetica,sans-Serif" font-size="10.00">+ form()</text>
<text text-anchor="start" x="412.5" y="-134.5" font-family="Helvetica,sans-Serif" font-size="10.00">+ display()</text>
</a>
</g>
</g>
<!-- Node1&#45;&gt;Node7 -->
<g id="edge7" class="edge"><title>Node1&#45;&gt;Node7</title>
<path fill="none" stroke="midnightblue" d="M663.292,-366.325C618.496,-332.657 552.057,-280.349 499.5,-229 492.433,-222.095 485.286,-214.328 478.647,-206.709"/>
<polygon fill="none" stroke="midnightblue" points="661.293,-369.2 671.396,-372.39 665.487,-363.596 661.293,-369.2"/>
</g>
<!-- Node9 -->
<g id="node9" class="node"><title>Node9</title>
<g id="a_node9"><a xlink:href="classinput__group.html" target="_top" xlink:title="Defines a group of related inputs like raido buttons or checkboxes that have the same name...">
<polygon fill="white" stroke="black" points="508.5,-105.5 508.5,-228.5 592.5,-228.5 592.5,-105.5 508.5,-105.5"/>
<text text-anchor="middle" x="550.5" y="-216.5" font-family="Helvetica,sans-Serif" font-size="10.00">input_group</text>
<polyline fill="none" stroke="black" points="508.5,-209.5 592.5,-209.5 "/>
<text text-anchor="start" x="516.5" y="-197.5" font-family="Helvetica,sans-Serif" font-size="10.00">+ $value_list</text>
<polyline fill="none" stroke="black" points="508.5,-190.5 592.5,-190.5 "/>
<text text-anchor="start" x="516.5" y="-178.5" font-family="Helvetica,sans-Serif" font-size="10.00">+ input_group()</text>
<text text-anchor="start" x="516.5" y="-167.5" font-family="Helvetica,sans-Serif" font-size="10.00">+ form()</text>
<text text-anchor="start" x="516.5" y="-156.5" font-family="Helvetica,sans-Serif" font-size="10.00">+ values()</text>
<text text-anchor="start" x="516.5" y="-145.5" font-family="Helvetica,sans-Serif" font-size="10.00">+ display()</text>
<text text-anchor="start" x="516.5" y="-134.5" font-family="Helvetica,sans-Serif" font-size="10.00">+ display_text()</text>
<text text-anchor="start" x="516.5" y="-123.5" font-family="Helvetica,sans-Serif" font-size="10.00">+ sanitize()</text>
<text text-anchor="start" x="516.5" y="-112.5" font-family="Helvetica,sans-Serif" font-size="10.00">+ validate()</text>
</a>
</g>
</g>
<!-- Node1&#45;&gt;Node9 -->
<g id="edge9" class="edge"><title>Node1&#45;&gt;Node9</title>
<path fill="none" stroke="midnightblue" d="M665.524,-333.832C642.365,-300.444 614.833,-260.75 592.512,-228.569"/>
<polygon fill="none" stroke="midnightblue" points="662.736,-335.954 671.311,-342.176 668.488,-331.964 662.736,-335.954"/>
</g>
<!-- Node10 -->
<g id="node10" class="node"><title>Node10</title>
<g id="a_node10"><a xlink:href="classmatrix__input.html" target="_top" xlink:title="This class represents a matrix_input. ">
<polygon fill="white" stroke="black" points="610.5,-116.5 610.5,-217.5 708.5,-217.5 708.5,-116.5 610.5,-116.5"/>
<text text-anchor="middle" x="659.5" y="-205.5" font-family="Helvetica,sans-Serif" font-size="10.00">matrix_input</text>
<polyline fill="none" stroke="black" points="610.5,-198.5 708.5,-198.5 "/>
<text text-anchor="start" x="618.5" y="-186.5" font-family="Helvetica,sans-Serif" font-size="10.00">+ $table_attributes</text>
<text text-anchor="start" x="618.5" y="-175.5" font-family="Helvetica,sans-Serif" font-size="10.00">+ $before_table</text>
<text text-anchor="start" x="618.5" y="-164.5" font-family="Helvetica,sans-Serif" font-size="10.00">+ $after_table</text>
<polyline fill="none" stroke="black" points="610.5,-157.5 708.5,-157.5 "/>
<text text-anchor="start" x="618.5" y="-145.5" font-family="Helvetica,sans-Serif" font-size="10.00">+ __construct()</text>
<text text-anchor="start" x="618.5" y="-134.5" font-family="Helvetica,sans-Serif" font-size="10.00">+ form()</text>
<text text-anchor="start" x="618.5" y="-123.5" font-family="Helvetica,sans-Serif" font-size="10.00">+ values()</text>
</a>
</g>
</g>
<!-- Node1&#45;&gt;Node10 -->
<g id="edge10" class="edge"><title>Node1&#45;&gt;Node10</title>
<path fill="none" stroke="midnightblue" d="M679.592,-255.437C676.514,-242.04 673.564,-229.203 670.917,-217.687"/>
<polygon fill="none" stroke="midnightblue" points="676.203,-256.318 681.854,-265.28 683.025,-254.75 676.203,-256.318"/>
</g>
<!-- Node11 -->
<g id="node11" class="node"><title>Node11</title>
<g id="a_node11"><a xlink:href="classnumber__input.html" target="_top" xlink:title="This convience class allows easy creation of an input with type=&quot;number&quot;. ">
<polygon fill="white" stroke="black" points="727,-127.5 727,-206.5 810,-206.5 810,-127.5 727,-127.5"/>
<text text-anchor="middle" x="768.5" y="-194.5" font-family="Helvetica,sans-Serif" font-size="10.00">number_input</text>
<polyline fill="none" stroke="black" points="727,-187.5 810,-187.5 "/>
<text text-anchor="middle" x="768.5" y="-175.5" font-family="Helvetica,sans-Serif" font-size="10.00"> </text>
<polyline fill="none" stroke="black" points="727,-168.5 810,-168.5 "/>
<text text-anchor="start" x="735" y="-156.5" font-family="Helvetica,sans-Serif" font-size="10.00">+ __construct()</text>
<text text-anchor="start" x="735" y="-145.5" font-family="Helvetica,sans-Serif" font-size="10.00">+ get_value()</text>
<text text-anchor="start" x="735" y="-134.5" font-family="Helvetica,sans-Serif" font-size="10.00">+ set_value()</text>
</a>
</g>
</g>
<!-- Node1&#45;&gt;Node11 -->
<g id="edge11" class="edge"><title>Node1&#45;&gt;Node11</title>
<path fill="none" stroke="midnightblue" d="M748.066,-255.31C752.228,-237.528 756.158,-220.735 759.439,-206.716"/>
<polygon fill="none" stroke="midnightblue" points="744.603,-254.745 745.732,-265.28 751.419,-256.341 744.603,-254.745"/>
</g>
<!-- Node12 -->
<g id="node12" class="node"><title>Node12</title>
<g id="a_node12"><a xlink:href="classpassword__input.html" target="_top" xlink:title="{password_input\n||+ __construct()\l}">
<polygon fill="white" stroke="black" points="828.5,-138.5 828.5,-195.5 912.5,-195.5 912.5,-138.5 828.5,-138.5"/>
<text text-anchor="middle" x="870.5" y="-183.5" font-family="Helvetica,sans-Serif" font-size="10.00">password_input</text>
<polyline fill="none" stroke="black" points="828.5,-176.5 912.5,-176.5 "/>
<text text-anchor="middle" x="870.5" y="-164.5" font-family="Helvetica,sans-Serif" font-size="10.00"> </text>
<polyline fill="none" stroke="black" points="828.5,-157.5 912.5,-157.5 "/>
<text text-anchor="start" x="836.5" y="-145.5" font-family="Helvetica,sans-Serif" font-size="10.00">+ __construct()</text>
</a>
</g>
</g>
<!-- Node1&#45;&gt;Node12 -->
<g id="edge12" class="edge"><title>Node1&#45;&gt;Node12</title>
<path fill="none" stroke="midnightblue" d="M761.195,-331.609C791.795,-285.807 829.817,-228.894 852.002,-195.688"/>
<polygon fill="none" stroke="midnightblue" points="758.218,-329.765 755.573,-340.024 764.039,-333.654 758.218,-329.765"/>
</g>
<!-- Node13 -->
<g id="node13" class="node"><title>Node13</title>
<g id="a_node13"><a xlink:href="classrange__input.html" target="_top" xlink:title="Represents a slider element, an input with type=&quot;range&quot;. ">
<polygon fill="white" stroke="black" points="931,-133 931,-201 1014,-201 1014,-133 931,-133"/>
<text text-anchor="middle" x="972.5" y="-189" font-family="Helvetica,sans-Serif" font-size="10.00">range_input</text>
<polyline fill="none" stroke="black" points="931,-182 1014,-182 "/>
<text text-anchor="start" x="939" y="-170" font-family="Helvetica,sans-Serif" font-size="10.00">+ $step</text>
<polyline fill="none" stroke="black" points="931,-163 1014,-163 "/>
<text text-anchor="start" x="939" y="-151" font-family="Helvetica,sans-Serif" font-size="10.00">+ __construct()</text>
<text text-anchor="start" x="939" y="-140" font-family="Helvetica,sans-Serif" font-size="10.00">+ form()</text>
</a>
</g>
</g>
<!-- Node1&#45;&gt;Node13 -->
<g id="edge13" class="edge"><title>Node1&#45;&gt;Node13</title>
<path fill="none" stroke="midnightblue" d="M763.782,-365.054C807.297,-331.272 870.998,-279.516 921.5,-229 930.088,-220.409 938.799,-210.517 946.532,-201.232"/>
<polygon fill="none" stroke="midnightblue" points="761.4,-362.471 755.628,-371.356 765.681,-368.009 761.4,-362.471"/>
</g>
<!-- Node14 -->
<g id="node14" class="node"><title>Node14</title>
<g id="a_node14"><a xlink:href="classtel__input.html" target="_top" xlink:title="This represents a telephone number input, has regex sanitization and validation to ensure valid forma...">
<polygon fill="white" stroke="black" points="1032,-138.5 1032,-195.5 1115,-195.5 1115,-138.5 1032,-138.5"/>
<text text-anchor="middle" x="1073.5" y="-183.5" font-family="Helvetica,sans-Serif" font-size="10.00">tel_input</text>
<polyline fill="none" stroke="black" points="1032,-176.5 1115,-176.5 "/>
<text text-anchor="middle" x="1073.5" y="-164.5" font-family="Helvetica,sans-Serif" font-size="10.00"> </text>
<polyline fill="none" stroke="black" points="1032,-157.5 1115,-157.5 "/>
<text text-anchor="start" x="1040" y="-145.5" font-family="Helvetica,sans-Serif" font-size="10.00">+ __construct()</text>
</a>
</g>
</g>
<!-- Node1&#45;&gt;Node14 -->
<g id="edge14" class="edge"><title>Node1&#45;&gt;Node14</title>
<path fill="none" stroke="midnightblue" d="M764.863,-381.1C829.218,-352.155 940.945,-296.812 1022.5,-229 1034.07,-219.38 1045.03,-206.894 1053.81,-195.725"/>
<polygon fill="none" stroke="midnightblue" points="763.428,-377.908 755.721,-385.178 766.279,-384.301 763.428,-377.908"/>
</g>
<!-- Node15 -->
<g id="node15" class="node"><title>Node15</title>
<g id="a_node15"><a xlink:href="classtext__input.html" target="_top" xlink:title="convience function for creating text inputs ">
<polygon fill="white" stroke="black" points="1133,-138.5 1133,-195.5 1216,-195.5 1216,-138.5 1133,-138.5"/>
<text text-anchor="middle" x="1174.5" y="-183.5" font-family="Helvetica,sans-Serif" font-size="10.00">text_input</text>
<polyline fill="none" stroke="black" points="1133,-176.5 1216,-176.5 "/>
<text text-anchor="middle" x="1174.5" y="-164.5" font-family="Helvetica,sans-Serif" font-size="10.00"> </text>
<polyline fill="none" stroke="black" points="1133,-157.5 1216,-157.5 "/>
<text text-anchor="start" x="1141" y="-145.5" font-family="Helvetica,sans-Serif" font-size="10.00">+ __construct()</text>
</a>
</g>
</g>
<!-- Node1&#45;&gt;Node15 -->
<g id="edge15" class="edge"><title>Node1&#45;&gt;Node15</title>
<path fill="none" stroke="midnightblue" d="M765.332,-389.585C847.273,-366.59 1009.16,-313.762 1123.5,-229 1135.81,-219.875 1147.03,-207.195 1155.8,-195.758"/>
<polygon fill="none" stroke="midnightblue" points="764.208,-386.264 755.505,-392.306 766.076,-393.01 764.208,-386.264"/>
</g>
<!-- Node16 -->
<g id="node16" class="node"><title>Node16</title>
<g id="a_node16"><a xlink:href="classtextarea.html" target="_top" xlink:title="Descibes a textarea, it&#39;s sanitzation and validation. ">
<polygon fill="white" stroke="black" points="1234,-133 1234,-201 1301,-201 1301,-133 1234,-133"/>
<text text-anchor="middle" x="1267.5" y="-189" font-family="Helvetica,sans-Serif" font-size="10.00">textarea</text>
<polyline fill="none" stroke="black" points="1234,-182 1301,-182 "/>
<text text-anchor="middle" x="1267.5" y="-170" font-family="Helvetica,sans-Serif" font-size="10.00"> </text>
<polyline fill="none" stroke="black" points="1234,-163 1301,-163 "/>
<text text-anchor="start" x="1242" y="-151" font-family="Helvetica,sans-Serif" font-size="10.00">+ textarea()</text>
<text text-anchor="start" x="1242" y="-140" font-family="Helvetica,sans-Serif" font-size="10.00">+ form()</text>
</a>
</g>
</g>
<!-- Node1&#45;&gt;Node16 -->
<g id="edge16" class="edge"><title>Node1&#45;&gt;Node16</title>
<path fill="none" stroke="midnightblue" d="M765.869,-396.307C864.637,-381.452 1081.42,-338.006 1225.5,-229 1235.24,-221.63 1243.54,-211.33 1250.12,-201.289"/>
<polygon fill="none" stroke="midnightblue" points="765.221,-392.864 755.835,-397.778 766.237,-399.79 765.221,-392.864"/>
</g>
<!-- Node18 -->
<g id="node18" class="node"><title>Node18</title>
<g id="a_node18"><a xlink:href="classtime__input.html" target="_top" xlink:title="This convience class creates a date input. ">
<polygon fill="white" stroke="black" points="1319,-138.5 1319,-195.5 1402,-195.5 1402,-138.5 1319,-138.5"/>
<text text-anchor="middle" x="1360.5" y="-183.5" font-family="Helvetica,sans-Serif" font-size="10.00">time_input</text>
<polyline fill="none" stroke="black" points="1319,-176.5 1402,-176.5 "/>
<text text-anchor="middle" x="1360.5" y="-164.5" font-family="Helvetica,sans-Serif" font-size="10.00"> </text>
<polyline fill="none" stroke="black" points="1319,-157.5 1402,-157.5 "/>
<text text-anchor="start" x="1327" y="-145.5" font-family="Helvetica,sans-Serif" font-size="10.00">+ __construct()</text>
</a>
</g>
</g>
<!-- Node1&#45;&gt;Node18 -->
<g id="edge18" class="edge"><title>Node1&#45;&gt;Node18</title>
<path fill="none" stroke="midnightblue" d="M765.908,-398.197C875.445,-386.04 1133.15,-346.183 1310.5,-229 1323.52,-220.394 1334.86,-207.357 1343.44,-195.541"/>
<polygon fill="none" stroke="midnightblue" points="765.346,-394.738 755.778,-399.289 766.096,-401.697 765.346,-394.738"/>
</g>
<!-- Node19 -->
<g id="node19" class="node"><title>Node19</title>
<g id="a_node19"><a xlink:href="classzip__input.html" target="_top" xlink:title="This convience class creates a text input with validation for long or short form US zip codes...">
<polygon fill="white" stroke="black" points="1420,-138.5 1420,-195.5 1503,-195.5 1503,-138.5 1420,-138.5"/>
<text text-anchor="middle" x="1461.5" y="-183.5" font-family="Helvetica,sans-Serif" font-size="10.00">zip_input</text>
<polyline fill="none" stroke="black" points="1420,-176.5 1503,-176.5 "/>
<text text-anchor="middle" x="1461.5" y="-164.5" font-family="Helvetica,sans-Serif" font-size="10.00"> </text>
<polyline fill="none" stroke="black" points="1420,-157.5 1503,-157.5 "/>
<text text-anchor="start" x="1428" y="-145.5" font-family="Helvetica,sans-Serif" font-size="10.00">+ __construct()</text>
</a>
</g>
</g>
<!-- Node1&#45;&gt;Node19 -->
<g id="edge19" class="edge"><title>Node1&#45;&gt;Node19</title>
<path fill="none" stroke="midnightblue" d="M765.798,-401.01C888.14,-394.138 1198.73,-363.659 1411.5,-229 1424.69,-220.652 1436.05,-207.642 1444.59,-195.778"/>
<polygon fill="none" stroke="midnightblue" points="765.387,-397.527 755.587,-401.553 765.759,-404.517 765.387,-397.527"/>
</g>
<!-- Node2 -->
<g id="node2" class="node"><title>Node2</title>
<g id="a_node2"><a xlink:href="interfacefield.html" target="_top" xlink:title="{field\n||+ values()\l+ form()\l+ validate()\l+ sanitize()\l+ display()\l+ display_text()\l}">
<polygon fill="white" stroke="black" points="671.5,-579.5 671.5,-691.5 755.5,-691.5 755.5,-579.5 671.5,-579.5"/>
<text text-anchor="middle" x="713.5" y="-679.5" font-family="Helvetica,sans-Serif" font-size="10.00">field</text>
<polyline fill="none" stroke="black" points="671.5,-672.5 755.5,-672.5 "/>
<text text-anchor="middle" x="713.5" y="-660.5" font-family="Helvetica,sans-Serif" font-size="10.00"> </text>
<polyline fill="none" stroke="black" points="671.5,-653.5 755.5,-653.5 "/>
<text text-anchor="start" x="679.5" y="-641.5" font-family="Helvetica,sans-Serif" font-size="10.00">+ values()</text>
<text text-anchor="start" x="679.5" y="-630.5" font-family="Helvetica,sans-Serif" font-size="10.00">+ form()</text>
<text text-anchor="start" x="679.5" y="-619.5" font-family="Helvetica,sans-Serif" font-size="10.00">+ validate()</text>
<text text-anchor="start" x="679.5" y="-608.5" font-family="Helvetica,sans-Serif" font-size="10.00">+ sanitize()</text>
<text text-anchor="start" x="679.5" y="-597.5" font-family="Helvetica,sans-Serif" font-size="10.00">+ display()</text>
<text text-anchor="start" x="679.5" y="-586.5" font-family="Helvetica,sans-Serif" font-size="10.00">+ display_text()</text>
</a>
</g>
</g>
<!-- Node2&#45;&gt;Node1 -->
<g id="edge1" class="edge"><title>Node2&#45;&gt;Node1</title>
<path fill="none" stroke="midnightblue" d="M713.5,-569.211C713.5,-560.8 713.5,-551.951 713.5,-542.901"/>
<polygon fill="none" stroke="midnightblue" points="710,-569.237 713.5,-579.237 717,-569.237 710,-569.237"/>
</g>
<!-- Node8 -->
<g id="node8" class="node"><title>Node8</title>
<g id="a_node8"><a xlink:href="classget__input.html" target="_top" xlink:title="An hidden_input that reads its value from the $_GET global array on creation. ">
<polygon fill="white" stroke="black" points="406,-6 406,-63 489,-63 489,-6 406,-6"/>
<text text-anchor="middle" x="447.5" y="-51" font-family="Helvetica,sans-Serif" font-size="10.00">get_input</text>
<polyline fill="none" stroke="black" points="406,-44 489,-44 "/>
<text text-anchor="middle" x="447.5" y="-32" font-family="Helvetica,sans-Serif" font-size="10.00"> </text>
<polyline fill="none" stroke="black" points="406,-25 489,-25 "/>
<text text-anchor="start" x="414" y="-13" font-family="Helvetica,sans-Serif" font-size="10.00">+ __construct()</text>
</a>
</g>
</g>
<!-- Node7&#45;&gt;Node8 -->
<g id="edge8" class="edge"><title>Node7&#45;&gt;Node8</title>
<path fill="none" stroke="midnightblue" d="M447.5,-117.025C447.5,-98.8232 447.5,-78.816 447.5,-63.1769"/>
<polygon fill="none" stroke="midnightblue" points="444,-117.199 447.5,-127.199 451,-117.199 444,-117.199"/>
</g>
<!-- Node17 -->
<g id="node17" class="node"><title>Node17</title>
<g id="a_node17"><a xlink:href="classtexteditor.html" target="_top" xlink:title="This is a form element wrapping the testarea with javascript to turn it into a rich text editor...">
<polygon fill="white" stroke="black" points="1231.5,-0.5 1231.5,-68.5 1303.5,-68.5 1303.5,-0.5 1231.5,-0.5"/>
<text text-anchor="middle" x="1267.5" y="-56.5" font-family="Helvetica,sans-Serif" font-size="10.00">texteditor</text>
<polyline fill="none" stroke="black" points="1231.5,-49.5 1303.5,-49.5 "/>
<text text-anchor="middle" x="1267.5" y="-37.5" font-family="Helvetica,sans-Serif" font-size="10.00"> </text>
<polyline fill="none" stroke="black" points="1231.5,-30.5 1303.5,-30.5 "/>
<text text-anchor="start" x="1239.5" y="-18.5" font-family="Helvetica,sans-Serif" font-size="10.00">+ texteditor()</text>
<text text-anchor="start" x="1239.5" y="-7.5" font-family="Helvetica,sans-Serif" font-size="10.00">+ form()</text>
</a>
</g>
</g>
<!-- Node16&#45;&gt;Node17 -->
<g id="edge17" class="edge"><title>Node16&#45;&gt;Node17</title>
<path fill="none" stroke="midnightblue" d="M1267.5,-122.699C1267.5,-105.11 1267.5,-85.1115 1267.5,-68.7076"/>
<polygon fill="none" stroke="midnightblue" points="1264,-122.732 1267.5,-132.732 1271,-122.732 1264,-122.732"/>
</g>
</g>
</svg>
