<?xml version="1.0" encoding="UTF-8" standalone="no"?>
<!DOCTYPE svg PUBLIC "-//W3C//DTD SVG 1.1//EN"
 "http://www.w3.org/Graphics/SVG/1.1/DTD/svg11.dtd">
<!-- Generated by graphviz version 2.38.0 (20140413.2041)
 -->
<!-- Title: message Pages: 1 -->
<svg width="91pt" height="226pt"
 viewBox="0.00 0.00 91.00 226.00" xmlns="http://www.w3.org/2000/svg" xmlns:xlink="http://www.w3.org/1999/xlink">
<g id="graph0" class="graph" transform="scale(1 1) rotate(0) translate(4 222)">
<title>message</title>
<polygon fill="white" stroke="none" points="-4,4 -4,-222 87,-222 87,4 -4,4"/>
<!-- Node1 -->
<g id="node1" class="node"><title>Node1</title>
<polygon fill="#bfbfbf" stroke="black" points="6,-0.5 6,-101.5 77,-101.5 77,-0.5 6,-0.5"/>
<text text-anchor="middle" x="41.5" y="-89.5" font-family="Helvetica,sans-Serif" font-size="10.00">message</text>
<polyline fill="none" stroke="black" points="6,-82.5 77,-82.5 "/>
<text text-anchor="start" x="14" y="-70.5" font-family="Helvetica,sans-Serif" font-size="10.00">+ $msg</text>
<text text-anchor="start" x="14" y="-59.5" font-family="Helvetica,sans-Serif" font-size="10.00">+ $condition</text>
<polyline fill="none" stroke="black" points="6,-52.5 77,-52.5 "/>
<text text-anchor="start" x="14" y="-40.5" font-family="Helvetica,sans-Serif" font-size="10.00">+ message()</text>
<text text-anchor="start" x="14" y="-29.5" font-family="Helvetica,sans-Serif" font-size="10.00">+ notify()</text>
<text text-anchor="start" x="14" y="-18.5" font-family="Helvetica,sans-Serif" font-size="10.00">+ values()</text>
<text text-anchor="start" x="14" y="-7.5" font-family="Helvetica,sans-Serif" font-size="10.00">+ form()</text>
</g>
<!-- Node2 -->
<g id="node2" class="node"><title>Node2</title>
<g id="a_node2"><a xlink:href="classobserver.html" target="_top" xlink:title="Impliments the observer in the observer patters. ">
<polygon fill="white" stroke="black" points="0,-138.5 0,-217.5 83,-217.5 83,-138.5 0,-138.5"/>
<text text-anchor="middle" x="41.5" y="-205.5" font-family="Helvetica,sans-Serif" font-size="10.00">observer</text>
<polyline fill="none" stroke="black" points="0,-198.5 83,-198.5 "/>
<text text-anchor="middle" x="41.5" y="-186.5" font-family="Helvetica,sans-Serif" font-size="10.00"> </text>
<polyline fill="none" stroke="black" points="0,-179.5 83,-179.5 "/>
<text text-anchor="start" x="8" y="-167.5" font-family="Helvetica,sans-Serif" font-size="10.00">+ __construct()</text>
<text text-anchor="start" x="8" y="-156.5" font-family="Helvetica,sans-Serif" font-size="10.00">+ set_func()</text>
<text text-anchor="start" x="8" y="-145.5" font-family="Helvetica,sans-Serif" font-size="10.00">+ notify()</text>
</a>
</g>
</g>
<!-- Node2&#45;&gt;Node1 -->
<g id="edge1" class="edge"><title>Node2&#45;&gt;Node1</title>
<path fill="none" stroke="midnightblue" d="M41.5,-128.406C41.5,-119.639 41.5,-110.488 41.5,-101.691"/>
<polygon fill="none" stroke="midnightblue" points="38.0001,-128.476 41.5,-138.476 45.0001,-128.476 38.0001,-128.476"/>
</g>
</g>
</svg>
