<?xml version="1.0" encoding="UTF-8" standalone="no"?>
<!DOCTYPE svg PUBLIC "-//W3C//DTD SVG 1.1//EN"
 "http://www.w3.org/Graphics/SVG/1.1/DTD/svg11.dtd">
<!-- Generated by graphviz version 2.38.0 (20140413.2041)
 -->
<!-- Title: forms Pages: 1 -->
<svg width="214pt" height="435pt"
 viewBox="0.00 0.00 214.00 435.00" xmlns="http://www.w3.org/2000/svg" xmlns:xlink="http://www.w3.org/1999/xlink">
<g id="graph0" class="graph" transform="scale(1 1) rotate(0) translate(4 431)">
<title>forms</title>
<polygon fill="white" stroke="none" points="-4,4 -4,-431 210,-431 210,4 -4,4"/>
<!-- Node1 -->
<g id="node1" class="node"><title>Node1</title>
<polygon fill="#bfbfbf" stroke="black" points="46,-0.5 46,-277.5 150,-277.5 150,-0.5 46,-0.5"/>
<text text-anchor="middle" x="98" y="-265.5" font-family="Helvetica,sans-Serif" font-size="10.00">forms</text>
<polyline fill="none" stroke="black" points="46,-258.5 150,-258.5 "/>
<text text-anchor="start" x="54" y="-246.5" font-family="Helvetica,sans-Serif" font-size="10.00">+ $name</text>
<text text-anchor="start" x="54" y="-235.5" font-family="Helvetica,sans-Serif" font-size="10.00">+ $id</text>
<text text-anchor="start" x="54" y="-224.5" font-family="Helvetica,sans-Serif" font-size="10.00">+ $pre</text>
<text text-anchor="start" x="54" y="-213.5" font-family="Helvetica,sans-Serif" font-size="10.00">+ $fields</text>
<text text-anchor="start" x="54" y="-202.5" font-family="Helvetica,sans-Serif" font-size="10.00">+ $observers</text>
<text text-anchor="start" x="54" y="-191.5" font-family="Helvetica,sans-Serif" font-size="10.00">+ $nonce</text>
<text text-anchor="start" x="54" y="-180.5" font-family="Helvetica,sans-Serif" font-size="10.00">+ $before_input</text>
<text text-anchor="start" x="54" y="-169.5" font-family="Helvetica,sans-Serif" font-size="10.00">+ $after_input</text>
<text text-anchor="start" x="54" y="-158.5" font-family="Helvetica,sans-Serif" font-size="10.00">+ $before_form</text>
<text text-anchor="start" x="54" y="-147.5" font-family="Helvetica,sans-Serif" font-size="10.00">+ $after_form</text>
<polyline fill="none" stroke="black" points="46,-140.5 150,-140.5 "/>
<text text-anchor="start" x="54" y="-128.5" font-family="Helvetica,sans-Serif" font-size="10.00">+ __construct()</text>
<text text-anchor="start" x="54" y="-117.5" font-family="Helvetica,sans-Serif" font-size="10.00">+ form()</text>
<text text-anchor="start" x="54" y="-106.5" font-family="Helvetica,sans-Serif" font-size="10.00">+ sanitize()</text>
<text text-anchor="start" x="54" y="-95.5" font-family="Helvetica,sans-Serif" font-size="10.00">+ display()</text>
<text text-anchor="start" x="54" y="-84.5" font-family="Helvetica,sans-Serif" font-size="10.00">+ display_text()</text>
<text text-anchor="start" x="54" y="-73.5" font-family="Helvetica,sans-Serif" font-size="10.00">+ validate()</text>
<text text-anchor="start" x="54" y="-62.5" font-family="Helvetica,sans-Serif" font-size="10.00">+ add_field()</text>
<text text-anchor="start" x="54" y="-51.5" font-family="Helvetica,sans-Serif" font-size="10.00">+ values()</text>
<text text-anchor="start" x="54" y="-40.5" font-family="Helvetica,sans-Serif" font-size="10.00">+ get_value()</text>
<text text-anchor="start" x="54" y="-29.5" font-family="Helvetica,sans-Serif" font-size="10.00">+ notify()</text>
<text text-anchor="start" x="54" y="-18.5" font-family="Helvetica,sans-Serif" font-size="10.00">+ add_observer()</text>
<text text-anchor="start" x="54" y="-7.5" font-family="Helvetica,sans-Serif" font-size="10.00">+ remove_observer()</text>
</g>
<!-- Node2 -->
<g id="node2" class="node"><title>Node2</title>
<g id="a_node2"><a xlink:href="interfacefield.html" target="_top" xlink:title="{field\n||+ values()\l+ form()\l+ validate()\l+ sanitize()\l+ display()\l+ display_text()\l}">
<polygon fill="white" stroke="black" points="0,-314.5 0,-426.5 84,-426.5 84,-314.5 0,-314.5"/>
<text text-anchor="middle" x="42" y="-414.5" font-family="Helvetica,sans-Serif" font-size="10.00">field</text>
<polyline fill="none" stroke="black" points="0,-407.5 84,-407.5 "/>
<text text-anchor="middle" x="42" y="-395.5" font-family="Helvetica,sans-Serif" font-size="10.00"> </text>
<polyline fill="none" stroke="black" points="0,-388.5 84,-388.5 "/>
<text text-anchor="start" x="8" y="-376.5" font-family="Helvetica,sans-Serif" font-size="10.00">+ values()</text>
<text text-anchor="start" x="8" y="-365.5" font-family="Helvetica,sans-Serif" font-size="10.00">+ form()</text>
<text text-anchor="start" x="8" y="-354.5" font-family="Helvetica,sans-Serif" font-size="10.00">+ validate()</text>
<text text-anchor="start" x="8" y="-343.5" font-family="Helvetica,sans-Serif" font-size="10.00">+ sanitize()</text>
<text text-anchor="start" x="8" y="-332.5" font-family="Helvetica,sans-Serif" font-size="10.00">+ display()</text>
<text text-anchor="start" x="8" y="-321.5" font-family="Helvetica,sans-Serif" font-size="10.00">+ display_text()</text>
</a>
</g>
</g>
<!-- Node2&#45;&gt;Node1 -->
<g id="edge1" class="edge"><title>Node2&#45;&gt;Node1</title>
<path fill="none" stroke="midnightblue" d="M57.8635,-304.488C59.936,-295.994 62.1185,-287.05 64.351,-277.901"/>
<polygon fill="none" stroke="midnightblue" points="54.455,-303.692 55.4847,-314.237 61.2555,-305.352 54.455,-303.692"/>
</g>
<!-- Node3 -->
<g id="node3" class="node"><title>Node3</title>
<g id="a_node3"><a xlink:href="interfaceobservable.html" target="_top" xlink:title="Describes objects that are able to be observed by observer objects. ">
<polygon fill="white" stroke="black" points="102,-331 102,-410 206,-410 206,-331 102,-331"/>
<text text-anchor="middle" x="154" y="-398" font-family="Helvetica,sans-Serif" font-size="10.00">observable</text>
<polyline fill="none" stroke="black" points="102,-391 206,-391 "/>
<text text-anchor="middle" x="154" y="-379" font-family="Helvetica,sans-Serif" font-size="10.00"> </text>
<polyline fill="none" stroke="black" points="102,-372 206,-372 "/>
<text text-anchor="start" x="110" y="-360" font-family="Helvetica,sans-Serif" font-size="10.00">+ notify()</text>
<text text-anchor="start" x="110" y="-349" font-family="Helvetica,sans-Serif" font-size="10.00">+ add_observer()</text>
<text text-anchor="start" x="110" y="-338" font-family="Helvetica,sans-Serif" font-size="10.00">+ remove_observer()</text>
</a>
</g>
</g>
<!-- Node3&#45;&gt;Node1 -->
<g id="edge2" class="edge"><title>Node3&#45;&gt;Node1</title>
<path fill="none" stroke="midnightblue" d="M142.116,-320.797C138.946,-307.805 135.358,-293.099 131.63,-277.825"/>
<polygon fill="none" stroke="midnightblue" points="138.793,-321.943 144.564,-330.828 145.593,-320.283 138.793,-321.943"/>
</g>
</g>
</svg>
