<?xml version="1.0" encoding="UTF-8" standalone="no"?>
<!DOCTYPE svg PUBLIC "-//W3C//DTD SVG 1.1//EN"
 "http://www.w3.org/Graphics/SVG/1.1/DTD/svg11.dtd">
<!-- Generated by graphviz version 2.38.0 (20140413.2041)
 -->
<!-- Title: file_form Pages: 1 -->
<svg width="214pt" height="595pt"
 viewBox="0.00 0.00 214.00 595.00" xmlns="http://www.w3.org/2000/svg" xmlns:xlink="http://www.w3.org/1999/xlink">
<g id="graph0" class="graph" transform="scale(1 1) rotate(0) translate(4 591)">
<title>file_form</title>
<polygon fill="white" stroke="none" points="-4,4 -4,-591 210,-591 210,4 -4,4"/>
<!-- Node1 -->
<g id="node1" class="node"><title>Node1</title>
<polygon fill="#bfbfbf" stroke="black" points="47,-0.5 47,-123.5 149,-123.5 149,-0.5 47,-0.5"/>
<text text-anchor="middle" x="98" y="-111.5" font-family="Helvetica,sans-Serif" font-size="10.00">file_form</text>
<polyline fill="none" stroke="black" points="47,-104.5 149,-104.5 "/>
<text text-anchor="middle" x="98" y="-92.5" font-family="Helvetica,sans-Serif" font-size="10.00"> </text>
<polyline fill="none" stroke="black" points="47,-85.5 149,-85.5 "/>
<text text-anchor="start" x="55" y="-73.5" font-family="Helvetica,sans-Serif" font-size="10.00">+ serialize_data()</text>
<text text-anchor="start" x="55" y="-62.5" font-family="Helvetica,sans-Serif" font-size="10.00">+ deserialize_data()</text>
<text text-anchor="start" x="55" y="-51.5" font-family="Helvetica,sans-Serif" font-size="10.00">+ save()</text>
<text text-anchor="start" x="55" y="-40.5" font-family="Helvetica,sans-Serif" font-size="10.00">+ create()</text>
<text text-anchor="start" x="55" y="-29.5" font-family="Helvetica,sans-Serif" font-size="10.00">+ read()</text>
<text text-anchor="start" x="55" y="-18.5" font-family="Helvetica,sans-Serif" font-size="10.00">+ update()</text>
<text text-anchor="start" x="55" y="-7.5" font-family="Helvetica,sans-Serif" font-size="10.00">+ delete()</text>
</g>
<!-- Node2 -->
<g id="node2" class="node"><title>Node2</title>
<g id="a_node2"><a xlink:href="classforms.html" target="_top" xlink:title="This class describes an HTML form, containing a collection of inputs, and does mass validation and sa...">
<polygon fill="white" stroke="black" points="46,-160.5 46,-437.5 150,-437.5 150,-160.5 46,-160.5"/>
<text text-anchor="middle" x="98" y="-425.5" font-family="Helvetica,sans-Serif" font-size="10.00">forms</text>
<polyline fill="none" stroke="black" points="46,-418.5 150,-418.5 "/>
<text text-anchor="start" x="54" y="-406.5" font-family="Helvetica,sans-Serif" font-size="10.00">+ $name</text>
<text text-anchor="start" x="54" y="-395.5" font-family="Helvetica,sans-Serif" font-size="10.00">+ $id</text>
<text text-anchor="start" x="54" y="-384.5" font-family="Helvetica,sans-Serif" font-size="10.00">+ $pre</text>
<text text-anchor="start" x="54" y="-373.5" font-family="Helvetica,sans-Serif" font-size="10.00">+ $fields</text>
<text text-anchor="start" x="54" y="-362.5" font-family="Helvetica,sans-Serif" font-size="10.00">+ $observers</text>
<text text-anchor="start" x="54" y="-351.5" font-family="Helvetica,sans-Serif" font-size="10.00">+ $nonce</text>
<text text-anchor="start" x="54" y="-340.5" font-family="Helvetica,sans-Serif" font-size="10.00">+ $before_input</text>
<text text-anchor="start" x="54" y="-329.5" font-family="Helvetica,sans-Serif" font-size="10.00">+ $after_input</text>
<text text-anchor="start" x="54" y="-318.5" font-family="Helvetica,sans-Serif" font-size="10.00">+ $before_form</text>
<text text-anchor="start" x="54" y="-307.5" font-family="Helvetica,sans-Serif" font-size="10.00">+ $after_form</text>
<polyline fill="none" stroke="black" points="46,-300.5 150,-300.5 "/>
<text text-anchor="start" x="54" y="-288.5" font-family="Helvetica,sans-Serif" font-size="10.00">+ __construct()</text>
<text text-anchor="start" x="54" y="-277.5" font-family="Helvetica,sans-Serif" font-size="10.00">+ form()</text>
<text text-anchor="start" x="54" y="-266.5" font-family="Helvetica,sans-Serif" font-size="10.00">+ sanitize()</text>
<text text-anchor="start" x="54" y="-255.5" font-family="Helvetica,sans-Serif" font-size="10.00">+ display()</text>
<text text-anchor="start" x="54" y="-244.5" font-family="Helvetica,sans-Serif" font-size="10.00">+ display_text()</text>
<text text-anchor="start" x="54" y="-233.5" font-family="Helvetica,sans-Serif" font-size="10.00">+ validate()</text>
<text text-anchor="start" x="54" y="-222.5" font-family="Helvetica,sans-Serif" font-size="10.00">+ add_field()</text>
<text text-anchor="start" x="54" y="-211.5" font-family="Helvetica,sans-Serif" font-size="10.00">+ values()</text>
<text text-anchor="start" x="54" y="-200.5" font-family="Helvetica,sans-Serif" font-size="10.00">+ get_value()</text>
<text text-anchor="start" x="54" y="-189.5" font-family="Helvetica,sans-Serif" font-size="10.00">+ notify()</text>
<text text-anchor="start" x="54" y="-178.5" font-family="Helvetica,sans-Serif" font-size="10.00">+ add_observer()</text>
<text text-anchor="start" x="54" y="-167.5" font-family="Helvetica,sans-Serif" font-size="10.00">+ remove_observer()</text>
</a>
</g>
</g>
<!-- Node2&#45;&gt;Node1 -->
<g id="edge1" class="edge"><title>Node2&#45;&gt;Node1</title>
<path fill="none" stroke="midnightblue" d="M98,-150.222C98,-141.039 98,-132.12 98,-123.712"/>
<polygon fill="none" stroke="midnightblue" points="94.5001,-150.28 98,-160.28 101.5,-150.28 94.5001,-150.28"/>
</g>
<!-- Node3 -->
<g id="node3" class="node"><title>Node3</title>
<g id="a_node3"><a xlink:href="interfacefield.html" target="_top" xlink:title="{field\n||+ values()\l+ form()\l+ validate()\l+ sanitize()\l+ display()\l+ display_text()\l}">
<polygon fill="white" stroke="black" points="0,-474.5 0,-586.5 84,-586.5 84,-474.5 0,-474.5"/>
<text text-anchor="middle" x="42" y="-574.5" font-family="Helvetica,sans-Serif" font-size="10.00">field</text>
<polyline fill="none" stroke="black" points="0,-567.5 84,-567.5 "/>
<text text-anchor="middle" x="42" y="-555.5" font-family="Helvetica,sans-Serif" font-size="10.00"> </text>
<polyline fill="none" stroke="black" points="0,-548.5 84,-548.5 "/>
<text text-anchor="start" x="8" y="-536.5" font-family="Helvetica,sans-Serif" font-size="10.00">+ values()</text>
<text text-anchor="start" x="8" y="-525.5" font-family="Helvetica,sans-Serif" font-size="10.00">+ form()</text>
<text text-anchor="start" x="8" y="-514.5" font-family="Helvetica,sans-Serif" font-size="10.00">+ validate()</text>
<text text-anchor="start" x="8" y="-503.5" font-family="Helvetica,sans-Serif" font-size="10.00">+ sanitize()</text>
<text text-anchor="start" x="8" y="-492.5" font-family="Helvetica,sans-Serif" font-size="10.00">+ display()</text>
<text text-anchor="start" x="8" y="-481.5" font-family="Helvetica,sans-Serif" font-size="10.00">+ display_text()</text>
</a>
</g>
</g>
<!-- Node3&#45;&gt;Node2 -->
<g id="edge2" class="edge"><title>Node3&#45;&gt;Node2</title>
<path fill="none" stroke="midnightblue" d="M57.8635,-464.488C59.936,-455.994 62.1185,-447.05 64.351,-437.901"/>
<polygon fill="none" stroke="midnightblue" points="54.455,-463.692 55.4847,-474.237 61.2555,-465.352 54.455,-463.692"/>
</g>
<!-- Node4 -->
<g id="node4" class="node"><title>Node4</title>
<g id="a_node4"><a xlink:href="interfaceobservable.html" target="_top" xlink:title="Describes objects that are able to be observed by observer objects. ">
<polygon fill="white" stroke="black" points="102,-491 102,-570 206,-570 206,-491 102,-491"/>
<text text-anchor="middle" x="154" y="-558" font-family="Helvetica,sans-Serif" font-size="10.00">observable</text>
<polyline fill="none" stroke="black" points="102,-551 206,-551 "/>
<text text-anchor="middle" x="154" y="-539" font-family="Helvetica,sans-Serif" font-size="10.00"> </text>
<polyline fill="none" stroke="black" points="102,-532 206,-532 "/>
<text text-anchor="start" x="110" y="-520" font-family="Helvetica,sans-Serif" font-size="10.00">+ notify()</text>
<text text-anchor="start" x="110" y="-509" font-family="Helvetica,sans-Serif" font-size="10.00">+ add_observer()</text>
<text text-anchor="start" x="110" y="-498" font-family="Helvetica,sans-Serif" font-size="10.00">+ remove_observer()</text>
</a>
</g>
</g>
<!-- Node4&#45;&gt;Node2 -->
<g id="edge3" class="edge"><title>Node4&#45;&gt;Node2</title>
<path fill="none" stroke="midnightblue" d="M142.116,-480.797C138.946,-467.805 135.358,-453.099 131.63,-437.825"/>
<polygon fill="none" stroke="midnightblue" points="138.793,-481.943 144.564,-490.828 145.593,-480.283 138.793,-481.943"/>
</g>
</g>
</svg>
