<?xml version="1.0" encoding="UTF-8" standalone="no"?>
<!DOCTYPE svg PUBLIC "-//W3C//DTD SVG 1.1//EN"
 "http://www.w3.org/Graphics/SVG/1.1/DTD/svg11.dtd">
<!-- Generated by graphviz version 2.38.0 (20140413.2041)
 -->
<!-- Title: database_form Pages: 1 -->
<svg width="238pt" height="639pt"
 viewBox="0.00 0.00 237.50 639.00" xmlns="http://www.w3.org/2000/svg" xmlns:xlink="http://www.w3.org/1999/xlink">
<g id="graph0" class="graph" transform="scale(1 1) rotate(0) translate(4 635)">
<title>database_form</title>
<polygon fill="white" stroke="none" points="-4,4 -4,-635 233.5,-635 233.5,4 -4,4"/>
<!-- Node1 -->
<g id="node1" class="node"><title>Node1</title>
<polygon fill="#bfbfbf" stroke="black" points="95,-0.5 95,-167.5 201,-167.5 201,-0.5 95,-0.5"/>
<text text-anchor="middle" x="148" y="-155.5" font-family="Helvetica,sans-Serif" font-size="10.00">database_form</text>
<polyline fill="none" stroke="black" points="95,-148.5 201,-148.5 "/>
<text text-anchor="middle" x="148" y="-136.5" font-family="Helvetica,sans-Serif" font-size="10.00"> </text>
<polyline fill="none" stroke="black" points="95,-129.5 201,-129.5 "/>
<text text-anchor="start" x="103" y="-117.5" font-family="Helvetica,sans-Serif" font-size="10.00">+ __construct()</text>
<text text-anchor="start" x="103" y="-106.5" font-family="Helvetica,sans-Serif" font-size="10.00">+ create_form()</text>
<text text-anchor="start" x="103" y="-95.5" font-family="Helvetica,sans-Serif" font-size="10.00">+ read_form()</text>
<text text-anchor="start" x="103" y="-84.5" font-family="Helvetica,sans-Serif" font-size="10.00">+ update_form()</text>
<text text-anchor="start" x="103" y="-73.5" font-family="Helvetica,sans-Serif" font-size="10.00">+ delete_form()</text>
<text text-anchor="start" x="103" y="-62.5" font-family="Helvetica,sans-Serif" font-size="10.00">+ create()</text>
<text text-anchor="start" x="103" y="-51.5" font-family="Helvetica,sans-Serif" font-size="10.00">+ read()</text>
<text text-anchor="start" x="103" y="-40.5" font-family="Helvetica,sans-Serif" font-size="10.00">+ update()</text>
<text text-anchor="start" x="103" y="-29.5" font-family="Helvetica,sans-Serif" font-size="10.00">+ delete()</text>
<text text-anchor="start" x="103" y="-18.5" font-family="Helvetica,sans-Serif" font-size="10.00">+ display_structure()</text>
<text text-anchor="start" x="103" y="-7.5" font-family="Helvetica,sans-Serif" font-size="10.00">+ display_table()</text>
</g>
<!-- Node2 -->
<g id="node2" class="node"><title>Node2</title>
<g id="a_node2"><a xlink:href="classforms.html" target="_top" xlink:title="This class describes an HTML form, containing a collection of inputs, and does mass validation and sa...">
<polygon fill="white" stroke="black" points="46,-204.5 46,-481.5 150,-481.5 150,-204.5 46,-204.5"/>
<text text-anchor="middle" x="98" y="-469.5" font-family="Helvetica,sans-Serif" font-size="10.00">forms</text>
<polyline fill="none" stroke="black" points="46,-462.5 150,-462.5 "/>
<text text-anchor="start" x="54" y="-450.5" font-family="Helvetica,sans-Serif" font-size="10.00">+ $name</text>
<text text-anchor="start" x="54" y="-439.5" font-family="Helvetica,sans-Serif" font-size="10.00">+ $id</text>
<text text-anchor="start" x="54" y="-428.5" font-family="Helvetica,sans-Serif" font-size="10.00">+ $pre</text>
<text text-anchor="start" x="54" y="-417.5" font-family="Helvetica,sans-Serif" font-size="10.00">+ $fields</text>
<text text-anchor="start" x="54" y="-406.5" font-family="Helvetica,sans-Serif" font-size="10.00">+ $observers</text>
<text text-anchor="start" x="54" y="-395.5" font-family="Helvetica,sans-Serif" font-size="10.00">+ $nonce</text>
<text text-anchor="start" x="54" y="-384.5" font-family="Helvetica,sans-Serif" font-size="10.00">+ $before_input</text>
<text text-anchor="start" x="54" y="-373.5" font-family="Helvetica,sans-Serif" font-size="10.00">+ $after_input</text>
<text text-anchor="start" x="54" y="-362.5" font-family="Helvetica,sans-Serif" font-size="10.00">+ $before_form</text>
<text text-anchor="start" x="54" y="-351.5" font-family="Helvetica,sans-Serif" font-size="10.00">+ $after_form</text>
<polyline fill="none" stroke="black" points="46,-344.5 150,-344.5 "/>
<text text-anchor="start" x="54" y="-332.5" font-family="Helvetica,sans-Serif" font-size="10.00">+ __construct()</text>
<text text-anchor="start" x="54" y="-321.5" font-family="Helvetica,sans-Serif" font-size="10.00">+ form()</text>
<text text-anchor="start" x="54" y="-310.5" font-family="Helvetica,sans-Serif" font-size="10.00">+ sanitize()</text>
<text text-anchor="start" x="54" y="-299.5" font-family="Helvetica,sans-Serif" font-size="10.00">+ display()</text>
<text text-anchor="start" x="54" y="-288.5" font-family="Helvetica,sans-Serif" font-size="10.00">+ display_text()</text>
<text text-anchor="start" x="54" y="-277.5" font-family="Helvetica,sans-Serif" font-size="10.00">+ validate()</text>
<text text-anchor="start" x="54" y="-266.5" font-family="Helvetica,sans-Serif" font-size="10.00">+ add_field()</text>
<text text-anchor="start" x="54" y="-255.5" font-family="Helvetica,sans-Serif" font-size="10.00">+ values()</text>
<text text-anchor="start" x="54" y="-244.5" font-family="Helvetica,sans-Serif" font-size="10.00">+ get_value()</text>
<text text-anchor="start" x="54" y="-233.5" font-family="Helvetica,sans-Serif" font-size="10.00">+ notify()</text>
<text text-anchor="start" x="54" y="-222.5" font-family="Helvetica,sans-Serif" font-size="10.00">+ add_observer()</text>
<text text-anchor="start" x="54" y="-211.5" font-family="Helvetica,sans-Serif" font-size="10.00">+ remove_observer()</text>
</a>
</g>
</g>
<!-- Node2&#45;&gt;Node1 -->
<g id="edge1" class="edge"><title>Node2&#45;&gt;Node1</title>
<path fill="none" stroke="midnightblue" d="M126.693,-194.519C128.47,-185.386 130.221,-176.384 131.91,-167.703"/>
<polygon fill="none" stroke="midnightblue" points="123.231,-193.987 124.757,-204.471 130.102,-195.324 123.231,-193.987"/>
</g>
<!-- Node3 -->
<g id="node3" class="node"><title>Node3</title>
<g id="a_node3"><a xlink:href="interfacefield.html" target="_top" xlink:title="{field\n||+ values()\l+ form()\l+ validate()\l+ sanitize()\l+ display()\l+ display_text()\l}">
<polygon fill="white" stroke="black" points="0,-518.5 0,-630.5 84,-630.5 84,-518.5 0,-518.5"/>
<text text-anchor="middle" x="42" y="-618.5" font-family="Helvetica,sans-Serif" font-size="10.00">field</text>
<polyline fill="none" stroke="black" points="0,-611.5 84,-611.5 "/>
<text text-anchor="middle" x="42" y="-599.5" font-family="Helvetica,sans-Serif" font-size="10.00"> </text>
<polyline fill="none" stroke="black" points="0,-592.5 84,-592.5 "/>
<text text-anchor="start" x="8" y="-580.5" font-family="Helvetica,sans-Serif" font-size="10.00">+ values()</text>
<text text-anchor="start" x="8" y="-569.5" font-family="Helvetica,sans-Serif" font-size="10.00">+ form()</text>
<text text-anchor="start" x="8" y="-558.5" font-family="Helvetica,sans-Serif" font-size="10.00">+ validate()</text>
<text text-anchor="start" x="8" y="-547.5" font-family="Helvetica,sans-Serif" font-size="10.00">+ sanitize()</text>
<text text-anchor="start" x="8" y="-536.5" font-family="Helvetica,sans-Serif" font-size="10.00">+ display()</text>
<text text-anchor="start" x="8" y="-525.5" font-family="Helvetica,sans-Serif" font-size="10.00">+ display_text()</text>
</a>
</g>
</g>
<!-- Node3&#45;&gt;Node2 -->
<g id="edge2" class="edge"><title>Node3&#45;&gt;Node2</title>
<path fill="none" stroke="midnightblue" d="M57.8635,-508.488C59.936,-499.994 62.1185,-491.05 64.351,-481.901"/>
<polygon fill="none" stroke="midnightblue" points="54.455,-507.692 55.4847,-518.237 61.2555,-509.352 54.455,-507.692"/>
</g>
<!-- Node4 -->
<g id="node4" class="node"><title>Node4</title>
<g id="a_node4"><a xlink:href="interfaceobservable.html" target="_top" xlink:title="Describes objects that are able to be observed by observer objects. ">
<polygon fill="white" stroke="black" points="102,-535 102,-614 206,-614 206,-535 102,-535"/>
<text text-anchor="middle" x="154" y="-602" font-family="Helvetica,sans-Serif" font-size="10.00">observable</text>
<polyline fill="none" stroke="black" points="102,-595 206,-595 "/>
<text text-anchor="middle" x="154" y="-583" font-family="Helvetica,sans-Serif" font-size="10.00"> </text>
<polyline fill="none" stroke="black" points="102,-576 206,-576 "/>
<text text-anchor="start" x="110" y="-564" font-family="Helvetica,sans-Serif" font-size="10.00">+ notify()</text>
<text text-anchor="start" x="110" y="-553" font-family="Helvetica,sans-Serif" font-size="10.00">+ add_observer()</text>
<text text-anchor="start" x="110" y="-542" font-family="Helvetica,sans-Serif" font-size="10.00">+ remove_observer()</text>
</a>
</g>
</g>
<!-- Node4&#45;&gt;Node2 -->
<g id="edge3" class="edge"><title>Node4&#45;&gt;Node2</title>
<path fill="none" stroke="midnightblue" d="M142.116,-524.797C138.946,-511.805 135.358,-497.099 131.63,-481.825"/>
<polygon fill="none" stroke="midnightblue" points="138.793,-525.943 144.564,-534.828 145.593,-524.283 138.793,-525.943"/>
</g>
<!-- Node5 -->
<g id="node5" class="node"><title>Node5</title>
<g id="a_node5"><a xlink:href="interfacecrud.html" target="_top" xlink:title="Describes an object that knows how to Create, Read, Update and Delete iteself. ">
<polygon fill="white" stroke="black" points="168.5,-298 168.5,-388 229.5,-388 229.5,-298 168.5,-298"/>
<text text-anchor="middle" x="199" y="-376" font-family="Helvetica,sans-Serif" font-size="10.00">crud</text>
<polyline fill="none" stroke="black" points="168.5,-369 229.5,-369 "/>
<text text-anchor="middle" x="199" y="-357" font-family="Helvetica,sans-Serif" font-size="10.00"> </text>
<polyline fill="none" stroke="black" points="168.5,-350 229.5,-350 "/>
<text text-anchor="start" x="176.5" y="-338" font-family="Helvetica,sans-Serif" font-size="10.00">+ create()</text>
<text text-anchor="start" x="176.5" y="-327" font-family="Helvetica,sans-Serif" font-size="10.00">+ read()</text>
<text text-anchor="start" x="176.5" y="-316" font-family="Helvetica,sans-Serif" font-size="10.00">+ update()</text>
<text text-anchor="start" x="176.5" y="-305" font-family="Helvetica,sans-Serif" font-size="10.00">+ delete()</text>
</a>
</g>
</g>
<!-- Node5&#45;&gt;Node1 -->
<g id="edge4" class="edge"><title>Node5&#45;&gt;Node1</title>
<path fill="none" stroke="midnightblue" d="M188.254,-287.849C181.343,-253.025 172.229,-207.094 164.421,-167.747"/>
<polygon fill="none" stroke="midnightblue" points="184.853,-288.693 190.233,-297.82 191.719,-287.33 184.853,-288.693"/>
</g>
</g>
</svg>
