<?xml version="1.0" encoding="UTF-8" standalone="no"?>
<!DOCTYPE svg PUBLIC "-//W3C//DTD SVG 1.1//EN"
 "http://www.w3.org/Graphics/SVG/1.1/DTD/svg11.dtd">
<!-- Generated by graphviz version 2.38.0 (20140413.2041)
 -->
<!-- Title: email_form_values Pages: 1 -->
<svg width="104pt" height="248pt"
 viewBox="0.00 0.00 104.00 248.00" xmlns="http://www.w3.org/2000/svg" xmlns:xlink="http://www.w3.org/1999/xlink">
<g id="graph0" class="graph" transform="scale(1 1) rotate(0) translate(4 244)">
<title>email_form_values</title>
<polygon fill="white" stroke="none" points="-4,4 -4,-244 100,-244 100,4 -4,4"/>
<!-- Node1 -->
<g id="node1" class="node"><title>Node1</title>
<polygon fill="#bfbfbf" stroke="black" points="0,-0.5 0,-123.5 96,-123.5 96,-0.5 0,-0.5"/>
<text text-anchor="middle" x="48" y="-111.5" font-family="Helvetica,sans-Serif" font-size="10.00">email_form_values</text>
<polyline fill="none" stroke="black" points="0,-104.5 96,-104.5 "/>
<text text-anchor="start" x="8" y="-92.5" font-family="Helvetica,sans-Serif" font-size="10.00">+ $email_to</text>
<text text-anchor="start" x="8" y="-81.5" font-family="Helvetica,sans-Serif" font-size="10.00">+ $email_from</text>
<text text-anchor="start" x="8" y="-70.5" font-family="Helvetica,sans-Serif" font-size="10.00">+ $email_subject</text>
<text text-anchor="start" x="8" y="-59.5" font-family="Helvetica,sans-Serif" font-size="10.00">+ $condition</text>
<polyline fill="none" stroke="black" points="0,-52.5 96,-52.5 "/>
<text text-anchor="start" x="8" y="-40.5" font-family="Helvetica,sans-Serif" font-size="10.00">+ __construct()</text>
<text text-anchor="start" x="8" y="-29.5" font-family="Helvetica,sans-Serif" font-size="10.00">+ notify()</text>
<text text-anchor="start" x="8" y="-18.5" font-family="Helvetica,sans-Serif" font-size="10.00">+ values()</text>
<text text-anchor="start" x="8" y="-7.5" font-family="Helvetica,sans-Serif" font-size="10.00">+ form()</text>
</g>
<!-- Node2 -->
<g id="node2" class="node"><title>Node2</title>
<g id="a_node2"><a xlink:href="classobserver.html" target="_top" xlink:title="Impliments the observer in the observer patters. ">
<polygon fill="white" stroke="black" points="6.5,-160.5 6.5,-239.5 89.5,-239.5 89.5,-160.5 6.5,-160.5"/>
<text text-anchor="middle" x="48" y="-227.5" font-family="Helvetica,sans-Serif" font-size="10.00">observer</text>
<polyline fill="none" stroke="black" points="6.5,-220.5 89.5,-220.5 "/>
<text text-anchor="middle" x="48" y="-208.5" font-family="Helvetica,sans-Serif" font-size="10.00"> </text>
<polyline fill="none" stroke="black" points="6.5,-201.5 89.5,-201.5 "/>
<text text-anchor="start" x="14.5" y="-189.5" font-family="Helvetica,sans-Serif" font-size="10.00">+ __construct()</text>
<text text-anchor="start" x="14.5" y="-178.5" font-family="Helvetica,sans-Serif" font-size="10.00">+ set_func()</text>
<text text-anchor="start" x="14.5" y="-167.5" font-family="Helvetica,sans-Serif" font-size="10.00">+ notify()</text>
</a>
</g>
</g>
<!-- Node2&#45;&gt;Node1 -->
<g id="edge1" class="edge"><title>Node2&#45;&gt;Node1</title>
<path fill="none" stroke="midnightblue" d="M48,-150.144C48,-141.528 48,-132.465 48,-123.574"/>
<polygon fill="none" stroke="midnightblue" points="44.5001,-150.392 48,-160.392 51.5001,-150.392 44.5001,-150.392"/>
</g>
</g>
</svg>
