<?xml version="1.0" encoding="UTF-8" standalone="no"?>
<!DOCTYPE svg PUBLIC "-//W3C//DTD SVG 1.1//EN"
 "http://www.w3.org/Graphics/SVG/1.1/DTD/svg11.dtd">
<!-- Generated by graphviz version 2.38.0 (20140413.2041)
 -->
<!-- Title: crud_form Pages: 1 -->
<svg width="214pt" height="667pt"
 viewBox="0.00 0.00 214.00 667.00" xmlns="http://www.w3.org/2000/svg" xmlns:xlink="http://www.w3.org/1999/xlink">
<g id="graph0" class="graph" transform="scale(1 1) rotate(0) translate(4 663)">
<title>crud_form</title>
<polygon fill="white" stroke="none" points="-4,4 -4,-663 210,-663 210,4 -4,4"/>
<!-- Node1 -->
<g id="node1" class="node"><title>Node1</title>
<polygon fill="#bfbfbf" stroke="black" points="65,-138.5 65,-195.5 131,-195.5 131,-138.5 65,-138.5"/>
<text text-anchor="middle" x="98" y="-183.5" font-family="Helvetica,sans-Serif" font-size="10.00">crud_form</text>
<polyline fill="none" stroke="black" points="65,-176.5 131,-176.5 "/>
<text text-anchor="middle" x="98" y="-164.5" font-family="Helvetica,sans-Serif" font-size="10.00"> </text>
<polyline fill="none" stroke="black" points="65,-157.5 131,-157.5 "/>
<text text-anchor="start" x="73" y="-145.5" font-family="Helvetica,sans-Serif" font-size="10.00">+ do_form()</text>
</g>
<!-- Node5 -->
<g id="node5" class="node"><title>Node5</title>
<g id="a_node5"><a xlink:href="classdb__form.html" target="_top" xlink:title="Represents an HTML form, and saves form data in $db table named by the name attribue of this object...">
<polygon fill="white" stroke="black" points="59.5,-0.5 59.5,-101.5 136.5,-101.5 136.5,-0.5 59.5,-0.5"/>
<text text-anchor="middle" x="98" y="-89.5" font-family="Helvetica,sans-Serif" font-size="10.00">db_form</text>
<polyline fill="none" stroke="black" points="59.5,-82.5 136.5,-82.5 "/>
<text text-anchor="middle" x="98" y="-70.5" font-family="Helvetica,sans-Serif" font-size="10.00"> </text>
<polyline fill="none" stroke="black" points="59.5,-63.5 136.5,-63.5 "/>
<text text-anchor="start" x="67.5" y="-51.5" font-family="Helvetica,sans-Serif" font-size="10.00">+ create()</text>
<text text-anchor="start" x="67.5" y="-40.5" font-family="Helvetica,sans-Serif" font-size="10.00">+ read()</text>
<text text-anchor="start" x="67.5" y="-29.5" font-family="Helvetica,sans-Serif" font-size="10.00">+ update()</text>
<text text-anchor="start" x="67.5" y="-18.5" font-family="Helvetica,sans-Serif" font-size="10.00">+ delete()</text>
<text text-anchor="start" x="67.5" y="-7.5" font-family="Helvetica,sans-Serif" font-size="10.00">+ create_sql()</text>
</a>
</g>
</g>
<!-- Node1&#45;&gt;Node5 -->
<g id="edge4" class="edge"><title>Node1&#45;&gt;Node5</title>
<path fill="none" stroke="midnightblue" d="M98,-128.354C98,-119.796 98,-110.578 98,-101.608"/>
<polygon fill="none" stroke="midnightblue" points="94.5001,-128.404 98,-138.404 101.5,-128.404 94.5001,-128.404"/>
</g>
<!-- Node2 -->
<g id="node2" class="node"><title>Node2</title>
<g id="a_node2"><a xlink:href="classforms.html" target="_top" xlink:title="This class describes an HTML form, containing a collection of inputs, and does mass validation and sa...">
<polygon fill="white" stroke="black" points="46,-232.5 46,-509.5 150,-509.5 150,-232.5 46,-232.5"/>
<text text-anchor="middle" x="98" y="-497.5" font-family="Helvetica,sans-Serif" font-size="10.00">forms</text>
<polyline fill="none" stroke="black" points="46,-490.5 150,-490.5 "/>
<text text-anchor="start" x="54" y="-478.5" font-family="Helvetica,sans-Serif" font-size="10.00">+ $name</text>
<text text-anchor="start" x="54" y="-467.5" font-family="Helvetica,sans-Serif" font-size="10.00">+ $id</text>
<text text-anchor="start" x="54" y="-456.5" font-family="Helvetica,sans-Serif" font-size="10.00">+ $pre</text>
<text text-anchor="start" x="54" y="-445.5" font-family="Helvetica,sans-Serif" font-size="10.00">+ $fields</text>
<text text-anchor="start" x="54" y="-434.5" font-family="Helvetica,sans-Serif" font-size="10.00">+ $observers</text>
<text text-anchor="start" x="54" y="-423.5" font-family="Helvetica,sans-Serif" font-size="10.00">+ $nonce</text>
<text text-anchor="start" x="54" y="-412.5" font-family="Helvetica,sans-Serif" font-size="10.00">+ $before_input</text>
<text text-anchor="start" x="54" y="-401.5" font-family="Helvetica,sans-Serif" font-size="10.00">+ $after_input</text>
<text text-anchor="start" x="54" y="-390.5" font-family="Helvetica,sans-Serif" font-size="10.00">+ $before_form</text>
<text text-anchor="start" x="54" y="-379.5" font-family="Helvetica,sans-Serif" font-size="10.00">+ $after_form</text>
<polyline fill="none" stroke="black" points="46,-372.5 150,-372.5 "/>
<text text-anchor="start" x="54" y="-360.5" font-family="Helvetica,sans-Serif" font-size="10.00">+ __construct()</text>
<text text-anchor="start" x="54" y="-349.5" font-family="Helvetica,sans-Serif" font-size="10.00">+ form()</text>
<text text-anchor="start" x="54" y="-338.5" font-family="Helvetica,sans-Serif" font-size="10.00">+ sanitize()</text>
<text text-anchor="start" x="54" y="-327.5" font-family="Helvetica,sans-Serif" font-size="10.00">+ display()</text>
<text text-anchor="start" x="54" y="-316.5" font-family="Helvetica,sans-Serif" font-size="10.00">+ display_text()</text>
<text text-anchor="start" x="54" y="-305.5" font-family="Helvetica,sans-Serif" font-size="10.00">+ validate()</text>
<text text-anchor="start" x="54" y="-294.5" font-family="Helvetica,sans-Serif" font-size="10.00">+ add_field()</text>
<text text-anchor="start" x="54" y="-283.5" font-family="Helvetica,sans-Serif" font-size="10.00">+ values()</text>
<text text-anchor="start" x="54" y="-272.5" font-family="Helvetica,sans-Serif" font-size="10.00">+ get_value()</text>
<text text-anchor="start" x="54" y="-261.5" font-family="Helvetica,sans-Serif" font-size="10.00">+ notify()</text>
<text text-anchor="start" x="54" y="-250.5" font-family="Helvetica,sans-Serif" font-size="10.00">+ add_observer()</text>
<text text-anchor="start" x="54" y="-239.5" font-family="Helvetica,sans-Serif" font-size="10.00">+ remove_observer()</text>
</a>
</g>
</g>
<!-- Node2&#45;&gt;Node1 -->
<g id="edge1" class="edge"><title>Node2&#45;&gt;Node1</title>
<path fill="none" stroke="midnightblue" d="M98,-222.414C98,-212.59 98,-203.519 98,-195.713"/>
<polygon fill="none" stroke="midnightblue" points="94.5001,-222.469 98,-232.469 101.5,-222.469 94.5001,-222.469"/>
</g>
<!-- Node3 -->
<g id="node3" class="node"><title>Node3</title>
<g id="a_node3"><a xlink:href="interfacefield.html" target="_top" xlink:title="{field\n||+ values()\l+ form()\l+ validate()\l+ sanitize()\l+ display()\l+ display_text()\l}">
<polygon fill="white" stroke="black" points="0,-546.5 0,-658.5 84,-658.5 84,-546.5 0,-546.5"/>
<text text-anchor="middle" x="42" y="-646.5" font-family="Helvetica,sans-Serif" font-size="10.00">field</text>
<polyline fill="none" stroke="black" points="0,-639.5 84,-639.5 "/>
<text text-anchor="middle" x="42" y="-627.5" font-family="Helvetica,sans-Serif" font-size="10.00"> </text>
<polyline fill="none" stroke="black" points="0,-620.5 84,-620.5 "/>
<text text-anchor="start" x="8" y="-608.5" font-family="Helvetica,sans-Serif" font-size="10.00">+ values()</text>
<text text-anchor="start" x="8" y="-597.5" font-family="Helvetica,sans-Serif" font-size="10.00">+ form()</text>
<text text-anchor="start" x="8" y="-586.5" font-family="Helvetica,sans-Serif" font-size="10.00">+ validate()</text>
<text text-anchor="start" x="8" y="-575.5" font-family="Helvetica,sans-Serif" font-size="10.00">+ sanitize()</text>
<text text-anchor="start" x="8" y="-564.5" font-family="Helvetica,sans-Serif" font-size="10.00">+ display()</text>
<text text-anchor="start" x="8" y="-553.5" font-family="Helvetica,sans-Serif" font-size="10.00">+ display_text()</text>
</a>
</g>
</g>
<!-- Node3&#45;&gt;Node2 -->
<g id="edge2" class="edge"><title>Node3&#45;&gt;Node2</title>
<path fill="none" stroke="midnightblue" d="M57.8635,-536.488C59.936,-527.994 62.1185,-519.05 64.351,-509.901"/>
<polygon fill="none" stroke="midnightblue" points="54.455,-535.692 55.4847,-546.237 61.2555,-537.352 54.455,-535.692"/>
</g>
<!-- Node4 -->
<g id="node4" class="node"><title>Node4</title>
<g id="a_node4"><a xlink:href="interfaceobservable.html" target="_top" xlink:title="Describes objects that are able to be observed by observer objects. ">
<polygon fill="white" stroke="black" points="102,-563 102,-642 206,-642 206,-563 102,-563"/>
<text text-anchor="middle" x="154" y="-630" font-family="Helvetica,sans-Serif" font-size="10.00">observable</text>
<polyline fill="none" stroke="black" points="102,-623 206,-623 "/>
<text text-anchor="middle" x="154" y="-611" font-family="Helvetica,sans-Serif" font-size="10.00"> </text>
<polyline fill="none" stroke="black" points="102,-604 206,-604 "/>
<text text-anchor="start" x="110" y="-592" font-family="Helvetica,sans-Serif" font-size="10.00">+ notify()</text>
<text text-anchor="start" x="110" y="-581" font-family="Helvetica,sans-Serif" font-size="10.00">+ add_observer()</text>
<text text-anchor="start" x="110" y="-570" font-family="Helvetica,sans-Serif" font-size="10.00">+ remove_observer()</text>
</a>
</g>
</g>
<!-- Node4&#45;&gt;Node2 -->
<g id="edge3" class="edge"><title>Node4&#45;&gt;Node2</title>
<path fill="none" stroke="midnightblue" d="M142.116,-552.797C138.946,-539.805 135.358,-525.099 131.63,-509.825"/>
<polygon fill="none" stroke="midnightblue" points="138.793,-553.943 144.564,-562.828 145.593,-552.283 138.793,-553.943"/>
</g>
</g>
</svg>
