<?xml version="1.0" encoding="UTF-8" standalone="no"?>
<!DOCTYPE svg PUBLIC "-//W3C//DTD SVG 1.1//EN"
 "http://www.w3.org/Graphics/SVG/1.1/DTD/svg11.dtd">
<!-- Generated by graphviz version 2.38.0 (20140413.2041)
 -->
<!-- Title: Graphical Class Hierarchy Pages: 1 -->
<svg width="193pt" height="66pt"
 viewBox="0.00 0.00 193.00 66.00" xmlns="http://www.w3.org/2000/svg" xmlns:xlink="http://www.w3.org/1999/xlink">
<g id="graph0" class="graph" transform="scale(1 1) rotate(0) translate(4 62)">
<title>Graphical Class Hierarchy</title>
<polygon fill="white" stroke="none" points="-4,4 -4,-62 189,-62 189,4 -4,4"/>
<!-- Node1 -->
<g id="node1" class="node"><title>Node1</title>
<g id="a_node1"><a xlink:href="classobserver.html" target="_top" xlink:title="Impliments the observer in the observer patters. ">
<polygon fill="white" stroke="black" points="0,-19.5 0,-38.5 53,-38.5 53,-19.5 0,-19.5"/>
<text text-anchor="middle" x="26.5" y="-26.5" font-family="Helvetica,sans-Serif" font-size="10.00">observer</text>
</a>
</g>
</g>
<!-- Node2 -->
<g id="node2" class="node"><title>Node2</title>
<g id="a_node2"><a xlink:href="classemail__form__values.html" target="_top" xlink:title="This observer object emails the values of a form when the action in condition is performed. ">
<polygon fill="white" stroke="black" points="89,-38.5 89,-57.5 185,-57.5 185,-38.5 89,-38.5"/>
<text text-anchor="middle" x="137" y="-45.5" font-family="Helvetica,sans-Serif" font-size="10.00">email_form_values</text>
</a>
</g>
</g>
<!-- Node1&#45;&gt;Node2 -->
<g id="edge1" class="edge"><title>Node1&#45;&gt;Node2</title>
<path fill="none" stroke="midnightblue" d="M63.1773,-35.2476C71.3674,-36.6819 80.1998,-38.2285 88.7925,-39.7332"/>
<polygon fill="midnightblue" stroke="midnightblue" points="63.6668,-31.7802 53.213,-33.5027 62.4594,-38.6753 63.6668,-31.7802"/>
</g>
<!-- Node3 -->
<g id="node3" class="node"><title>Node3</title>
<g id="a_node3"><a xlink:href="classmessage.html" target="_top" xlink:title="Display a message on event. ">
<polygon fill="white" stroke="black" points="109,-0.5 109,-19.5 165,-19.5 165,-0.5 109,-0.5"/>
<text text-anchor="middle" x="137" y="-7.5" font-family="Helvetica,sans-Serif" font-size="10.00">message</text>
</a>
</g>
</g>
<!-- Node1&#45;&gt;Node3 -->
<g id="edge2" class="edge"><title>Node1&#45;&gt;Node3</title>
<path fill="none" stroke="midnightblue" d="M63.1323,-22.7602C78.048,-20.1483 95.1005,-17.1621 108.957,-14.7356"/>
<polygon fill="midnightblue" stroke="midnightblue" points="62.4594,-19.3247 53.213,-24.4973 63.6668,-26.2198 62.4594,-19.3247"/>
</g>
</g>
</svg>
