<?xml version="1.0" encoding="UTF-8" standalone="no"?>
<!DOCTYPE svg PUBLIC "-//W3C//DTD SVG 1.1//EN"
 "http://www.w3.org/Graphics/SVG/1.1/DTD/svg11.dtd">
<!-- Generated by graphviz version 2.38.0 (20140413.2041)
 -->
<!-- Title: Graphical Class Hierarchy Pages: 1 -->
<svg width="360pt" height="731pt"
 viewBox="0.00 0.00 360.00 731.00" xmlns="http://www.w3.org/2000/svg" xmlns:xlink="http://www.w3.org/1999/xlink">
<g id="graph0" class="graph" transform="scale(1 1) rotate(0) translate(4 727)">
<title>Graphical Class Hierarchy</title>
<polygon fill="white" stroke="none" points="-4,4 -4,-727 356,-727 356,4 -4,4"/>
<!-- Node1 -->
<g id="node1" class="node"><title>Node1</title>
<g id="a_node1"><a xlink:href="interfacecrud.html" target="_top" xlink:title="Describes an object that knows how to Create, Read, Update and Delete iteself. ">
<polygon fill="white" stroke="black" points="101,-703.5 101,-722.5 136,-722.5 136,-703.5 101,-703.5"/>
<text text-anchor="middle" x="118.5" y="-710.5" font-family="Helvetica,sans-Serif" font-size="10.00">crud</text>
</a>
</g>
</g>
<!-- Node2 -->
<g id="node2" class="node"><title>Node2</title>
<g id="a_node2"><a xlink:href="classdatabase__form.html" target="_top" xlink:title="This class allows the both the structure and the data for this form to be written out to a database...">
<polygon fill="white" stroke="black" points="177,-684.5 177,-703.5 257,-703.5 257,-684.5 177,-684.5"/>
<text text-anchor="middle" x="217" y="-691.5" font-family="Helvetica,sans-Serif" font-size="10.00">database_form</text>
</a>
</g>
</g>
<!-- Node1&#45;&gt;Node2 -->
<g id="edge1" class="edge"><title>Node1&#45;&gt;Node2</title>
<path fill="none" stroke="midnightblue" d="M146.321,-707.719C155.803,-705.852 166.671,-703.712 176.958,-701.687"/>
<polygon fill="midnightblue" stroke="midnightblue" points="145.444,-704.324 136.309,-709.69 146.797,-711.193 145.444,-704.324"/>
</g>
<!-- Node3 -->
<g id="node3" class="node"><title>Node3</title>
<g id="a_node3"><a xlink:href="classdb__form.html" target="_top" xlink:title="Represents an HTML form, and saves form data in $db table named by the name attribue of this object...">
<polygon fill="white" stroke="black" points="298,-665.5 298,-684.5 349,-684.5 349,-665.5 298,-665.5"/>
<text text-anchor="middle" x="323.5" y="-672.5" font-family="Helvetica,sans-Serif" font-size="10.00">db_form</text>
</a>
</g>
</g>
<!-- Node1&#45;&gt;Node3 -->
<g id="edge2" class="edge"><title>Node1&#45;&gt;Node3</title>
<path fill="none" stroke="midnightblue" d="M146.208,-717.153C174.711,-720.635 220.913,-723.526 259,-713 278.813,-707.524 298.665,-694.05 310.767,-684.713"/>
<polygon fill="midnightblue" stroke="midnightblue" points="146.58,-713.672 136.204,-715.817 145.653,-720.61 146.58,-713.672"/>
</g>
<!-- Node4 -->
<g id="node4" class="node"><title>Node4</title>
<g id="a_node4"><a xlink:href="interfacefield.html" target="_top" xlink:title="field">
<polygon fill="white" stroke="black" points="14,-418.5 14,-437.5 48,-437.5 48,-418.5 14,-418.5"/>
<text text-anchor="middle" x="31" y="-425.5" font-family="Helvetica,sans-Serif" font-size="10.00">field</text>
</a>
</g>
</g>
<!-- Node5 -->
<g id="node5" class="node"><title>Node5</title>
<g id="a_node5"><a xlink:href="classforms.html" target="_top" xlink:title="This class describes an HTML form, containing a collection of inputs, and does mass validation and sa...">
<polygon fill="white" stroke="black" points="98,-608.5 98,-627.5 139,-627.5 139,-608.5 98,-608.5"/>
<text text-anchor="middle" x="118.5" y="-615.5" font-family="Helvetica,sans-Serif" font-size="10.00">forms</text>
</a>
</g>
</g>
<!-- Node4&#45;&gt;Node5 -->
<g id="edge3" class="edge"><title>Node4&#45;&gt;Node5</title>
<path fill="none" stroke="midnightblue" d="M40.4675,-446.817C58.3551,-486.567 99.4603,-577.912 113.049,-608.108"/>
<polygon fill="midnightblue" stroke="midnightblue" points="43.6529,-445.366 36.3575,-437.683 37.2695,-448.239 43.6529,-445.366"/>
</g>
<!-- Node9 -->
<g id="node9" class="node"><title>Node9</title>
<g id="a_node9"><a xlink:href="classinput.html" target="_top" xlink:title="The class input describes a form element, it&#39;s attributes and how it is validated and sanitized...">
<polygon fill="white" stroke="black" points="99.5,-285.5 99.5,-304.5 137.5,-304.5 137.5,-285.5 99.5,-285.5"/>
<text text-anchor="middle" x="118.5" y="-292.5" font-family="Helvetica,sans-Serif" font-size="10.00">input</text>
</a>
</g>
</g>
<!-- Node4&#45;&gt;Node9 -->
<g id="edge9" class="edge"><title>Node4&#45;&gt;Node9</title>
<path fill="none" stroke="midnightblue" d="M43.675,-409.839C62.0017,-381.331 96.9015,-327.042 111.176,-304.837"/>
<polygon fill="midnightblue" stroke="midnightblue" points="40.6124,-408.131 38.1489,-418.435 46.5007,-411.916 40.6124,-408.131"/>
</g>
<!-- Node5&#45;&gt;Node2 -->
<g id="edge7" class="edge"><title>Node5&#45;&gt;Node2</title>
<path fill="none" stroke="midnightblue" d="M133.333,-635.26C143.805,-647.508 159.066,-663.713 175,-675 179.993,-678.537 185.75,-681.683 191.341,-684.347"/>
<polygon fill="midnightblue" stroke="midnightblue" points="135.984,-632.974 126.899,-627.522 130.601,-637.449 135.984,-632.974"/>
</g>
<!-- Node6 -->
<g id="node6" class="node"><title>Node6</title>
<g id="a_node6"><a xlink:href="classbuilder__form.html" target="_top" xlink:title="This form build up a form by creating fields. ">
<polygon fill="white" stroke="black" points="182.5,-646.5 182.5,-665.5 251.5,-665.5 251.5,-646.5 182.5,-646.5"/>
<text text-anchor="middle" x="217" y="-653.5" font-family="Helvetica,sans-Serif" font-size="10.00">builder_form</text>
</a>
</g>
</g>
<!-- Node5&#45;&gt;Node6 -->
<g id="edge4" class="edge"><title>Node5&#45;&gt;Node6</title>
<path fill="none" stroke="midnightblue" d="M148.538,-629.435C162.315,-634.86 178.591,-641.269 191.703,-646.432"/>
<polygon fill="midnightblue" stroke="midnightblue" points="149.615,-626.097 139.028,-625.69 147.05,-632.611 149.615,-626.097"/>
</g>
<!-- Node7 -->
<g id="node7" class="node"><title>Node7</title>
<g id="a_node7"><a xlink:href="classcrud__form.html" target="_top" xlink:title="crud_form">
<polygon fill="white" stroke="black" points="187.5,-608.5 187.5,-627.5 246.5,-627.5 246.5,-608.5 187.5,-608.5"/>
<text text-anchor="middle" x="217" y="-615.5" font-family="Helvetica,sans-Serif" font-size="10.00">crud_form</text>
</a>
</g>
</g>
<!-- Node5&#45;&gt;Node7 -->
<g id="edge5" class="edge"><title>Node5&#45;&gt;Node7</title>
<path fill="none" stroke="midnightblue" d="M149.133,-618C161.286,-618 175.299,-618 187.349,-618"/>
<polygon fill="midnightblue" stroke="midnightblue" points="149.028,-614.5 139.028,-618 149.028,-621.5 149.028,-614.5"/>
</g>
<!-- Node8 -->
<g id="node8" class="node"><title>Node8</title>
<g id="a_node8"><a xlink:href="classfile__form.html" target="_top" xlink:title="This class represents an HTML form, it&#39;s values, how it is validated and allows to read/write form da...">
<polygon fill="white" stroke="black" points="190.5,-570.5 190.5,-589.5 243.5,-589.5 243.5,-570.5 190.5,-570.5"/>
<text text-anchor="middle" x="217" y="-577.5" font-family="Helvetica,sans-Serif" font-size="10.00">file_form</text>
</a>
</g>
</g>
<!-- Node5&#45;&gt;Node8 -->
<g id="edge8" class="edge"><title>Node5&#45;&gt;Node8</title>
<path fill="none" stroke="midnightblue" d="M148.538,-606.565C162.315,-601.14 178.591,-594.731 191.703,-589.568"/>
<polygon fill="midnightblue" stroke="midnightblue" points="147.05,-603.389 139.028,-610.31 149.615,-609.903 147.05,-603.389"/>
</g>
<!-- Node7&#45;&gt;Node3 -->
<g id="edge6" class="edge"><title>Node7&#45;&gt;Node3</title>
<path fill="none" stroke="midnightblue" d="M249.202,-632.04C252.534,-633.664 255.853,-635.335 259,-637 276.034,-646.012 294.908,-657.509 307.616,-665.485"/>
<polygon fill="midnightblue" stroke="midnightblue" points="250.448,-628.757 239.912,-627.637 247.45,-635.083 250.448,-628.757"/>
</g>
<!-- Node10 -->
<g id="node10" class="node"><title>Node10</title>
<g id="a_node10"><a xlink:href="classcolor__input.html" target="_top" xlink:title="This convience class creates a color input with validation and sanitization. ">
<polygon fill="white" stroke="black" points="185,-532.5 185,-551.5 249,-551.5 249,-532.5 185,-532.5"/>
<text text-anchor="middle" x="217" y="-539.5" font-family="Helvetica,sans-Serif" font-size="10.00">color_input</text>
</a>
</g>
</g>
<!-- Node9&#45;&gt;Node10 -->
<g id="edge10" class="edge"><title>Node9&#45;&gt;Node10</title>
<path fill="none" stroke="midnightblue" d="M118.873,-314.705C118.556,-357.567 123.59,-460.432 175,-523 178.088,-526.758 182.085,-529.81 186.37,-532.278"/>
<polygon fill="midnightblue" stroke="midnightblue" points="122.376,-314.57 119.064,-304.507 115.378,-314.439 122.376,-314.57"/>
</g>
<!-- Node11 -->
<g id="node11" class="node"><title>Node11</title>
<g id="a_node11"><a xlink:href="classdatalist__input.html" target="_top" xlink:title="Adaptor to input class, adds a datalist. ">
<polygon fill="white" stroke="black" points="180,-494.5 180,-513.5 254,-513.5 254,-494.5 180,-494.5"/>
<text text-anchor="middle" x="217" y="-501.5" font-family="Helvetica,sans-Serif" font-size="10.00">datalist_input</text>
</a>
</g>
</g>
<!-- Node9&#45;&gt;Node11 -->
<g id="edge11" class="edge"><title>Node9&#45;&gt;Node11</title>
<path fill="none" stroke="midnightblue" d="M120.069,-314.704C122.161,-352.237 131.735,-434.717 175,-485 178.275,-488.806 182.475,-491.896 186.932,-494.391"/>
<polygon fill="midnightblue" stroke="midnightblue" points="123.56,-314.424 119.631,-304.585 116.567,-314.727 123.56,-314.424"/>
</g>
<!-- Node12 -->
<g id="node12" class="node"><title>Node12</title>
<g id="a_node12"><a xlink:href="classdate__input.html" target="_top" xlink:title="This convience class creates a date input. ">
<polygon fill="white" stroke="black" points="186,-456.5 186,-475.5 248,-475.5 248,-456.5 186,-456.5"/>
<text text-anchor="middle" x="217" y="-463.5" font-family="Helvetica,sans-Serif" font-size="10.00">date_input</text>
</a>
</g>
</g>
<!-- Node9&#45;&gt;Node12 -->
<g id="edge12" class="edge"><title>Node9&#45;&gt;Node12</title>
<path fill="none" stroke="midnightblue" d="M121.871,-315.091C126.596,-346.831 139.945,-408.875 175,-447 178.505,-450.812 182.927,-453.921 187.562,-456.436"/>
<polygon fill="midnightblue" stroke="midnightblue" points="125.298,-314.314 120.496,-304.869 118.36,-315.247 125.298,-314.314"/>
</g>
<!-- Node13 -->
<g id="node13" class="node"><title>Node13</title>
<g id="a_node13"><a xlink:href="classemail__input.html" target="_top" xlink:title="email_input">
<polygon fill="white" stroke="black" points="184,-418.5 184,-437.5 250,-437.5 250,-418.5 184,-418.5"/>
<text text-anchor="middle" x="217" y="-425.5" font-family="Helvetica,sans-Serif" font-size="10.00">email_input</text>
</a>
</g>
</g>
<!-- Node9&#45;&gt;Node13 -->
<g id="edge13" class="edge"><title>Node9&#45;&gt;Node13</title>
<path fill="none" stroke="midnightblue" d="M124.492,-314.246C131.805,-339.043 147.625,-382.143 175,-409 178.808,-412.736 183.486,-415.828 188.303,-418.354"/>
<polygon fill="midnightblue" stroke="midnightblue" points="127.847,-313.248 121.794,-304.553 121.103,-315.125 127.847,-313.248"/>
</g>
<!-- Node14 -->
<g id="node14" class="node"><title>Node14</title>
<g id="a_node14"><a xlink:href="classhidden__input.html" target="_top" xlink:title="The class hidden_input describes a form element, it&#39;s attributes and how it is validated and sanitize...">
<polygon fill="white" stroke="black" points="181.5,-380.5 181.5,-399.5 252.5,-399.5 252.5,-380.5 181.5,-380.5"/>
<text text-anchor="middle" x="217" y="-387.5" font-family="Helvetica,sans-Serif" font-size="10.00">hidden_input</text>
</a>
</g>
</g>
<!-- Node9&#45;&gt;Node14 -->
<g id="edge14" class="edge"><title>Node9&#45;&gt;Node14</title>
<path fill="none" stroke="midnightblue" d="M129.366,-313.498C139.103,-330.313 155.359,-354.889 175,-371 179.489,-374.682 184.808,-377.823 190.103,-380.428"/>
<polygon fill="midnightblue" stroke="midnightblue" points="132.339,-311.643 124.409,-304.616 126.227,-315.054 132.339,-311.643"/>
</g>
<!-- Node16 -->
<g id="node16" class="node"><title>Node16</title>
<g id="a_node16"><a xlink:href="classinput__group.html" target="_top" xlink:title="Defines a group of related inputs like raido buttons or checkboxes that have the same name...">
<polygon fill="white" stroke="black" points="183.5,-342.5 183.5,-361.5 250.5,-361.5 250.5,-342.5 183.5,-342.5"/>
<text text-anchor="middle" x="217" y="-349.5" font-family="Helvetica,sans-Serif" font-size="10.00">input_group</text>
</a>
</g>
</g>
<!-- Node9&#45;&gt;Node16 -->
<g id="edge16" class="edge"><title>Node9&#45;&gt;Node16</title>
<path fill="none" stroke="midnightblue" d="M140.573,-310.652C150.723,-317.87 163.224,-326.302 175,-333 180.865,-336.336 187.416,-339.575 193.531,-342.405"/>
<polygon fill="midnightblue" stroke="midnightblue" points="142.489,-307.719 132.335,-304.695 138.387,-313.391 142.489,-307.719"/>
</g>
<!-- Node17 -->
<g id="node17" class="node"><title>Node17</title>
<g id="a_node17"><a xlink:href="classmatrix__input.html" target="_top" xlink:title="This class represents a matrix_input. ">
<polygon fill="white" stroke="black" points="182,-304.5 182,-323.5 252,-323.5 252,-304.5 182,-304.5"/>
<text text-anchor="middle" x="217" y="-311.5" font-family="Helvetica,sans-Serif" font-size="10.00">matrix_input</text>
</a>
</g>
</g>
<!-- Node9&#45;&gt;Node17 -->
<g id="edge17" class="edge"><title>Node9&#45;&gt;Node17</title>
<path fill="none" stroke="midnightblue" d="M147.721,-300.556C158.424,-302.664 170.727,-305.086 181.914,-307.289"/>
<polygon fill="midnightblue" stroke="midnightblue" points="148.139,-297.072 137.651,-298.574 146.786,-303.94 148.139,-297.072"/>
</g>
<!-- Node18 -->
<g id="node18" class="node"><title>Node18</title>
<g id="a_node18"><a xlink:href="classnumber__input.html" target="_top" xlink:title="This convience class allows easy creation of an input with type=&quot;number&quot;. ">
<polygon fill="white" stroke="black" points="179.5,-266.5 179.5,-285.5 254.5,-285.5 254.5,-266.5 179.5,-266.5"/>
<text text-anchor="middle" x="217" y="-273.5" font-family="Helvetica,sans-Serif" font-size="10.00">number_input</text>
</a>
</g>
</g>
<!-- Node9&#45;&gt;Node18 -->
<g id="edge18" class="edge"><title>Node9&#45;&gt;Node18</title>
<path fill="none" stroke="midnightblue" d="M147.692,-289.449C157.526,-287.513 168.713,-285.31 179.145,-283.256"/>
<polygon fill="midnightblue" stroke="midnightblue" points="146.786,-286.06 137.651,-291.426 148.139,-292.928 146.786,-286.06"/>
</g>
<!-- Node19 -->
<g id="node19" class="node"><title>Node19</title>
<g id="a_node19"><a xlink:href="classpassword__input.html" target="_top" xlink:title="password_input">
<polygon fill="white" stroke="black" points="175,-228.5 175,-247.5 259,-247.5 259,-228.5 175,-228.5"/>
<text text-anchor="middle" x="217" y="-235.5" font-family="Helvetica,sans-Serif" font-size="10.00">password_input</text>
</a>
</g>
</g>
<!-- Node9&#45;&gt;Node19 -->
<g id="edge19" class="edge"><title>Node9&#45;&gt;Node19</title>
<path fill="none" stroke="midnightblue" d="M140.573,-279.348C150.723,-272.13 163.224,-263.698 175,-257 180.865,-253.664 187.416,-250.425 193.531,-247.595"/>
<polygon fill="midnightblue" stroke="midnightblue" points="138.387,-276.609 132.335,-285.305 142.489,-282.281 138.387,-276.609"/>
</g>
<!-- Node20 -->
<g id="node20" class="node"><title>Node20</title>
<g id="a_node20"><a xlink:href="classrange__input.html" target="_top" xlink:title="Represents a slider element, an input with type=&quot;range&quot;. ">
<polygon fill="white" stroke="black" points="183.5,-190.5 183.5,-209.5 250.5,-209.5 250.5,-190.5 183.5,-190.5"/>
<text text-anchor="middle" x="217" y="-197.5" font-family="Helvetica,sans-Serif" font-size="10.00">range_input</text>
</a>
</g>
</g>
<!-- Node9&#45;&gt;Node20 -->
<g id="edge20" class="edge"><title>Node9&#45;&gt;Node20</title>
<path fill="none" stroke="midnightblue" d="M129.366,-276.502C139.103,-259.687 155.359,-235.111 175,-219 179.489,-215.318 184.808,-212.177 190.103,-209.572"/>
<polygon fill="midnightblue" stroke="midnightblue" points="126.227,-274.946 124.409,-285.384 132.339,-278.357 126.227,-274.946"/>
</g>
<!-- Node21 -->
<g id="node21" class="node"><title>Node21</title>
<g id="a_node21"><a xlink:href="classtel__input.html" target="_top" xlink:title="This represents a telephone number input, has regex sanitization and validation to ensure valid forma...">
<polygon fill="white" stroke="black" points="190.5,-152.5 190.5,-171.5 243.5,-171.5 243.5,-152.5 190.5,-152.5"/>
<text text-anchor="middle" x="217" y="-159.5" font-family="Helvetica,sans-Serif" font-size="10.00">tel_input</text>
</a>
</g>
</g>
<!-- Node9&#45;&gt;Node21 -->
<g id="edge21" class="edge"><title>Node9&#45;&gt;Node21</title>
<path fill="none" stroke="midnightblue" d="M124.492,-275.754C131.805,-250.957 147.625,-207.857 175,-181 179.368,-176.715 184.881,-173.277 190.435,-170.568"/>
<polygon fill="midnightblue" stroke="midnightblue" points="121.103,-274.875 121.794,-285.447 127.847,-276.752 121.103,-274.875"/>
</g>
<!-- Node22 -->
<g id="node22" class="node"><title>Node22</title>
<g id="a_node22"><a xlink:href="classtext__input.html" target="_top" xlink:title="convience function for creating text inputs ">
<polygon fill="white" stroke="black" points="187.5,-114.5 187.5,-133.5 246.5,-133.5 246.5,-114.5 187.5,-114.5"/>
<text text-anchor="middle" x="217" y="-121.5" font-family="Helvetica,sans-Serif" font-size="10.00">text_input</text>
</a>
</g>
</g>
<!-- Node9&#45;&gt;Node22 -->
<g id="edge22" class="edge"><title>Node9&#45;&gt;Node22</title>
<path fill="none" stroke="midnightblue" d="M121.871,-274.909C126.596,-243.169 139.945,-181.125 175,-143 178.505,-139.188 182.927,-136.079 187.562,-133.564"/>
<polygon fill="midnightblue" stroke="midnightblue" points="118.36,-274.753 120.496,-285.131 125.298,-275.686 118.36,-274.753"/>
</g>
<!-- Node23 -->
<g id="node23" class="node"><title>Node23</title>
<g id="a_node23"><a xlink:href="classtextarea.html" target="_top" xlink:title="Descibes a textarea, it&#39;s sanitzation and validation. ">
<polygon fill="white" stroke="black" points="191,-76.5 191,-95.5 243,-95.5 243,-76.5 191,-76.5"/>
<text text-anchor="middle" x="217" y="-83.5" font-family="Helvetica,sans-Serif" font-size="10.00">textarea</text>
</a>
</g>
</g>
<!-- Node9&#45;&gt;Node23 -->
<g id="edge23" class="edge"><title>Node9&#45;&gt;Node23</title>
<path fill="none" stroke="midnightblue" d="M120.069,-275.296C122.161,-237.763 131.735,-155.283 175,-105 179.196,-100.124 184.91,-96.4217 190.74,-93.6423"/>
<polygon fill="midnightblue" stroke="midnightblue" points="116.567,-275.273 119.631,-285.415 123.56,-275.576 116.567,-275.273"/>
</g>
<!-- Node25 -->
<g id="node25" class="node"><title>Node25</title>
<g id="a_node25"><a xlink:href="classtime__input.html" target="_top" xlink:title="This convience class creates a date input. ">
<polygon fill="white" stroke="black" points="186,-38.5 186,-57.5 248,-57.5 248,-38.5 186,-38.5"/>
<text text-anchor="middle" x="217" y="-45.5" font-family="Helvetica,sans-Serif" font-size="10.00">time_input</text>
</a>
</g>
</g>
<!-- Node9&#45;&gt;Node25 -->
<g id="edge25" class="edge"><title>Node9&#45;&gt;Node25</title>
<path fill="none" stroke="midnightblue" d="M118.873,-275.295C118.556,-232.433 123.59,-129.568 175,-67 178.088,-63.2419 182.085,-60.1896 186.37,-57.7218"/>
<polygon fill="midnightblue" stroke="midnightblue" points="115.378,-275.561 119.064,-285.493 122.376,-275.43 115.378,-275.561"/>
</g>
<!-- Node26 -->
<g id="node26" class="node"><title>Node26</title>
<g id="a_node26"><a xlink:href="classzip__input.html" target="_top" xlink:title="This convience class creates a text input with validation for long or short form US zip codes...">
<polygon fill="white" stroke="black" points="189,-0.5 189,-19.5 245,-19.5 245,-0.5 189,-0.5"/>
<text text-anchor="middle" x="217" y="-7.5" font-family="Helvetica,sans-Serif" font-size="10.00">zip_input</text>
</a>
</g>
</g>
<!-- Node9&#45;&gt;Node26 -->
<g id="edge26" class="edge"><title>Node9&#45;&gt;Node26</title>
<path fill="none" stroke="midnightblue" d="M121.351,-275.028C126.807,-219.969 144.388,-67.5388 175,-29 178.611,-24.4541 183.56,-20.9488 188.772,-18.2622"/>
<polygon fill="midnightblue" stroke="midnightblue" points="117.844,-274.934 120.371,-285.223 124.812,-275.604 117.844,-274.934"/>
</g>
<!-- Node15 -->
<g id="node15" class="node"><title>Node15</title>
<g id="a_node15"><a xlink:href="classget__input.html" target="_top" xlink:title="An hidden_input that reads its value from the $_GET global array on creation. ">
<polygon fill="white" stroke="black" points="295.5,-380.5 295.5,-399.5 351.5,-399.5 351.5,-380.5 295.5,-380.5"/>
<text text-anchor="middle" x="323.5" y="-387.5" font-family="Helvetica,sans-Serif" font-size="10.00">get_input</text>
</a>
</g>
</g>
<!-- Node14&#45;&gt;Node15 -->
<g id="edge15" class="edge"><title>Node14&#45;&gt;Node15</title>
<path fill="none" stroke="midnightblue" d="M262.542,-390C273.681,-390 285.298,-390 295.307,-390"/>
<polygon fill="midnightblue" stroke="midnightblue" points="262.507,-386.5 252.507,-390 262.507,-393.5 262.507,-386.5"/>
</g>
<!-- Node24 -->
<g id="node24" class="node"><title>Node24</title>
<g id="a_node24"><a xlink:href="classtexteditor.html" target="_top" xlink:title="This is a form element wrapping the testarea with javascript to turn it into a rich text editor...">
<polygon fill="white" stroke="black" points="295,-76.5 295,-95.5 352,-95.5 352,-76.5 295,-76.5"/>
<text text-anchor="middle" x="323.5" y="-83.5" font-family="Helvetica,sans-Serif" font-size="10.00">texteditor</text>
</a>
</g>
</g>
<!-- Node23&#45;&gt;Node24 -->
<g id="edge24" class="edge"><title>Node23&#45;&gt;Node24</title>
<path fill="none" stroke="midnightblue" d="M253.407,-86C266.893,-86 282.055,-86 294.733,-86"/>
<polygon fill="midnightblue" stroke="midnightblue" points="253.03,-82.5001 243.03,-86 253.03,-89.5001 253.03,-82.5001"/>
</g>
<!-- Node27 -->
<g id="node27" class="node"><title>Node27</title>
<g id="a_node27"><a xlink:href="interfaceobservable.html" target="_top" xlink:title="Describes objects that are able to be observed by observer objects. ">
<polygon fill="white" stroke="black" points="0,-608.5 0,-627.5 62,-627.5 62,-608.5 0,-608.5"/>
<text text-anchor="middle" x="31" y="-615.5" font-family="Helvetica,sans-Serif" font-size="10.00">observable</text>
</a>
</g>
</g>
<!-- Node27&#45;&gt;Node5 -->
<g id="edge27" class="edge"><title>Node27&#45;&gt;Node5</title>
<path fill="none" stroke="midnightblue" d="M72.5842,-618C81.3974,-618 90.3337,-618 97.8896,-618"/>
<polygon fill="midnightblue" stroke="midnightblue" points="72.3849,-614.5 62.3848,-618 72.3848,-621.5 72.3849,-614.5"/>
</g>
</g>
</svg>
