<?xml version="1.0" encoding="UTF-8" standalone="no"?>
<!DOCTYPE svg PUBLIC "-//W3C//DTD SVG 1.1//EN"
 "http://www.w3.org/Graphics/SVG/1.1/DTD/svg11.dtd">
<!-- Generated by graphviz version 2.38.0 (20140413.2041)
 -->
<!-- Title: field Pages: 1 -->
<svg width="1941pt" height="777pt"
 viewBox="0.00 0.00 1941.00 777.00" xmlns="http://www.w3.org/2000/svg" xmlns:xlink="http://www.w3.org/1999/xlink">
<g id="graph0" class="graph" transform="scale(1 1) rotate(0) translate(4 773)">
<title>field</title>
<polygon fill="white" stroke="none" points="-4,4 -4,-773 1937,-773 1937,4 -4,4"/>
<!-- Node1 -->
<g id="node1" class="node"><title>Node1</title>
<polygon fill="#bfbfbf" stroke="black" points="621.5,-656.5 621.5,-768.5 705.5,-768.5 705.5,-656.5 621.5,-656.5"/>
<text text-anchor="middle" x="663.5" y="-756.5" font-family="Helvetica,sans-Serif" font-size="10.00">field</text>
<polyline fill="none" stroke="black" points="621.5,-749.5 705.5,-749.5 "/>
<text text-anchor="middle" x="663.5" y="-737.5" font-family="Helvetica,sans-Serif" font-size="10.00"> </text>
<polyline fill="none" stroke="black" points="621.5,-730.5 705.5,-730.5 "/>
<text text-anchor="start" x="629.5" y="-718.5" font-family="Helvetica,sans-Serif" font-size="10.00">+ values()</text>
<text text-anchor="start" x="629.5" y="-707.5" font-family="Helvetica,sans-Serif" font-size="10.00">+ form()</text>
<text text-anchor="start" x="629.5" y="-696.5" font-family="Helvetica,sans-Serif" font-size="10.00">+ validate()</text>
<text text-anchor="start" x="629.5" y="-685.5" font-family="Helvetica,sans-Serif" font-size="10.00">+ sanitize()</text>
<text text-anchor="start" x="629.5" y="-674.5" font-family="Helvetica,sans-Serif" font-size="10.00">+ display()</text>
<text text-anchor="start" x="629.5" y="-663.5" font-family="Helvetica,sans-Serif" font-size="10.00">+ display_text()</text>
</g>
<!-- Node2 -->
<g id="node2" class="node"><title>Node2</title>
<g id="a_node2"><a xlink:href="classforms.html" target="_top" xlink:title="This class describes an HTML form, containing a collection of inputs, and does mass validation and sa...">
<polygon fill="white" stroke="black" points="186.5,-342.5 186.5,-619.5 290.5,-619.5 290.5,-342.5 186.5,-342.5"/>
<text text-anchor="middle" x="238.5" y="-607.5" font-family="Helvetica,sans-Serif" font-size="10.00">forms</text>
<polyline fill="none" stroke="black" points="186.5,-600.5 290.5,-600.5 "/>
<text text-anchor="start" x="194.5" y="-588.5" font-family="Helvetica,sans-Serif" font-size="10.00">+ $name</text>
<text text-anchor="start" x="194.5" y="-577.5" font-family="Helvetica,sans-Serif" font-size="10.00">+ $id</text>
<text text-anchor="start" x="194.5" y="-566.5" font-family="Helvetica,sans-Serif" font-size="10.00">+ $pre</text>
<text text-anchor="start" x="194.5" y="-555.5" font-family="Helvetica,sans-Serif" font-size="10.00">+ $fields</text>
<text text-anchor="start" x="194.5" y="-544.5" font-family="Helvetica,sans-Serif" font-size="10.00">+ $observers</text>
<text text-anchor="start" x="194.5" y="-533.5" font-family="Helvetica,sans-Serif" font-size="10.00">+ $nonce</text>
<text text-anchor="start" x="194.5" y="-522.5" font-family="Helvetica,sans-Serif" font-size="10.00">+ $before_input</text>
<text text-anchor="start" x="194.5" y="-511.5" font-family="Helvetica,sans-Serif" font-size="10.00">+ $after_input</text>
<text text-anchor="start" x="194.5" y="-500.5" font-family="Helvetica,sans-Serif" font-size="10.00">+ $before_form</text>
<text text-anchor="start" x="194.5" y="-489.5" font-family="Helvetica,sans-Serif" font-size="10.00">+ $after_form</text>
<polyline fill="none" stroke="black" points="186.5,-482.5 290.5,-482.5 "/>
<text text-anchor="start" x="194.5" y="-470.5" font-family="Helvetica,sans-Serif" font-size="10.00">+ __construct()</text>
<text text-anchor="start" x="194.5" y="-459.5" font-family="Helvetica,sans-Serif" font-size="10.00">+ form()</text>
<text text-anchor="start" x="194.5" y="-448.5" font-family="Helvetica,sans-Serif" font-size="10.00">+ sanitize()</text>
<text text-anchor="start" x="194.5" y="-437.5" font-family="Helvetica,sans-Serif" font-size="10.00">+ display()</text>
<text text-anchor="start" x="194.5" y="-426.5" font-family="Helvetica,sans-Serif" font-size="10.00">+ display_text()</text>
<text text-anchor="start" x="194.5" y="-415.5" font-family="Helvetica,sans-Serif" font-size="10.00">+ validate()</text>
<text text-anchor="start" x="194.5" y="-404.5" font-family="Helvetica,sans-Serif" font-size="10.00">+ add_field()</text>
<text text-anchor="start" x="194.5" y="-393.5" font-family="Helvetica,sans-Serif" font-size="10.00">+ values()</text>
<text text-anchor="start" x="194.5" y="-382.5" font-family="Helvetica,sans-Serif" font-size="10.00">+ get_value()</text>
<text text-anchor="start" x="194.5" y="-371.5" font-family="Helvetica,sans-Serif" font-size="10.00">+ notify()</text>
<text text-anchor="start" x="194.5" y="-360.5" font-family="Helvetica,sans-Serif" font-size="10.00">+ add_observer()</text>
<text text-anchor="start" x="194.5" y="-349.5" font-family="Helvetica,sans-Serif" font-size="10.00">+ remove_observer()</text>
</a>
</g>
</g>
<!-- Node1&#45;&gt;Node2 -->
<g id="edge1" class="edge"><title>Node1&#45;&gt;Node2</title>
<path fill="none" stroke="midnightblue" d="M612.131,-683.761C530.706,-639.791 372.851,-554.549 290.83,-510.258"/>
<polygon fill="none" stroke="midnightblue" points="610.733,-686.984 621.196,-688.656 614.06,-680.824 610.733,-686.984"/>
</g>
<!-- Node8 -->
<g id="node8" class="node"><title>Node8</title>
<g id="a_node8"><a xlink:href="classinput.html" target="_top" xlink:title="The class input describes a form element, it&#39;s attributes and how it is validated and sanitized...">
<polygon fill="white" stroke="black" points="1047.5,-342.5 1047.5,-619.5 1131.5,-619.5 1131.5,-342.5 1047.5,-342.5"/>
<text text-anchor="middle" x="1089.5" y="-607.5" font-family="Helvetica,sans-Serif" font-size="10.00">input</text>
<polyline fill="none" stroke="black" points="1047.5,-600.5 1131.5,-600.5 "/>
<text text-anchor="start" x="1055.5" y="-588.5" font-family="Helvetica,sans-Serif" font-size="10.00">+ $label_text</text>
<text text-anchor="start" x="1055.5" y="-577.5" font-family="Helvetica,sans-Serif" font-size="10.00">+ $name</text>
<text text-anchor="start" x="1055.5" y="-566.5" font-family="Helvetica,sans-Serif" font-size="10.00">+ $type</text>
<text text-anchor="start" x="1055.5" y="-555.5" font-family="Helvetica,sans-Serif" font-size="10.00">+ $value</text>
<text text-anchor="start" x="1055.5" y="-544.5" font-family="Helvetica,sans-Serif" font-size="10.00">+ $min</text>
<text text-anchor="start" x="1055.5" y="-533.5" font-family="Helvetica,sans-Serif" font-size="10.00">+ $max</text>
<text text-anchor="start" x="1055.5" y="-522.5" font-family="Helvetica,sans-Serif" font-size="10.00">+ $maxlength</text>
<text text-anchor="start" x="1055.5" y="-511.5" font-family="Helvetica,sans-Serif" font-size="10.00">+ $pattern</text>
<text text-anchor="start" x="1055.5" y="-500.5" font-family="Helvetica,sans-Serif" font-size="10.00">+ $required</text>
<text text-anchor="start" x="1055.5" y="-489.5" font-family="Helvetica,sans-Serif" font-size="10.00">+ $placeholder</text>
<text text-anchor="start" x="1055.5" y="-478.5" font-family="Helvetica,sans-Serif" font-size="10.00">+ $sanity_func</text>
<text text-anchor="start" x="1055.5" y="-467.5" font-family="Helvetica,sans-Serif" font-size="10.00">+ $valid_func</text>
<text text-anchor="start" x="1055.5" y="-456.5" font-family="Helvetica,sans-Serif" font-size="10.00">+ $attributes</text>
<polyline fill="none" stroke="black" points="1047.5,-449.5 1131.5,-449.5 "/>
<text text-anchor="start" x="1055.5" y="-437.5" font-family="Helvetica,sans-Serif" font-size="10.00">+ __construct()</text>
<text text-anchor="start" x="1055.5" y="-426.5" font-family="Helvetica,sans-Serif" font-size="10.00">+ form()</text>
<text text-anchor="start" x="1055.5" y="-415.5" font-family="Helvetica,sans-Serif" font-size="10.00">+ display()</text>
<text text-anchor="start" x="1055.5" y="-404.5" font-family="Helvetica,sans-Serif" font-size="10.00">+ display_text()</text>
<text text-anchor="start" x="1055.5" y="-393.5" font-family="Helvetica,sans-Serif" font-size="10.00">+ sanitize()</text>
<text text-anchor="start" x="1055.5" y="-382.5" font-family="Helvetica,sans-Serif" font-size="10.00">+ validate()</text>
<text text-anchor="start" x="1055.5" y="-371.5" font-family="Helvetica,sans-Serif" font-size="10.00">+ get_value()</text>
<text text-anchor="start" x="1055.5" y="-360.5" font-family="Helvetica,sans-Serif" font-size="10.00">+ set_value()</text>
<text text-anchor="start" x="1055.5" y="-349.5" font-family="Helvetica,sans-Serif" font-size="10.00">+ values()</text>
</a>
</g>
</g>
<!-- Node1&#45;&gt;Node8 -->
<g id="edge7" class="edge"><title>Node1&#45;&gt;Node8</title>
<path fill="none" stroke="midnightblue" d="M714.466,-684.043C799.519,-638.222 968.806,-547.022 1047.49,-504.633"/>
<polygon fill="none" stroke="midnightblue" points="712.656,-681.042 705.512,-688.867 715.976,-687.205 712.656,-681.042"/>
</g>
<!-- Node3 -->
<g id="node3" class="node"><title>Node3</title>
<g id="a_node3"><a xlink:href="classbuilder__form.html" target="_top" xlink:title="This form build up a form by creating fields. ">
<polygon fill="white" stroke="black" points="0,-182.5 0,-261.5 83,-261.5 83,-182.5 0,-182.5"/>
<text text-anchor="middle" x="41.5" y="-249.5" font-family="Helvetica,sans-Serif" font-size="10.00">builder_form</text>
<polyline fill="none" stroke="black" points="0,-242.5 83,-242.5 "/>
<text text-anchor="middle" x="41.5" y="-230.5" font-family="Helvetica,sans-Serif" font-size="10.00"> </text>
<polyline fill="none" stroke="black" points="0,-223.5 83,-223.5 "/>
<text text-anchor="start" x="8" y="-211.5" font-family="Helvetica,sans-Serif" font-size="10.00">+ __construct()</text>
<text text-anchor="start" x="8" y="-200.5" font-family="Helvetica,sans-Serif" font-size="10.00">+ make_field()</text>
<text text-anchor="start" x="8" y="-189.5" font-family="Helvetica,sans-Serif" font-size="10.00">+ form()</text>
</a>
</g>
</g>
<!-- Node2&#45;&gt;Node3 -->
<g id="edge2" class="edge"><title>Node2&#45;&gt;Node3</title>
<path fill="none" stroke="midnightblue" d="M179.374,-414.224C151.82,-382.419 119.284,-343.158 92.5,-306 82.4128,-292.006 72.2675,-275.987 63.7117,-261.778"/>
<polygon fill="none" stroke="midnightblue" points="177.061,-416.897 186.266,-422.143 182.341,-412.302 177.061,-416.897"/>
</g>
<!-- Node4 -->
<g id="node4" class="node"><title>Node4</title>
<g id="a_node4"><a xlink:href="classcrud__form.html" target="_top" xlink:title="{crud_form\n||+ do_form()\l}">
<polygon fill="white" stroke="black" points="101.5,-193.5 101.5,-250.5 167.5,-250.5 167.5,-193.5 101.5,-193.5"/>
<text text-anchor="middle" x="134.5" y="-238.5" font-family="Helvetica,sans-Serif" font-size="10.00">crud_form</text>
<polyline fill="none" stroke="black" points="101.5,-231.5 167.5,-231.5 "/>
<text text-anchor="middle" x="134.5" y="-219.5" font-family="Helvetica,sans-Serif" font-size="10.00"> </text>
<polyline fill="none" stroke="black" points="101.5,-212.5 167.5,-212.5 "/>
<text text-anchor="start" x="109.5" y="-200.5" font-family="Helvetica,sans-Serif" font-size="10.00">+ do_form()</text>
</a>
</g>
</g>
<!-- Node2&#45;&gt;Node4 -->
<g id="edge3" class="edge"><title>Node2&#45;&gt;Node4</title>
<path fill="none" stroke="midnightblue" d="M182.584,-341.824C168.569,-307.19 154.936,-273.5 145.787,-250.892"/>
<polygon fill="none" stroke="midnightblue" points="179.352,-343.167 186.348,-351.124 185.841,-340.541 179.352,-343.167"/>
</g>
<!-- Node6 -->
<g id="node6" class="node"><title>Node6</title>
<g id="a_node6"><a xlink:href="classdatabase__form.html" target="_top" xlink:title="This class allows the both the structure and the data for this form to be written out to a database...">
<polygon fill="white" stroke="black" points="185.5,-138.5 185.5,-305.5 291.5,-305.5 291.5,-138.5 185.5,-138.5"/>
<text text-anchor="middle" x="238.5" y="-293.5" font-family="Helvetica,sans-Serif" font-size="10.00">database_form</text>
<polyline fill="none" stroke="black" points="185.5,-286.5 291.5,-286.5 "/>
<text text-anchor="middle" x="238.5" y="-274.5" font-family="Helvetica,sans-Serif" font-size="10.00"> </text>
<polyline fill="none" stroke="black" points="185.5,-267.5 291.5,-267.5 "/>
<text text-anchor="start" x="193.5" y="-255.5" font-family="Helvetica,sans-Serif" font-size="10.00">+ __construct()</text>
<text text-anchor="start" x="193.5" y="-244.5" font-family="Helvetica,sans-Serif" font-size="10.00">+ create_form()</text>
<text text-anchor="start" x="193.5" y="-233.5" font-family="Helvetica,sans-Serif" font-size="10.00">+ read_form()</text>
<text text-anchor="start" x="193.5" y="-222.5" font-family="Helvetica,sans-Serif" font-size="10.00">+ update_form()</text>
<text text-anchor="start" x="193.5" y="-211.5" font-family="Helvetica,sans-Serif" font-size="10.00">+ delete_form()</text>
<text text-anchor="start" x="193.5" y="-200.5" font-family="Helvetica,sans-Serif" font-size="10.00">+ create()</text>
<text text-anchor="start" x="193.5" y="-189.5" font-family="Helvetica,sans-Serif" font-size="10.00">+ read()</text>
<text text-anchor="start" x="193.5" y="-178.5" font-family="Helvetica,sans-Serif" font-size="10.00">+ update()</text>
<text text-anchor="start" x="193.5" y="-167.5" font-family="Helvetica,sans-Serif" font-size="10.00">+ delete()</text>
<text text-anchor="start" x="193.5" y="-156.5" font-family="Helvetica,sans-Serif" font-size="10.00">+ display_structure()</text>
<text text-anchor="start" x="193.5" y="-145.5" font-family="Helvetica,sans-Serif" font-size="10.00">+ display_table()</text>
</a>
</g>
</g>
<!-- Node2&#45;&gt;Node6 -->
<g id="edge5" class="edge"><title>Node2&#45;&gt;Node6</title>
<path fill="none" stroke="midnightblue" d="M238.5,-332.228C238.5,-323.195 238.5,-314.292 238.5,-305.703"/>
<polygon fill="none" stroke="midnightblue" points="235,-332.471 238.5,-342.471 242,-332.471 235,-332.471"/>
</g>
<!-- Node7 -->
<g id="node7" class="node"><title>Node7</title>
<g id="a_node7"><a xlink:href="classfile__form.html" target="_top" xlink:title="This class represents an HTML form, it&#39;s values, how it is validated and allows to read/write form da...">
<polygon fill="white" stroke="black" points="309.5,-160.5 309.5,-283.5 411.5,-283.5 411.5,-160.5 309.5,-160.5"/>
<text text-anchor="middle" x="360.5" y="-271.5" font-family="Helvetica,sans-Serif" font-size="10.00">file_form</text>
<polyline fill="none" stroke="black" points="309.5,-264.5 411.5,-264.5 "/>
<text text-anchor="middle" x="360.5" y="-252.5" font-family="Helvetica,sans-Serif" font-size="10.00"> </text>
<polyline fill="none" stroke="black" points="309.5,-245.5 411.5,-245.5 "/>
<text text-anchor="start" x="317.5" y="-233.5" font-family="Helvetica,sans-Serif" font-size="10.00">+ serialize_data()</text>
<text text-anchor="start" x="317.5" y="-222.5" font-family="Helvetica,sans-Serif" font-size="10.00">+ deserialize_data()</text>
<text text-anchor="start" x="317.5" y="-211.5" font-family="Helvetica,sans-Serif" font-size="10.00">+ save()</text>
<text text-anchor="start" x="317.5" y="-200.5" font-family="Helvetica,sans-Serif" font-size="10.00">+ create()</text>
<text text-anchor="start" x="317.5" y="-189.5" font-family="Helvetica,sans-Serif" font-size="10.00">+ read()</text>
<text text-anchor="start" x="317.5" y="-178.5" font-family="Helvetica,sans-Serif" font-size="10.00">+ update()</text>
<text text-anchor="start" x="317.5" y="-167.5" font-family="Helvetica,sans-Serif" font-size="10.00">+ delete()</text>
</a>
</g>
</g>
<!-- Node2&#45;&gt;Node7 -->
<g id="edge6" class="edge"><title>Node2&#45;&gt;Node7</title>
<path fill="none" stroke="midnightblue" d="M294.892,-361.208C307.607,-334.422 320.592,-307.07 331.617,-283.843"/>
<polygon fill="none" stroke="midnightblue" points="291.72,-359.729 290.593,-370.263 298.043,-362.731 291.72,-359.729"/>
</g>
<!-- Node5 -->
<g id="node5" class="node"><title>Node5</title>
<g id="a_node5"><a xlink:href="classdb__form.html" target="_top" xlink:title="Represents an HTML form, and saves form data in $db table named by the name attribue of this object...">
<polygon fill="white" stroke="black" points="96,-0.5 96,-101.5 173,-101.5 173,-0.5 96,-0.5"/>
<text text-anchor="middle" x="134.5" y="-89.5" font-family="Helvetica,sans-Serif" font-size="10.00">db_form</text>
<polyline fill="none" stroke="black" points="96,-82.5 173,-82.5 "/>
<text text-anchor="middle" x="134.5" y="-70.5" font-family="Helvetica,sans-Serif" font-size="10.00"> </text>
<polyline fill="none" stroke="black" points="96,-63.5 173,-63.5 "/>
<text text-anchor="start" x="104" y="-51.5" font-family="Helvetica,sans-Serif" font-size="10.00">+ create()</text>
<text text-anchor="start" x="104" y="-40.5" font-family="Helvetica,sans-Serif" font-size="10.00">+ read()</text>
<text text-anchor="start" x="104" y="-29.5" font-family="Helvetica,sans-Serif" font-size="10.00">+ update()</text>
<text text-anchor="start" x="104" y="-18.5" font-family="Helvetica,sans-Serif" font-size="10.00">+ delete()</text>
<text text-anchor="start" x="104" y="-7.5" font-family="Helvetica,sans-Serif" font-size="10.00">+ create_sql()</text>
</a>
</g>
</g>
<!-- Node4&#45;&gt;Node5 -->
<g id="edge4" class="edge"><title>Node4&#45;&gt;Node5</title>
<path fill="none" stroke="midnightblue" d="M134.5,-183.317C134.5,-159.257 134.5,-127.797 134.5,-101.702"/>
<polygon fill="none" stroke="midnightblue" points="131,-183.471 134.5,-193.471 138,-183.471 131,-183.471"/>
</g>
<!-- Node9 -->
<g id="node9" class="node"><title>Node9</title>
<g id="a_node9"><a xlink:href="classcolor__input.html" target="_top" xlink:title="This convience class creates a color input with validation and sanitization. ">
<polygon fill="white" stroke="black" points="430,-193.5 430,-250.5 513,-250.5 513,-193.5 430,-193.5"/>
<text text-anchor="middle" x="471.5" y="-238.5" font-family="Helvetica,sans-Serif" font-size="10.00">color_input</text>
<polyline fill="none" stroke="black" points="430,-231.5 513,-231.5 "/>
<text text-anchor="middle" x="471.5" y="-219.5" font-family="Helvetica,sans-Serif" font-size="10.00"> </text>
<polyline fill="none" stroke="black" points="430,-212.5 513,-212.5 "/>
<text text-anchor="start" x="438" y="-200.5" font-family="Helvetica,sans-Serif" font-size="10.00">+ __construct()</text>
</a>
</g>
</g>
<!-- Node8&#45;&gt;Node9 -->
<g id="edge8" class="edge"><title>Node8&#45;&gt;Node9</title>
<path fill="none" stroke="midnightblue" d="M1037.13,-476.34C929.683,-466.39 681.003,-430.543 521.5,-306 503.202,-291.713 490.102,-268.71 481.913,-250.54"/>
<polygon fill="none" stroke="midnightblue" points="1037.12,-479.853 1047.39,-477.251 1037.74,-472.88 1037.12,-479.853"/>
</g>
<!-- Node10 -->
<g id="node10" class="node"><title>Node10</title>
<g id="a_node10"><a xlink:href="classdatalist__input.html" target="_top" xlink:title="Adaptor to input class, adds a datalist. ">
<polygon fill="white" stroke="black" points="531,-160.5 531,-283.5 614,-283.5 614,-160.5 531,-160.5"/>
<text text-anchor="middle" x="572.5" y="-271.5" font-family="Helvetica,sans-Serif" font-size="10.00">datalist_input</text>
<polyline fill="none" stroke="black" points="531,-264.5 614,-264.5 "/>
<text text-anchor="middle" x="572.5" y="-252.5" font-family="Helvetica,sans-Serif" font-size="10.00"> </text>
<polyline fill="none" stroke="black" points="531,-245.5 614,-245.5 "/>
<text text-anchor="start" x="539" y="-233.5" font-family="Helvetica,sans-Serif" font-size="10.00">+ form()</text>
<text text-anchor="start" x="539" y="-222.5" font-family="Helvetica,sans-Serif" font-size="10.00">+ __construct()</text>
<text text-anchor="start" x="539" y="-211.5" font-family="Helvetica,sans-Serif" font-size="10.00">+ display()</text>
<text text-anchor="start" x="539" y="-200.5" font-family="Helvetica,sans-Serif" font-size="10.00">+ sanitize()</text>
<text text-anchor="start" x="539" y="-189.5" font-family="Helvetica,sans-Serif" font-size="10.00">+ validate()</text>
<text text-anchor="start" x="539" y="-178.5" font-family="Helvetica,sans-Serif" font-size="10.00">+ get_value()</text>
<text text-anchor="start" x="539" y="-167.5" font-family="Helvetica,sans-Serif" font-size="10.00">+ set_value()</text>
</a>
</g>
</g>
<!-- Node8&#45;&gt;Node10 -->
<g id="edge9" class="edge"><title>Node8&#45;&gt;Node10</title>
<path fill="none" stroke="midnightblue" d="M1037.44,-473.055C943.117,-457.589 742.307,-412.881 613.5,-306 605.862,-299.662 599.089,-291.837 593.298,-283.547"/>
<polygon fill="none" stroke="midnightblue" points="1036.89,-476.512 1047.32,-474.631 1037.99,-469.599 1036.89,-476.512"/>
</g>
<!-- Node8&#45;&gt;Node10 -->
<g id="edge10" class="edge"><title>Node8&#45;&gt;Node10</title>
<path fill="none" stroke="midnightblue" d="M1037.29,-471.158C945.915,-454.091 755.399,-408.807 631.5,-306 623.862,-299.662 617.089,-291.837 611.077,-283.547"/>
<polygon fill="none" stroke="midnightblue" points="1036.93,-474.651 1047.4,-473.007 1038.19,-467.765 1036.93,-474.651"/>
</g>
<!-- Node11 -->
<g id="node11" class="node"><title>Node11</title>
<g id="a_node11"><a xlink:href="classdate__input.html" target="_top" xlink:title="This convience class creates a date input. ">
<polygon fill="white" stroke="black" points="632,-193.5 632,-250.5 715,-250.5 715,-193.5 632,-193.5"/>
<text text-anchor="middle" x="673.5" y="-238.5" font-family="Helvetica,sans-Serif" font-size="10.00">date_input</text>
<polyline fill="none" stroke="black" points="632,-231.5 715,-231.5 "/>
<text text-anchor="middle" x="673.5" y="-219.5" font-family="Helvetica,sans-Serif" font-size="10.00"> </text>
<polyline fill="none" stroke="black" points="632,-212.5 715,-212.5 "/>
<text text-anchor="start" x="640" y="-200.5" font-family="Helvetica,sans-Serif" font-size="10.00">+ __construct()</text>
</a>
</g>
</g>
<!-- Node8&#45;&gt;Node11 -->
<g id="edge11" class="edge"><title>Node8&#45;&gt;Node11</title>
<path fill="none" stroke="midnightblue" d="M1037.51,-465.828C961.181,-442.879 817.679,-391.339 723.5,-306 706.671,-290.751 693.687,-268.503 685.172,-250.879"/>
<polygon fill="none" stroke="midnightblue" points="1036.79,-469.265 1047.37,-468.747 1038.78,-462.553 1036.79,-469.265"/>
</g>
<!-- Node12 -->
<g id="node12" class="node"><title>Node12</title>
<g id="a_node12"><a xlink:href="classemail__input.html" target="_top" xlink:title="{email_input\n||+ __construct()\l}">
<polygon fill="white" stroke="black" points="733,-193.5 733,-250.5 816,-250.5 816,-193.5 733,-193.5"/>
<text text-anchor="middle" x="774.5" y="-238.5" font-family="Helvetica,sans-Serif" font-size="10.00">email_input</text>
<polyline fill="none" stroke="black" points="733,-231.5 816,-231.5 "/>
<text text-anchor="middle" x="774.5" y="-219.5" font-family="Helvetica,sans-Serif" font-size="10.00"> </text>
<polyline fill="none" stroke="black" points="733,-212.5 816,-212.5 "/>
<text text-anchor="start" x="741" y="-200.5" font-family="Helvetica,sans-Serif" font-size="10.00">+ __construct()</text>
</a>
</g>
</g>
<!-- Node8&#45;&gt;Node12 -->
<g id="edge12" class="edge"><title>Node8&#45;&gt;Node12</title>
<path fill="none" stroke="midnightblue" d="M1038.32,-455.003C981.356,-425.339 888.996,-371.545 825.5,-306 809.849,-289.844 796.695,-268.072 787.668,-250.881"/>
<polygon fill="none" stroke="midnightblue" points="1037,-458.26 1047.49,-459.731 1040.2,-452.038 1037,-458.26"/>
</g>
<!-- Node13 -->
<g id="node13" class="node"><title>Node13</title>
<g id="a_node13"><a xlink:href="classhidden__input.html" target="_top" xlink:title="The class hidden_input describes a form element, it&#39;s attributes and how it is validated and sanitize...">
<polygon fill="white" stroke="black" points="834.5,-182.5 834.5,-261.5 920.5,-261.5 920.5,-182.5 834.5,-182.5"/>
<text text-anchor="middle" x="877.5" y="-249.5" font-family="Helvetica,sans-Serif" font-size="10.00">hidden_input</text>
<polyline fill="none" stroke="black" points="834.5,-242.5 920.5,-242.5 "/>
<text text-anchor="middle" x="877.5" y="-230.5" font-family="Helvetica,sans-Serif" font-size="10.00"> </text>
<polyline fill="none" stroke="black" points="834.5,-223.5 920.5,-223.5 "/>
<text text-anchor="start" x="842.5" y="-211.5" font-family="Helvetica,sans-Serif" font-size="10.00">+ hidden_input()</text>
<text text-anchor="start" x="842.5" y="-200.5" font-family="Helvetica,sans-Serif" font-size="10.00">+ form()</text>
<text text-anchor="start" x="842.5" y="-189.5" font-family="Helvetica,sans-Serif" font-size="10.00">+ display()</text>
</a>
</g>
</g>
<!-- Node8&#45;&gt;Node13 -->
<g id="edge13" class="edge"><title>Node8&#45;&gt;Node13</title>
<path fill="none" stroke="midnightblue" d="M1040.12,-431.234C1007.1,-397.48 963.629,-350.746 929.5,-306 918.878,-292.074 908.386,-275.918 899.638,-261.581"/>
<polygon fill="none" stroke="midnightblue" points="1037.92,-433.986 1047.42,-438.664 1042.91,-429.079 1037.92,-433.986"/>
</g>
<!-- Node15 -->
<g id="node15" class="node"><title>Node15</title>
<g id="a_node15"><a xlink:href="classinput__group.html" target="_top" xlink:title="Defines a group of related inputs like raido buttons or checkboxes that have the same name...">
<polygon fill="white" stroke="black" points="938.5,-160.5 938.5,-283.5 1022.5,-283.5 1022.5,-160.5 938.5,-160.5"/>
<text text-anchor="middle" x="980.5" y="-271.5" font-family="Helvetica,sans-Serif" font-size="10.00">input_group</text>
<polyline fill="none" stroke="black" points="938.5,-264.5 1022.5,-264.5 "/>
<text text-anchor="start" x="946.5" y="-252.5" font-family="Helvetica,sans-Serif" font-size="10.00">+ $value_list</text>
<polyline fill="none" stroke="black" points="938.5,-245.5 1022.5,-245.5 "/>
<text text-anchor="start" x="946.5" y="-233.5" font-family="Helvetica,sans-Serif" font-size="10.00">+ input_group()</text>
<text text-anchor="start" x="946.5" y="-222.5" font-family="Helvetica,sans-Serif" font-size="10.00">+ form()</text>
<text text-anchor="start" x="946.5" y="-211.5" font-family="Helvetica,sans-Serif" font-size="10.00">+ values()</text>
<text text-anchor="start" x="946.5" y="-200.5" font-family="Helvetica,sans-Serif" font-size="10.00">+ display()</text>
<text text-anchor="start" x="946.5" y="-189.5" font-family="Helvetica,sans-Serif" font-size="10.00">+ display_text()</text>
<text text-anchor="start" x="946.5" y="-178.5" font-family="Helvetica,sans-Serif" font-size="10.00">+ sanitize()</text>
<text text-anchor="start" x="946.5" y="-167.5" font-family="Helvetica,sans-Serif" font-size="10.00">+ validate()</text>
</a>
</g>
</g>
<!-- Node8&#45;&gt;Node15 -->
<g id="edge15" class="edge"><title>Node8&#45;&gt;Node15</title>
<path fill="none" stroke="midnightblue" d="M1043.44,-371.398C1030.74,-341.451 1017.41,-310.026 1006.31,-283.843"/>
<polygon fill="none" stroke="midnightblue" points="1040.23,-372.797 1047.36,-380.637 1046.68,-370.064 1040.23,-372.797"/>
</g>
<!-- Node16 -->
<g id="node16" class="node"><title>Node16</title>
<g id="a_node16"><a xlink:href="classmatrix__input.html" target="_top" xlink:title="This class represents a matrix_input. ">
<polygon fill="white" stroke="black" points="1040.5,-171.5 1040.5,-272.5 1138.5,-272.5 1138.5,-171.5 1040.5,-171.5"/>
<text text-anchor="middle" x="1089.5" y="-260.5" font-family="Helvetica,sans-Serif" font-size="10.00">matrix_input</text>
<polyline fill="none" stroke="black" points="1040.5,-253.5 1138.5,-253.5 "/>
<text text-anchor="start" x="1048.5" y="-241.5" font-family="Helvetica,sans-Serif" font-size="10.00">+ $table_attributes</text>
<text text-anchor="start" x="1048.5" y="-230.5" font-family="Helvetica,sans-Serif" font-size="10.00">+ $before_table</text>
<text text-anchor="start" x="1048.5" y="-219.5" font-family="Helvetica,sans-Serif" font-size="10.00">+ $after_table</text>
<polyline fill="none" stroke="black" points="1040.5,-212.5 1138.5,-212.5 "/>
<text text-anchor="start" x="1048.5" y="-200.5" font-family="Helvetica,sans-Serif" font-size="10.00">+ __construct()</text>
<text text-anchor="start" x="1048.5" y="-189.5" font-family="Helvetica,sans-Serif" font-size="10.00">+ form()</text>
<text text-anchor="start" x="1048.5" y="-178.5" font-family="Helvetica,sans-Serif" font-size="10.00">+ values()</text>
</a>
</g>
</g>
<!-- Node8&#45;&gt;Node16 -->
<g id="edge16" class="edge"><title>Node8&#45;&gt;Node16</title>
<path fill="none" stroke="midnightblue" d="M1089.5,-332.228C1089.5,-310.763 1089.5,-290.032 1089.5,-272.505"/>
<polygon fill="none" stroke="midnightblue" points="1086,-332.471 1089.5,-342.471 1093,-332.471 1086,-332.471"/>
</g>
<!-- Node17 -->
<g id="node17" class="node"><title>Node17</title>
<g id="a_node17"><a xlink:href="classnumber__input.html" target="_top" xlink:title="This convience class allows easy creation of an input with type=&quot;number&quot;. ">
<polygon fill="white" stroke="black" points="1157,-182.5 1157,-261.5 1240,-261.5 1240,-182.5 1157,-182.5"/>
<text text-anchor="middle" x="1198.5" y="-249.5" font-family="Helvetica,sans-Serif" font-size="10.00">number_input</text>
<polyline fill="none" stroke="black" points="1157,-242.5 1240,-242.5 "/>
<text text-anchor="middle" x="1198.5" y="-230.5" font-family="Helvetica,sans-Serif" font-size="10.00"> </text>
<polyline fill="none" stroke="black" points="1157,-223.5 1240,-223.5 "/>
<text text-anchor="start" x="1165" y="-211.5" font-family="Helvetica,sans-Serif" font-size="10.00">+ __construct()</text>
<text text-anchor="start" x="1165" y="-200.5" font-family="Helvetica,sans-Serif" font-size="10.00">+ get_value()</text>
<text text-anchor="start" x="1165" y="-189.5" font-family="Helvetica,sans-Serif" font-size="10.00">+ set_value()</text>
</a>
</g>
</g>
<!-- Node8&#45;&gt;Node17 -->
<g id="edge17" class="edge"><title>Node8&#45;&gt;Node17</title>
<path fill="none" stroke="midnightblue" d="M1135.59,-371.328C1152.11,-332.388 1169.68,-290.96 1182.04,-261.813"/>
<polygon fill="none" stroke="midnightblue" points="1132.32,-370.064 1131.64,-380.637 1138.77,-372.797 1132.32,-370.064"/>
</g>
<!-- Node18 -->
<g id="node18" class="node"><title>Node18</title>
<g id="a_node18"><a xlink:href="classpassword__input.html" target="_top" xlink:title="{password_input\n||+ __construct()\l}">
<polygon fill="white" stroke="black" points="1258.5,-193.5 1258.5,-250.5 1342.5,-250.5 1342.5,-193.5 1258.5,-193.5"/>
<text text-anchor="middle" x="1300.5" y="-238.5" font-family="Helvetica,sans-Serif" font-size="10.00">password_input</text>
<polyline fill="none" stroke="black" points="1258.5,-231.5 1342.5,-231.5 "/>
<text text-anchor="middle" x="1300.5" y="-219.5" font-family="Helvetica,sans-Serif" font-size="10.00"> </text>
<polyline fill="none" stroke="black" points="1258.5,-212.5 1342.5,-212.5 "/>
<text text-anchor="start" x="1266.5" y="-200.5" font-family="Helvetica,sans-Serif" font-size="10.00">+ __construct()</text>
</a>
</g>
</g>
<!-- Node8&#45;&gt;Node18 -->
<g id="edge18" class="edge"><title>Node8&#45;&gt;Node18</title>
<path fill="none" stroke="midnightblue" d="M1138.88,-430.842C1171.63,-397.094 1214.65,-350.519 1248.5,-306 1261.88,-288.403 1275.08,-267.274 1284.83,-250.739"/>
<polygon fill="none" stroke="midnightblue" points="1136.11,-428.67 1131.63,-438.273 1141.12,-433.558 1136.11,-428.67"/>
</g>
<!-- Node19 -->
<g id="node19" class="node"><title>Node19</title>
<g id="a_node19"><a xlink:href="classrange__input.html" target="_top" xlink:title="Represents a slider element, an input with type=&quot;range&quot;. ">
<polygon fill="white" stroke="black" points="1361,-188 1361,-256 1444,-256 1444,-188 1361,-188"/>
<text text-anchor="middle" x="1402.5" y="-244" font-family="Helvetica,sans-Serif" font-size="10.00">range_input</text>
<polyline fill="none" stroke="black" points="1361,-237 1444,-237 "/>
<text text-anchor="start" x="1369" y="-225" font-family="Helvetica,sans-Serif" font-size="10.00">+ $step</text>
<polyline fill="none" stroke="black" points="1361,-218 1444,-218 "/>
<text text-anchor="start" x="1369" y="-206" font-family="Helvetica,sans-Serif" font-size="10.00">+ __construct()</text>
<text text-anchor="start" x="1369" y="-195" font-family="Helvetica,sans-Serif" font-size="10.00">+ form()</text>
</a>
</g>
</g>
<!-- Node8&#45;&gt;Node19 -->
<g id="edge19" class="edge"><title>Node8&#45;&gt;Node19</title>
<path fill="none" stroke="midnightblue" d="M1140.77,-454.661C1197.32,-424.867 1288.63,-371.123 1351.5,-306 1365.6,-291.398 1377.68,-272.249 1386.55,-256.023"/>
<polygon fill="none" stroke="midnightblue" points="1138.91,-451.685 1131.66,-459.412 1142.14,-457.892 1138.91,-451.685"/>
</g>
<!-- Node20 -->
<g id="node20" class="node"><title>Node20</title>
<g id="a_node20"><a xlink:href="classtel__input.html" target="_top" xlink:title="This represents a telephone number input, has regex sanitization and validation to ensure valid forma...">
<polygon fill="white" stroke="black" points="1462,-193.5 1462,-250.5 1545,-250.5 1545,-193.5 1462,-193.5"/>
<text text-anchor="middle" x="1503.5" y="-238.5" font-family="Helvetica,sans-Serif" font-size="10.00">tel_input</text>
<polyline fill="none" stroke="black" points="1462,-231.5 1545,-231.5 "/>
<text text-anchor="middle" x="1503.5" y="-219.5" font-family="Helvetica,sans-Serif" font-size="10.00"> </text>
<polyline fill="none" stroke="black" points="1462,-212.5 1545,-212.5 "/>
<text text-anchor="start" x="1470" y="-200.5" font-family="Helvetica,sans-Serif" font-size="10.00">+ __construct()</text>
</a>
</g>
</g>
<!-- Node8&#45;&gt;Node20 -->
<g id="edge20" class="edge"><title>Node8&#45;&gt;Node20</title>
<path fill="none" stroke="midnightblue" d="M1141.57,-465.427C1217.3,-442.114 1358.96,-390.283 1452.5,-306 1469.46,-290.716 1482.72,-268.471 1491.46,-250.856"/>
<polygon fill="none" stroke="midnightblue" points="1140.33,-462.144 1131.78,-468.395 1142.36,-468.843 1140.33,-462.144"/>
</g>
<!-- Node21 -->
<g id="node21" class="node"><title>Node21</title>
<g id="a_node21"><a xlink:href="classtext__input.html" target="_top" xlink:title="convience function for creating text inputs ">
<polygon fill="white" stroke="black" points="1563,-193.5 1563,-250.5 1646,-250.5 1646,-193.5 1563,-193.5"/>
<text text-anchor="middle" x="1604.5" y="-238.5" font-family="Helvetica,sans-Serif" font-size="10.00">text_input</text>
<polyline fill="none" stroke="black" points="1563,-231.5 1646,-231.5 "/>
<text text-anchor="middle" x="1604.5" y="-219.5" font-family="Helvetica,sans-Serif" font-size="10.00"> </text>
<polyline fill="none" stroke="black" points="1563,-212.5 1646,-212.5 "/>
<text text-anchor="start" x="1571" y="-200.5" font-family="Helvetica,sans-Serif" font-size="10.00">+ __construct()</text>
</a>
</g>
</g>
<!-- Node8&#45;&gt;Node21 -->
<g id="edge21" class="edge"><title>Node8&#45;&gt;Node21</title>
<path fill="none" stroke="midnightblue" d="M1141.49,-471.903C1233.6,-455.279 1427.59,-409.765 1553.5,-306 1571.38,-291.264 1584.73,-268.529 1593.28,-250.578"/>
<polygon fill="none" stroke="midnightblue" points="1140.81,-468.469 1131.57,-473.653 1142.02,-475.363 1140.81,-468.469"/>
</g>
<!-- Node22 -->
<g id="node22" class="node"><title>Node22</title>
<g id="a_node22"><a xlink:href="classtextarea.html" target="_top" xlink:title="Descibes a textarea, it&#39;s sanitzation and validation. ">
<polygon fill="white" stroke="black" points="1664,-188 1664,-256 1731,-256 1731,-188 1664,-188"/>
<text text-anchor="middle" x="1697.5" y="-244" font-family="Helvetica,sans-Serif" font-size="10.00">textarea</text>
<polyline fill="none" stroke="black" points="1664,-237 1731,-237 "/>
<text text-anchor="middle" x="1697.5" y="-225" font-family="Helvetica,sans-Serif" font-size="10.00"> </text>
<polyline fill="none" stroke="black" points="1664,-218 1731,-218 "/>
<text text-anchor="start" x="1672" y="-206" font-family="Helvetica,sans-Serif" font-size="10.00">+ textarea()</text>
<text text-anchor="start" x="1672" y="-195" font-family="Helvetica,sans-Serif" font-size="10.00">+ form()</text>
</a>
</g>
</g>
<!-- Node8&#45;&gt;Node22 -->
<g id="edge22" class="edge"><title>Node8&#45;&gt;Node22</title>
<path fill="none" stroke="midnightblue" d="M1141.86,-477.115C1249.76,-468.594 1499.73,-435.245 1654.5,-306 1669.95,-293.101 1680.52,-273.225 1687.31,-256.157"/>
<polygon fill="none" stroke="midnightblue" points="1141.27,-473.649 1131.56,-477.887 1141.79,-480.63 1141.27,-473.649"/>
</g>
<!-- Node24 -->
<g id="node24" class="node"><title>Node24</title>
<g id="a_node24"><a xlink:href="classtime__input.html" target="_top" xlink:title="This convience class creates a date input. ">
<polygon fill="white" stroke="black" points="1749,-193.5 1749,-250.5 1832,-250.5 1832,-193.5 1749,-193.5"/>
<text text-anchor="middle" x="1790.5" y="-238.5" font-family="Helvetica,sans-Serif" font-size="10.00">time_input</text>
<polyline fill="none" stroke="black" points="1749,-231.5 1832,-231.5 "/>
<text text-anchor="middle" x="1790.5" y="-219.5" font-family="Helvetica,sans-Serif" font-size="10.00"> </text>
<polyline fill="none" stroke="black" points="1749,-212.5 1832,-212.5 "/>
<text text-anchor="start" x="1757" y="-200.5" font-family="Helvetica,sans-Serif" font-size="10.00">+ __construct()</text>
</a>
</g>
</g>
<!-- Node8&#45;&gt;Node24 -->
<g id="edge24" class="edge"><title>Node8&#45;&gt;Node24</title>
<path fill="none" stroke="midnightblue" d="M1142.11,-478.87C1260.75,-473.79 1553.32,-446.792 1740.5,-306 1759.05,-292.045 1772.13,-269.017 1780.25,-250.752"/>
<polygon fill="none" stroke="midnightblue" points="1141.71,-475.384 1131.85,-479.273 1141.98,-482.378 1141.71,-475.384"/>
</g>
<!-- Node25 -->
<g id="node25" class="node"><title>Node25</title>
<g id="a_node25"><a xlink:href="classzip__input.html" target="_top" xlink:title="This convience class creates a text input with validation for long or short form US zip codes...">
<polygon fill="white" stroke="black" points="1850,-193.5 1850,-250.5 1933,-250.5 1933,-193.5 1850,-193.5"/>
<text text-anchor="middle" x="1891.5" y="-238.5" font-family="Helvetica,sans-Serif" font-size="10.00">zip_input</text>
<polyline fill="none" stroke="black" points="1850,-231.5 1933,-231.5 "/>
<text text-anchor="middle" x="1891.5" y="-219.5" font-family="Helvetica,sans-Serif" font-size="10.00"> </text>
<polyline fill="none" stroke="black" points="1850,-212.5 1933,-212.5 "/>
<text text-anchor="start" x="1858" y="-200.5" font-family="Helvetica,sans-Serif" font-size="10.00">+ __construct()</text>
</a>
</g>
</g>
<!-- Node8&#45;&gt;Node25 -->
<g id="edge25" class="edge"><title>Node8&#45;&gt;Node25</title>
<path fill="none" stroke="midnightblue" d="M1141.69,-473.293C1292.84,-453.049 1727.42,-388.831 1841.5,-306 1860.42,-292.262 1873.54,-268.973 1881.57,-250.555"/>
<polygon fill="none" stroke="midnightblue" points="1141.18,-469.83 1131.73,-474.618 1142.1,-476.769 1141.18,-469.83"/>
</g>
<!-- Node14 -->
<g id="node14" class="node"><title>Node14</title>
<g id="a_node14"><a xlink:href="classget__input.html" target="_top" xlink:title="An hidden_input that reads its value from the $_GET global array on creation. ">
<polygon fill="white" stroke="black" points="836,-22.5 836,-79.5 919,-79.5 919,-22.5 836,-22.5"/>
<text text-anchor="middle" x="877.5" y="-67.5" font-family="Helvetica,sans-Serif" font-size="10.00">get_input</text>
<polyline fill="none" stroke="black" points="836,-60.5 919,-60.5 "/>
<text text-anchor="middle" x="877.5" y="-48.5" font-family="Helvetica,sans-Serif" font-size="10.00"> </text>
<polyline fill="none" stroke="black" points="836,-41.5 919,-41.5 "/>
<text text-anchor="start" x="844" y="-29.5" font-family="Helvetica,sans-Serif" font-size="10.00">+ __construct()</text>
</a>
</g>
</g>
<!-- Node13&#45;&gt;Node14 -->
<g id="edge14" class="edge"><title>Node13&#45;&gt;Node14</title>
<path fill="none" stroke="midnightblue" d="M877.5,-171.93C877.5,-141.863 877.5,-104.488 877.5,-79.5274"/>
<polygon fill="none" stroke="midnightblue" points="874,-172.228 877.5,-182.228 881,-172.228 874,-172.228"/>
</g>
<!-- Node23 -->
<g id="node23" class="node"><title>Node23</title>
<g id="a_node23"><a xlink:href="classtexteditor.html" target="_top" xlink:title="This is a form element wrapping the testarea with javascript to turn it into a rich text editor...">
<polygon fill="white" stroke="black" points="1661.5,-17 1661.5,-85 1733.5,-85 1733.5,-17 1661.5,-17"/>
<text text-anchor="middle" x="1697.5" y="-73" font-family="Helvetica,sans-Serif" font-size="10.00">texteditor</text>
<polyline fill="none" stroke="black" points="1661.5,-66 1733.5,-66 "/>
<text text-anchor="middle" x="1697.5" y="-54" font-family="Helvetica,sans-Serif" font-size="10.00"> </text>
<polyline fill="none" stroke="black" points="1661.5,-47 1733.5,-47 "/>
<text text-anchor="start" x="1669.5" y="-35" font-family="Helvetica,sans-Serif" font-size="10.00">+ texteditor()</text>
<text text-anchor="start" x="1669.5" y="-24" font-family="Helvetica,sans-Serif" font-size="10.00">+ form()</text>
</a>
</g>
</g>
<!-- Node22&#45;&gt;Node23 -->
<g id="edge23" class="edge"><title>Node22&#45;&gt;Node23</title>
<path fill="none" stroke="midnightblue" d="M1697.5,-177.408C1697.5,-148.591 1697.5,-111.408 1697.5,-85.0316"/>
<polygon fill="none" stroke="midnightblue" points="1694,-177.611 1697.5,-187.611 1701,-177.611 1694,-177.611"/>
</g>
</g>
</svg>
