<?xml version="1.0" encoding="UTF-8" standalone="no"?>
<!DOCTYPE svg PUBLIC "-//W3C//DTD SVG 1.1//EN"
 "http://www.w3.org/Graphics/SVG/1.1/DTD/svg11.dtd">
<!-- Generated by graphviz version 2.38.0 (20140413.2041)
 -->
<!-- Title: crud Pages: 1 -->
<svg width="210pt" height="303pt"
 viewBox="0.00 0.00 209.50 303.00" xmlns="http://www.w3.org/2000/svg" xmlns:xlink="http://www.w3.org/1999/xlink">
<g id="graph0" class="graph" transform="scale(1 1) rotate(0) translate(4 299)">
<title>crud</title>
<polygon fill="white" stroke="none" points="-4,4 -4,-299 205.5,-299 205.5,4 -4,4"/>
<!-- Node1 -->
<g id="node1" class="node"><title>Node1</title>
<polygon fill="#bfbfbf" stroke="black" points="77.5,-204.5 77.5,-294.5 138.5,-294.5 138.5,-204.5 77.5,-204.5"/>
<text text-anchor="middle" x="108" y="-282.5" font-family="Helvetica,sans-Serif" font-size="10.00">crud</text>
<polyline fill="none" stroke="black" points="77.5,-275.5 138.5,-275.5 "/>
<text text-anchor="middle" x="108" y="-263.5" font-family="Helvetica,sans-Serif" font-size="10.00"> </text>
<polyline fill="none" stroke="black" points="77.5,-256.5 138.5,-256.5 "/>
<text text-anchor="start" x="85.5" y="-244.5" font-family="Helvetica,sans-Serif" font-size="10.00">+ create()</text>
<text text-anchor="start" x="85.5" y="-233.5" font-family="Helvetica,sans-Serif" font-size="10.00">+ read()</text>
<text text-anchor="start" x="85.5" y="-222.5" font-family="Helvetica,sans-Serif" font-size="10.00">+ update()</text>
<text text-anchor="start" x="85.5" y="-211.5" font-family="Helvetica,sans-Serif" font-size="10.00">+ delete()</text>
</g>
<!-- Node2 -->
<g id="node2" class="node"><title>Node2</title>
<g id="a_node2"><a xlink:href="classdatabase__form.html" target="_top" xlink:title="This class allows the both the structure and the data for this form to be written out to a database...">
<polygon fill="white" stroke="black" points="0,-0.5 0,-167.5 106,-167.5 106,-0.5 0,-0.5"/>
<text text-anchor="middle" x="53" y="-155.5" font-family="Helvetica,sans-Serif" font-size="10.00">database_form</text>
<polyline fill="none" stroke="black" points="0,-148.5 106,-148.5 "/>
<text text-anchor="middle" x="53" y="-136.5" font-family="Helvetica,sans-Serif" font-size="10.00"> </text>
<polyline fill="none" stroke="black" points="0,-129.5 106,-129.5 "/>
<text text-anchor="start" x="8" y="-117.5" font-family="Helvetica,sans-Serif" font-size="10.00">+ __construct()</text>
<text text-anchor="start" x="8" y="-106.5" font-family="Helvetica,sans-Serif" font-size="10.00">+ create_form()</text>
<text text-anchor="start" x="8" y="-95.5" font-family="Helvetica,sans-Serif" font-size="10.00">+ read_form()</text>
<text text-anchor="start" x="8" y="-84.5" font-family="Helvetica,sans-Serif" font-size="10.00">+ update_form()</text>
<text text-anchor="start" x="8" y="-73.5" font-family="Helvetica,sans-Serif" font-size="10.00">+ delete_form()</text>
<text text-anchor="start" x="8" y="-62.5" font-family="Helvetica,sans-Serif" font-size="10.00">+ create()</text>
<text text-anchor="start" x="8" y="-51.5" font-family="Helvetica,sans-Serif" font-size="10.00">+ read()</text>
<text text-anchor="start" x="8" y="-40.5" font-family="Helvetica,sans-Serif" font-size="10.00">+ update()</text>
<text text-anchor="start" x="8" y="-29.5" font-family="Helvetica,sans-Serif" font-size="10.00">+ delete()</text>
<text text-anchor="start" x="8" y="-18.5" font-family="Helvetica,sans-Serif" font-size="10.00">+ display_structure()</text>
<text text-anchor="start" x="8" y="-7.5" font-family="Helvetica,sans-Serif" font-size="10.00">+ display_table()</text>
</a>
</g>
</g>
<!-- Node1&#45;&gt;Node2 -->
<g id="edge1" class="edge"><title>Node1&#45;&gt;Node2</title>
<path fill="none" stroke="midnightblue" d="M89.8999,-194.693C86.9836,-186.024 83.9069,-176.878 80.8248,-167.715"/>
<polygon fill="none" stroke="midnightblue" points="86.6105,-195.892 93.1162,-204.255 93.2451,-193.66 86.6105,-195.892"/>
</g>
<!-- Node3 -->
<g id="node3" class="node"><title>Node3</title>
<g id="a_node3"><a xlink:href="classdb__form.html" target="_top" xlink:title="Represents an HTML form, and saves form data in $db table named by the name attribue of this object...">
<polygon fill="white" stroke="black" points="124.5,-33.5 124.5,-134.5 201.5,-134.5 201.5,-33.5 124.5,-33.5"/>
<text text-anchor="middle" x="163" y="-122.5" font-family="Helvetica,sans-Serif" font-size="10.00">db_form</text>
<polyline fill="none" stroke="black" points="124.5,-115.5 201.5,-115.5 "/>
<text text-anchor="middle" x="163" y="-103.5" font-family="Helvetica,sans-Serif" font-size="10.00"> </text>
<polyline fill="none" stroke="black" points="124.5,-96.5 201.5,-96.5 "/>
<text text-anchor="start" x="132.5" y="-84.5" font-family="Helvetica,sans-Serif" font-size="10.00">+ create()</text>
<text text-anchor="start" x="132.5" y="-73.5" font-family="Helvetica,sans-Serif" font-size="10.00">+ read()</text>
<text text-anchor="start" x="132.5" y="-62.5" font-family="Helvetica,sans-Serif" font-size="10.00">+ update()</text>
<text text-anchor="start" x="132.5" y="-51.5" font-family="Helvetica,sans-Serif" font-size="10.00">+ delete()</text>
<text text-anchor="start" x="132.5" y="-40.5" font-family="Helvetica,sans-Serif" font-size="10.00">+ create_sql()</text>
</a>
</g>
</g>
<!-- Node1&#45;&gt;Node3 -->
<g id="edge2" class="edge"><title>Node1&#45;&gt;Node3</title>
<path fill="none" stroke="midnightblue" d="M126.1,-194.695C132.595,-175.385 139.886,-153.711 146.261,-134.76"/>
<polygon fill="none" stroke="midnightblue" points="122.755,-193.66 122.884,-204.255 129.39,-195.892 122.755,-193.66"/>
</g>
</g>
</svg>
